<svg id="favicon" xmlns="http://www.w3.org/2000/svg" xmlns:xlink="http://www.w3.org/1999/xlink" width="24" height="24" viewBox="0 0 24 24">
  <defs>
    <linearGradient id="linear-gradient" x1="0.051" y1="0.876" x2="0.906" y2="0.138" gradientUnits="objectBoundingBox">
      <stop offset="0" stop-color="#ed2925"/>
      <stop offset="1" stop-color="#ef5553"/>
    </linearGradient>
  </defs>
  <rect id="Rectangle_285" data-name="Rectangle 285" width="24" height="24" fill="#fff"/>
  <path id="Path_366" data-name="Path 366" d="M12,1.668c3.7,0,7.91-1.455,9.674.52,1.034,1.136,0,5.3,0,8.23,0,2.306,1.627,6.2.756,8.566-1.315,3.6-6.11,3.983-10.431,3.983-3.241,0-6.3.144-8.692-1.9C1.284,19.358,1.454,15.882,1.454,12.5c0-2.9-1.571-6.983,0-9.421C3.084.53,8.275,1.668,12,1.668Z" fill="#e1f3ff"/>
  <path id="Каркуша_copy_2" d="M263.525,531.482c.012-.585-.108-.955-.4-1.122A2.3,2.3,0,0,0,262,530.1a4.806,4.806,0,0,0-.826.058,2.972,2.972,0,0,0-.766.287,1.4,1.4,0,0,0-.575.632,5.8,5.8,0,0,0-.395,1.468,14.916,14.916,0,0,0-.1,2.637c.036,1.074.108,2.185.239,3.342s.3,2.268.517,3.342a14.67,14.67,0,0,0,.742,2.637,7.5,7.5,0,0,0,.517,1.086,1.807,1.807,0,0,0,.9.788,2.2,2.2,0,0,0,.73.191,4.425,4.425,0,0,0,1.125-.057,3.661,3.661,0,0,0,1.221-.394.761.761,0,0,0,.443-.823,1.645,1.645,0,0,0-.167-.585q-.144-.3-.251-.575a26.743,26.743,0,0,1-1.329-4.511,4.426,4.426,0,0,1,1.341.847c.67.6,1.292,1.182,1.855,1.766s1.125,1.122,1.675,1.623,1.113.955,1.664,1.385a1.867,1.867,0,0,0,1.4.537,4.444,4.444,0,0,0,1.747-1.207c.778-.728.91-1.4.4-1.981-.23-.239-.646-.632-1.281-1.169s-1.317-1.122-2.07-1.731-1.495-1.207-2.226-1.79-1.3-1.026-1.747-1.349q.915-1.11,1.867-2.148a12.2,12.2,0,0,1,2.3-1.909c.156-.1.311-.2.479-.31a2.208,2.208,0,0,0,.443-.37c.49-.5.383-1.038-.3-1.647a3.887,3.887,0,0,0-1.592-.991,1.623,1.623,0,0,0-1.006.179,6.86,6.86,0,0,0-.957.549,8.349,8.349,0,0,0-1.867,1.742c-.562.7-1.437,1.946-2.609,3.724-.058-1.814-.058-3.115-.012-3.891Z" transform="translate(-254.748 -525.72)" fill-rule="evenodd" fill="url(#linear-gradient)"/>
</svg>
