<svg xmlns="http://www.w3.org/2000/svg" width="157.187" height="30.701" viewBox="0 0 157.187 30.701">
  <g id="Logo" transform="translate(-22.803 -379.741)">
    <g id="Слой_12" data-name="Слой 12" transform="translate(90.278 384.061)">
      <path id="Path_424" data-name="Path 424" d="M839.683,441.514a6.6,6.6,0,1,1-6.6-6.66v-4.371a11.031,11.031,0,1,0,10.937,11.031Z" transform="translate(-822.143 -430.483)" fill="#e62128"/>
    </g>
    <g id="Слой_18" data-name="Слой 18" transform="translate(22.803 379.741)">
      <path id="Path_425" data-name="Path 425" d="M39.144,399.333,43,401.275a10.474,10.474,0,0,1-9.31,5.311c-6.454,0-10.884-5.051-10.884-11.559s4.43-11.56,10.884-11.56a10.412,10.412,0,0,1,9.31,5.31l-3.853,1.943a6.143,6.143,0,0,0-5.457-2.946c-4.078,0-6.518,3.108-6.518,7.253,0,4.112,2.44,7.22,6.518,7.22A6.12,6.12,0,0,0,39.144,399.333Zm35.113-.778H71.144v7.771h-4.27V383.661h8.315c5.007,0,7.8,3.3,7.8,7.448a7.019,7.019,0,0,1-4.27,6.8l4.816,8.418H78.719Zm-3.113-4.112h3.949a3.322,3.322,0,1,0,0-6.639H71.144Zm84.213,5.31c0,3.756-2.6,6.962-8.187,6.962-4.4,0-8.378-2.364-9.021-5.634l3.917-1.523c.417,1.716,2.375,2.785,4.72,2.785,2.6,0,4.013-1.036,4.013-2.428,0-1.36-1.091-1.943-4.751-3.044-5.169-1.554-7.288-3.53-7.288-6.864,0-2.979,2.151-6.541,7.93-6.541,3.435,0,6.934,1.845,7.577,5.083l-3.789,1.425c-.289-1.425-2.119-2.2-3.756-2.234-1.8-.032-3.435.616-3.435,2.105,0,1.068.835,1.748,4.367,2.849C152.081,394.055,155.357,395.545,155.357,399.754Zm24.634-16.093v22.666h-4.269V392.048l-5.491,8.936h-2.536l-5.49-8.936v14.279h-4.27V383.661h3.981l7.031,11.462,7.095-11.462Zm-47.343,22.666h4.848l-8.219-22.666H124.91l-8.219,22.666h4.848l1.73-5.107h7.615Zm-5.554-16.189,2.371,6.945h-4.741ZM59.927,406.327h4.848l-8.219-22.666H52.19l-8.219,22.666H48.82l1.73-5.107h7.615Zm-5.554-16.189,2.369,6.945H52Zm60.154,4.954H101.215V399.4h10.069a10.96,10.96,0,1,1-10.069-15.343v-4.32a15.351,15.351,0,1,0,15.22,15.35Z" transform="translate(-22.803 -379.741)" fill="#fff"/>
      <rect id="Rectangle_365" data-name="Rectangle 365" width="8.593" height="8.667" transform="translate(85.039 3.92)" fill="#e62128"/>
      <rect id="Rectangle_366" data-name="Rectangle 366" width="8.593" height="8.667" transform="translate(81.152 0)" fill="#fff"/>
    </g>
  </g>
</svg>
