<svg xmlns="http://www.w3.org/2000/svg" xmlns:xlink="http://www.w3.org/1999/xlink" width="320" height="484.016" viewBox="0 0 320 484.016">
  <defs>
    <clipPath id="clip-path">
      <rect width="320" height="484.016" fill="none"/>
    </clipPath>
    <clipPath id="clip-path-2">
      <path id="Path_98" data-name="Path 98" d="M28.15-40.658.106-59.223l120.946.337L28.15-40.658" transform="translate(-0.106 59.223)" fill="none" clip-rule="evenodd"/>
    </clipPath>
    <clipPath id="clip-path-3">
      <path id="Path_97" data-name="Path 97" d="M-35,331.051H600.051V-304H-35Z" transform="translate(35 304)" fill="none"/>
    </clipPath>
    <clipPath id="clip-path-4">
      <path id="Path_101" data-name="Path 101" d="M24.45-40.729,13.933-15.339,33.161-27.985l84.192-30.972L24.45-40.729" transform="translate(-13.933 58.957)" fill="#bedff4" clip-rule="evenodd"/>
    </clipPath>
    <clipPath id="clip-path-5">
      <path id="Path_100" data-name="Path 100" d="M-35,331.051H600.051V-304H-35Z" transform="translate(35 304)" fill="#bedff4"/>
    </clipPath>
    <clipPath id="clip-path-6">
      <path id="Path_104" data-name="Path 104" d="M13.933-21.876l24.392-1.905L33.161-34.523,13.933-21.876" transform="translate(-13.933 34.523)" fill="#a9cde3" clip-rule="evenodd"/>
    </clipPath>
    <clipPath id="clip-path-7">
      <path id="Path_103" data-name="Path 103" d="M-35,331.051H600.051V-304H-35Z" transform="translate(35 304)" fill="#a9cde3"/>
    </clipPath>
    <clipPath id="clip-path-8">
      <path id="Path_107" data-name="Path 107" d="M29.1-27.985,42.616,15.144l70.678-74.1L29.1-27.985" transform="translate(-29.102 58.957)" fill="none" clip-rule="evenodd"/>
    </clipPath>
  </defs>
  <g id="Repeat_Grid_1" data-name="Repeat Grid 1" clip-path="url(#clip-path)">
    <g transform="translate(0 -82.984)">
      <path id="Path_354" data-name="Path 354" d="M129.886,51.2c-15.567,5.23-62.231,0-62.231,0V-123.318s54.833-13.878,88,6c.137-12.9,135.371-58.352,172.855,6.571,16.632-7.128,37.127,4.839,43.412,16.635,5.217,9.789,6.009,20.8,5.146,31.3-.7,8.484,10.586,15.781,10.586,15.781v117s-20.141-24.077-43-20.821C311.045,53.933,259.323,64.87,229.05,51.2S129.886,51.2,129.886,51.2Z" transform="translate(-67.655 481.318)" fill="#fff" fill-rule="evenodd"/>
      <path id="Path_81" data-name="Path 81" d="M119.616,70.127c-32.991-1.561-55.961-5.994-55.961-5.994v-168s43.77-45.482,101.3-13.535c.145-12.644,142.012-57.65,181.548,5.973C374.8-123.6,383.655-95.04,383.655-95.04V64.851s-21.084-10.9-45.192-7.711c-35.453,4.692-102.54,25.1-134.471,11.712S152.607,71.688,119.616,70.127Z" transform="translate(-63.655 493.662)" fill="#e2f2fe" fill-rule="evenodd"/>
      <path id="Path_109" data-name="Path 109" d="M532.426,207.192c-10.845-43.78-141.144-65.257-213.29,6.889s-91.229,335.131,143.016,264.7" transform="translate(-261 -83)" fill="none" stroke="#d9d9d9" stroke-width="2" stroke-dasharray="9"/>
      <g id="Group_60" data-name="Group 60" transform="translate(182.49 412.789) rotate(-2)">
        <g id="Group_53" data-name="Group 53" transform="translate(0.106 -59.223)" clip-path="url(#clip-path-2)">
          <g id="Group_52" data-name="Group 52" transform="translate(-44.499 -310.271)" clip-path="url(#clip-path-3)">
            <path id="Path_96" data-name="Path 96" d="M-4.894-64.223H128.728v31.24H-4.894Z" transform="translate(43.055 368.156)" fill="#fffefe"/>
          </g>
        </g>
        <g id="Group_55" data-name="Group 55" transform="translate(17.633 -58.886)" clip-path="url(#clip-path-4)">
          <g id="Group_54" data-name="Group 54" transform="translate(-62.026 -310.608)" clip-path="url(#clip-path-5)">
            <path id="Path_99" data-name="Path 99" d="M8.933-63.957h116.1V-7.663H8.933Z" transform="translate(46.755 368.228)" fill="#bedff4"/>
          </g>
        </g>
        <g id="Group_57" data-name="Group 57" transform="translate(17.633 -27.914)" clip-path="url(#clip-path-6)">
          <g id="Group_56" data-name="Group 56" transform="translate(-62.026 -341.58)" clip-path="url(#clip-path-7)">
            <path id="Path_102" data-name="Path 102" d="M8.933-39.523H46V-14.2H8.933Z" transform="translate(46.755 374.765)" fill="#a9cde3"/>
          </g>
        </g>
        <g id="Group_59" data-name="Group 59" transform="translate(36.86 -58.886)" clip-path="url(#clip-path-8)">
          <g id="Group_58" data-name="Group 58" transform="translate(-81.254 -310.608)" clip-path="url(#clip-path-3)">
            <path id="Path_105" data-name="Path 105" d="M24.1-63.957H120.97V22.819H24.1Z" transform="translate(50.814 368.228)" fill="#fffefe"/>
          </g>
        </g>
      </g>
    </g>
  </g>
</svg>
