<svg xmlns="http://www.w3.org/2000/svg" xmlns:xlink="http://www.w3.org/1999/xlink" width="1816.541" height="6840.871" viewBox="0 0 1816.541 6840.871">
  <defs>
    <clipPath id="clip-path">
      <rect width="1816.541" height="6840.871" fill="none"/>
    </clipPath>
    <clipPath id="clip-path-2">
      <path id="Path_98" data-name="Path 98" d="M44.729-29.683.106-59.223l192.449.537-147.826,29" transform="translate(-0.106 59.223)" fill="none" clip-rule="evenodd"/>
    </clipPath>
    <clipPath id="clip-path-3">
      <path id="Path_97" data-name="Path 97" d="M-35,706.491H975.491V-304H-35Z" transform="translate(35 304)" fill="none"/>
    </clipPath>
    <clipPath id="clip-path-4">
      <path id="Path_101" data-name="Path 101" d="M30.668-29.953l-16.735,40.4,30.6-20.123L178.494-58.957l-147.826,29" transform="translate(-13.933 58.957)" fill="#e6e6e6" clip-rule="evenodd"/>
    </clipPath>
    <clipPath id="clip-path-5">
      <path id="Path_100" data-name="Path 100" d="M-35,706.491H975.491V-304H-35Z" transform="translate(35 304)" fill="#e6e6e6"/>
    </clipPath>
    <clipPath id="clip-path-6">
      <path id="Path_104" data-name="Path 104" d="M13.933-14.4l38.812-3.031L44.528-34.523,13.933-14.4" transform="translate(-13.933 34.523)" fill="#d3d3d3" clip-rule="evenodd"/>
    </clipPath>
    <clipPath id="clip-path-7">
      <path id="Path_103" data-name="Path 103" d="M-35,706.491H975.491V-304H-35Z" transform="translate(35 304)" fill="#d3d3d3"/>
    </clipPath>
    <clipPath id="clip-path-8">
      <path id="Path_107" data-name="Path 107" d="M29.1-9.675,50.6,58.952,163.068-58.957,29.1-9.675" transform="translate(-29.102 58.957)" fill="none" clip-rule="evenodd"/>
    </clipPath>
  </defs>
  <g id="Repeat_Grid_1" data-name="Repeat Grid 1" clip-path="url(#clip-path)">
    <g transform="translate(-96.477 -1619.93)">
      <path id="Path_111" data-name="Path 111" d="M914.25,2353.938c-356.126,48.031-371.906,204.205-545.785,73.469s-228.232-376.937-96.9-566S625.057,1834.4,986.4,1825.4c152.487-3.8,227.076-25.067,320.121-67.414,127.018-57.809,254.588-131.016,353.277-32.4,170.742,170.617,394.68,593.094,80.531,619.633S1270.376,2305.906,914.25,2353.938Z" transform="translate(15 1698)" fill="#f7fef0"/>
      <path id="Path_321" data-name="Path 321" d="M914.25,1894.563c-356.126-48.031-525.418-214.979-699.3-84.242s-74.721,357.71,56.613,546.77S625.057,2384.1,986.4,2393.1s434.174,147.288,635.563,40.285,267.473-472.41-46.676-498.949S1270.376,1942.594,914.25,1894.563Z" transform="translate(10 5987)" fill="#fff"/>
      <path id="Path_108" data-name="Path 108" d="M149.625,436.8C465.31,329.9,896.254,320.005,896.254,738.392c0,201.243-251.155,429.919-639.639,303.459s-668.811-10.613-669.622,261.5c-.86,288.886,248.914,424.489,669.622,330.372s359.457,155.425,280.24,109.2,94.458-154.909,194.492-143.733,203.612,129.624,164.907,315.107-311.816,357.833-639.639,357.833-680.053-63.477-680.053,277,277.431,374.235,490.16,374.235,825.751-79.354,829.531,365.521c2.324,273.581-312.718,382.638-683.885,363.62s-591.488,80.1-591.488,509.483c0,217.268,225.507,394,541.011,494.645,309.123,98.608,713.825,27.686,716.638,314.38s-290.956,57.272-290.956,57.272" transform="translate(717.438 1246.601)" fill="none" stroke="#d9d9d9" stroke-width="2" stroke-dasharray="9" opacity="0.58"/>
      <g id="knitting" transform="matrix(0.985, 0.174, -0.174, 0.985, 534.347, 3981.995)">
        <g id="Group_148" data-name="Group 148" transform="translate(0.001)">
          <g id="Group_147" data-name="Group 147" transform="translate(0)">
            <path id="Path_290" data-name="Path 290" d="M385.237,19.915a1.473,1.473,0,0,0,.952-.351L396.624,10.7a5.885,5.885,0,1,0-2.507-4.81,5.826,5.826,0,0,0,.607,2.557l-10.443,8.866a1.474,1.474,0,0,0,.956,2.6ZM400.011,2.947a2.947,2.947,0,1,1-2.947,2.947A2.951,2.951,0,0,1,400.011,2.947Z" transform="translate(-317.492)" fill="#d7eac6"/>
            <path id="Path_291" data-name="Path 291" d="M53.9,428.4a33.176,33.176,0,0,1-19.438-6.14l1.982-1.549a1.473,1.473,0,1,0-1.812-2.322l-17,13.271a1.473,1.473,0,1,0,1.812,2.322l12.609-9.841a36.052,36.052,0,0,0,21.85,7.206,1.473,1.473,0,1,0,0-2.947Z" transform="translate(-14.118 -345.88)" fill="#d7eac6"/>
            <path id="Path_292" data-name="Path 292" d="M96.64,77.108a5.831,5.831,0,0,0-5.546,7.816l-10.123,7.9a1.475,1.475,0,0,0,1.814,2.325l2.778-2.171a33.945,33.945,0,0,1-8.6,36.988,63.1,63.1,0,0,0-8.379-55.388A33.935,33.935,0,0,1,81.656,85.642a1.474,1.474,0,1,0,2.412-1.693A36.9,36.9,0,0,0,53.906,68.266c-.834,0-1.664.037-2.49.093-.037,0-.072,0-.112.007A36.577,36.577,0,0,0,27.868,79.044a1.474,1.474,0,0,0,2.084,2.085A33.844,33.844,0,0,1,41.3,73.642a59.519,59.519,0,0,1,6.084,6.126,63.419,63.419,0,0,0-25.653,7.851c-.037.021-.058.058-.094.081a1.5,1.5,0,0,0-.227.2,1.462,1.462,0,0,0-.18.227,1.221,1.221,0,0,0-.081.1,36.9,36.9,0,0,0-3.864,12.941,1.093,1.093,0,0,0-.013.158,36.378,36.378,0,0,0,2.473,17.608,1.473,1.473,0,0,0,1.366.921,1.5,1.5,0,0,0,.554-.108,1.475,1.475,0,0,0,.812-1.92,33.526,33.526,0,0,1-1.737-5.773A60.275,60.275,0,0,1,58.371,98.7a60.391,60.391,0,0,1,.078,40.775c-.012.032,0,.063-.015.1a1.492,1.492,0,0,0-.037.261,1.375,1.375,0,0,0-.01.311c0,.03-.007.055,0,.084a1.448,1.448,0,0,0,.08.219,1.428,1.428,0,0,0,.074.2,1.41,1.41,0,0,0,.237.323c.03.032.05.069.083.1a1.47,1.47,0,0,0,.978.385,1.425,1.425,0,0,0,.248-.021A36.835,36.835,0,0,0,87.974,91.1l4.761-3.713a5.884,5.884,0,1,0,3.9-10.275ZM23.581,89.973A60.836,60.836,0,0,1,49.63,82.554a60.729,60.729,0,0,1,3.482,5.118,63.862,63.862,0,0,0-32.393,10.56A33.526,33.526,0,0,1,23.581,89.973ZM20.216,108.7a34.316,34.316,0,0,1-.2-3.6c0-.97.055-1.929.134-2.884A60.774,60.774,0,0,1,54.776,90.579q1.353,2.537,2.456,5.187A63.369,63.369,0,0,0,20.216,108.7Zm41.833,29.291a63.43,63.43,0,0,0-1.21-41.117,1.417,1.417,0,0,0-.134-.36,63.928,63.928,0,0,0-3.662-7.925,1.356,1.356,0,0,0-.174-.314A62.739,62.739,0,0,0,44.511,72.547a33.7,33.7,0,0,1,6.375-1.186A60.665,60.665,0,0,1,65.3,137.036,33.724,33.724,0,0,1,62.049,137.994Zm6.974-2.551a63.694,63.694,0,0,0-14.095-64.2A33.875,33.875,0,0,1,63.4,72.585a60.2,60.2,0,0,1,9.2,60.8A33.638,33.638,0,0,1,69.023,135.443ZM96.64,85.949A2.947,2.947,0,1,1,99.587,83,2.95,2.95,0,0,1,96.64,85.949Z" transform="translate(-14.12 -56.478)" fill="#d7eac6"/>
            <path id="Path_293" data-name="Path 293" d="M12.747,352.4a1.475,1.475,0,0,0,2.165-2,32.276,32.276,0,0,1-2.972-3.684l8.231-7.2A1.474,1.474,0,0,0,18.23,337.3l-8.69,7.6a1.265,1.265,0,0,0-.972.85L.5,352.8a1.474,1.474,0,1,0,1.939,2.219l7.265-6.351A35.366,35.366,0,0,0,12.747,352.4Z" transform="translate(-0.001 -278.756)" fill="#d7eac6"/>
          </g>
        </g>
      </g>
      <path id="Path_346" data-name="Path 346" d="M612.367,2639.571c-342.531,340.113-1034.762-2.318-1001.016-241.98s317.442-125.465,645.264-125.465,600.934-272.35,639.639-457.833-64.873-303.931-164.907-315.107-273.709,97.507-194.492,143.733,140.467-203.315-280.24-109.2-670.482,58.513-669.622-230.372c.81-272.111,483.025-326.9,647.775-304.187S491.938,1110.72,491.938,1110.72" transform="translate(717.438 5094.601)" fill="none" stroke="#d9d9d9" stroke-width="2" stroke-dasharray="9" opacity="0.58"/>
      <path id="Path_110" data-name="Path 110" d="M907.719,1908.828C551.593,1860.8,352.836,1697.1,178.957,1827.836s-38.725,370.194,92.609,559.254S625.057,2414.1,986.4,2423.1s434.174,147.288,635.563,40.285,267.473-502.41-46.676-528.949S1263.845,1956.859,907.719,1908.828Z" transform="translate(0 401)" fill="#ff80aa" opacity="0.09"/>
      <g id="pencil-box" transform="translate(697.396 3642.123) rotate(-8)">
        <g id="Group_78" data-name="Group 78" transform="translate(68.266)">
          <g id="Group_77" data-name="Group 77" transform="translate(0)">
            <path id="Path_160" data-name="Path 160" d="M376.922,102.4a1.455,1.455,0,0,0-1.454,1.454V118.4a1.454,1.454,0,1,0,2.909,0V103.854A1.455,1.455,0,0,0,376.922,102.4Z" transform="translate(-323.103 -84.946)" fill="#d7eac6"/>
            <path id="Path_161" data-name="Path 161" d="M332.8,103.854V118.4a1.454,1.454,0,1,0,2.909,0V103.854a1.454,1.454,0,1,0-2.909,0Z" transform="translate(-287.709 -84.946)" fill="#d7eac6"/>
            <path id="Path_162" data-name="Path 162" d="M291.588,35.13a1.455,1.455,0,0,0,1.454-1.454V13.73l5.818-9.309,4.649,7.437h-6.1a1.454,1.454,0,0,0,0,2.909h8.727a1.454,1.454,0,0,0,1.234-2.225L300.094.905a1.511,1.511,0,0,0-2.467,0l-7.273,11.636a1.457,1.457,0,0,0-.221.771V33.676A1.455,1.455,0,0,0,291.588,35.13Z" transform="translate(-252.315 -0.221)" fill="#d7eac6"/>
            <path id="Path_163" data-name="Path 163" d="M129.357,221.867H71.175a2.912,2.912,0,0,0-2.909,2.909v5.818a2.912,2.912,0,0,0,2.909,2.909v30.545a7.281,7.281,0,0,0,7.273,7.273h43.636a7.281,7.281,0,0,0,7.273-7.273V237.867a1.454,1.454,0,0,0-2.909,0v26.182a4.369,4.369,0,0,1-4.364,4.364H78.448a4.369,4.369,0,0,1-4.364-4.364v-32a1.455,1.455,0,0,0-1.454-1.454H71.175v-5.818h58.182v5.818H78.448a1.454,1.454,0,1,0,0,2.909h50.909a2.912,2.912,0,0,0,2.909-2.909v-5.818A2.912,2.912,0,0,0,129.357,221.867Z" transform="translate(-68.266 -184.049)" fill="#d7eac6"/>
            <path id="Path_164" data-name="Path 164" d="M359.854,409.6a1.455,1.455,0,0,0-1.454,1.454v2.909a1.454,1.454,0,0,0,2.909,0v-2.909A1.455,1.455,0,0,0,359.854,409.6Z" transform="translate(-308.946 -339.782)" fill="#d7eac6"/>
            <path id="Path_165" data-name="Path 165" d="M120.921,34.909h2.909a1.454,1.454,0,1,0,0-2.909h-1.454V29.091h7.273a1.454,1.454,0,1,0,0-2.909h-7.273V23.273h1.454a1.454,1.454,0,0,0,0-2.909h-1.454V17.454h1.454a1.454,1.454,0,0,0,0-2.909h-1.454V11.636h7.273a1.455,1.455,0,0,0,0-2.909h-7.273V2.909H139.83V33.454a1.454,1.454,0,1,0,2.909,0v-32A1.455,1.455,0,0,0,141.285,0H120.921a1.455,1.455,0,0,0-1.454,1.454v32A1.455,1.455,0,0,0,120.921,34.909Z" transform="translate(-110.74)" fill="#d7eac6"/>
            <path id="Path_166" data-name="Path 166" d="M361.31,308.655a1.454,1.454,0,0,0-2.909,0v11.636a1.454,1.454,0,0,0,2.909,0Z" transform="translate(-308.946 -254.837)" fill="#d7eac6"/>
          </g>
        </g>
      </g>
      <g id="color-palette" transform="matrix(0.978, 0.208, -0.208, 0.978, 382.527, 3719.285)">
        <g id="Group_146" data-name="Group 146">
          <g id="Group_145" data-name="Group 145">
            <path id="Path_283" data-name="Path 283" d="M348.244,321.021a6.911,6.911,0,1,0-6.911-6.911A6.919,6.919,0,0,0,348.244,321.021Zm0-11.057a4.146,4.146,0,1,1-4.147,4.146A4.152,4.152,0,0,1,348.244,309.964Z" transform="translate(-286.047 -257.441)" fill="#d7ebc5"/>
            <path id="Path_284" data-name="Path 284" d="M79.3,35.383c-2.644-1.093-5.866-.2-8.4,2.34-2.874,2.874-7.909,5.124-11.462,5.124a1.382,1.382,0,1,0,0,2.764c4.337,0,9.979-2.5,13.417-5.934,1.706-1.706,3.819-2.391,5.39-1.74,1.243.514,1.925,1.768,1.925,3.527a38.7,38.7,0,0,1-77.4,0c0-20.978,17.75-38.7,38.759-38.7,1.751,0,3,.672,3.5,1.892.651,1.569-.044,3.7-1.771,5.424A20.181,20.181,0,0,0,37.318,23.5c0,10.973,6.232,19.2,16.265,21.482a1.383,1.383,0,0,0,.612-2.7C45.358,40.276,40.083,33.254,40.083,23.5a17.546,17.546,0,0,1,5.124-11.462c2.557-2.558,3.467-5.79,2.37-8.435C46.644,1.346,44.38,0,41.523,0,19.014,0,0,18.988,0,41.465a41.465,41.465,0,0,0,82.93,0A6.23,6.23,0,0,0,79.3,35.383Z" fill="#d7ebc5"/>
            <path id="Path_285" data-name="Path 285" d="M155.563,371.364a4.147,4.147,0,1,0,1.932,2.518A4.15,4.15,0,0,0,155.563,371.364Zm-.876,4.282a1.41,1.41,0,0,1-1.887.506,1.382,1.382,0,0,1,.692-2.579,1.382,1.382,0,0,1,1.194,2.073Z" transform="translate(-125.155 -310.747)" fill="#d7ebc5"/>
            <path id="Path_286" data-name="Path 286" d="M92.053,157.064a4.156,4.156,0,0,0,2.069.556h0a4.147,4.147,0,0,0,4.007-5.22,4.146,4.146,0,1,0-6.077,4.665Zm.876-4.282a1.386,1.386,0,0,1,1.2-.692,1.383,1.383,0,0,1,1.194,2.075,1.414,1.414,0,0,1-1.888.5,1.377,1.377,0,0,1-.5-1.887Z" transform="translate(-75.404 -125.139)" fill="#d7ebc5"/>
            <path id="Path_287" data-name="Path 287" d="M230.4,396.68a4.148,4.148,0,1,0,4.146-4.147A4.154,4.154,0,0,0,230.4,396.68Zm5.529,0a1.38,1.38,0,1,1-.4-.977A1.382,1.382,0,0,1,235.929,396.68Z" transform="translate(-193.082 -328.954)" fill="#d7ebc5"/>
            <path id="Path_288" data-name="Path 288" d="M94.134,319.76a4.144,4.144,0,0,0,4-3.074,4.107,4.107,0,0,0-.415-3.144,4.145,4.145,0,1,0-3.587,6.218Zm-1.337-4.5a1.371,1.371,0,0,1,.643-.84,1.355,1.355,0,0,1,.687-.184,1.382,1.382,0,0,1,.7,2.579,1.413,1.413,0,0,1-1.888-.506A1.372,1.372,0,0,1,92.8,315.256Z" transform="translate(-75.409 -261.018)" fill="#d7ebc5"/>
            <path id="Path_289" data-name="Path 289" d="M68.267,234.546a4.146,4.146,0,1,0,4.146-4.146A4.152,4.152,0,0,0,68.267,234.546Zm4.146-1.382a1.382,1.382,0,1,1-1.382,1.382A1.384,1.384,0,0,1,72.413,233.164Z" transform="translate(-57.21 -193.082)" fill="#d7ebc5"/>
          </g>
        </g>
      </g>
      <g id="blackboard" transform="matrix(0.985, -0.174, 0.174, 0.985, 1345.085, 3262.957)">
        <g id="Group_150" data-name="Group 150">
          <g id="Group_149" data-name="Group 149">
            <path id="Path_294" data-name="Path 294" d="M275.548,461.224a1.455,1.455,0,0,0-2.057,2.057l5.819,5.819a1.455,1.455,0,0,0,2.057-2.057Z" transform="translate(-226.513 -382.241)" fill="#e5e5e5"/>
            <path id="Path_295" data-name="Path 295" d="M199.37,409.6a1.454,1.454,0,0,0-1.455,1.455v3.762l-9.757,9.757a1.455,1.455,0,1,0,2.057,2.057L200.4,416.447a1.459,1.459,0,0,0,.426-1.029v-4.364A1.454,1.454,0,0,0,199.37,409.6Z" transform="translate(-155.728 -339.772)" fill="#e5e5e5"/>
            <path id="Path_296" data-name="Path 296" d="M85.83,2.91H45.1V1.455a1.455,1.455,0,1,0-2.909,0V2.909H1.455A1.455,1.455,0,0,0,0,4.364v5.819a1.454,1.454,0,0,0,1.455,1.455H77.1a1.455,1.455,0,0,0,0-2.909H2.909V5.819H84.375v2.91H82.921a1.454,1.454,0,0,0-1.455,1.455V59.645A4.37,4.37,0,0,1,77.1,64.009H10.183a4.37,4.37,0,0,1-4.364-4.364V16A1.455,1.455,0,0,0,2.91,16V59.645a7.282,7.282,0,0,0,7.274,7.274H77.1a7.282,7.282,0,0,0,7.274-7.274V11.638H85.83a1.454,1.454,0,0,0,1.455-1.455V4.364A1.454,1.454,0,0,0,85.83,2.91Z" fill="#e5e5e5"/>
            <path id="Path_297" data-name="Path 297" d="M348.606,156.51a4.151,4.151,0,0,1,4.364,4.372,1.455,1.455,0,0,0,2.909-.007c0-2.517-1.52-7.274-7.274-7.274s-7.274,4.757-7.274,7.274v5.819c0,2.515,1.52,7.274,7.274,7.274s7.274-4.758,7.274-7.274a1.451,1.451,0,0,0-1.446-1.45h-.009a1.457,1.457,0,0,0-1.455,1.443,4.364,4.364,0,1,1-8.729.007v-5.812A4.15,4.15,0,0,1,348.606,156.51Z" transform="translate(-283.142 -127.415)" fill="#e5e5e5"/>
            <path id="Path_298" data-name="Path 298" d="M99.989,156a1.453,1.453,0,0,0,1.343.895,1.436,1.436,0,0,0,.56-.112,1.455,1.455,0,0,0,.783-1.9L95.4,137.428a1.455,1.455,0,0,0-2.685,0l-7.274,17.457A1.455,1.455,0,0,0,88.127,156l.839-2.015H92.6a1.455,1.455,0,1,0,0-2.909H90.178l3.88-9.31Z" transform="translate(-70.782 -113.257)" fill="#e5e5e5"/>
            <path id="Path_299" data-name="Path 299" d="M223.322,186.922a1.454,1.454,0,0,0-1.455,1.455v17.457a1.454,1.454,0,0,0,1.455,1.455h5.819c2.515,0,7.274-1.216,7.274-5.819a5.023,5.023,0,0,0-1.845-4.044,5.849,5.849,0,0,0,1.845-4.684,5.766,5.766,0,0,0-2.016-4.824c-2.223-1.735-5.271-1.036-5.61-.951a1.454,1.454,0,1,0,.7,2.822,4.351,4.351,0,0,1,3.115.422,3.069,3.069,0,0,1-1.768,5.6,9.815,9.815,0,0,0-1.7-.159,1.455,1.455,0,0,0-.352,2.866,8.063,8.063,0,0,0,1.789.21c1.274.265,2.927.954,2.927,2.744,0,2.848-4.191,2.908-4.364,2.91h-4.364v-16A1.454,1.454,0,0,0,223.322,186.922Z" transform="translate(-184.043 -154.918)" fill="#e5e5e5"/>
          </g>
        </g>
      </g>
      <g id="open-book" transform="matrix(0.966, 0.259, -0.259, 0.966, 1074.484, 2910.157)">
        <g id="Group_152" data-name="Group 152" transform="translate(0.002 0)">
          <g id="Group_151" data-name="Group 151" transform="translate(0 0)">
            <path id="Path_300" data-name="Path 300" d="M290.284,204.017a1.423,1.423,0,0,0,1.913.621c.084-.043,8.448-4.292,12.573-5.595a1.422,1.422,0,0,0-.858-2.711c-4.346,1.374-12.653,5.595-13.005,5.774A1.422,1.422,0,0,0,290.284,204.017Z" transform="translate(-241.816 -163.583)" fill="#e5e5e5"/>
            <path id="Path_301" data-name="Path 301" d="M291.553,102.394a1.418,1.418,0,0,0,.644-.155c.084-.043,8.448-4.292,12.573-5.595a1.422,1.422,0,0,0-.858-2.711c-4.345,1.374-12.653,5.595-13.005,5.774a1.421,1.421,0,0,0,.647,2.687Z" transform="translate(-241.816 -78.236)" fill="#e5e5e5"/>
            <path id="Path_302" data-name="Path 302" d="M83.842,21.316a1.421,1.421,0,0,0-1.421,1.421v55.42a4.268,4.268,0,0,1-4.263,4.263h-34.1V79.15a41.876,41.876,0,0,1,12.789-2.414A73.3,73.3,0,0,1,77.71,79.5a1.421,1.421,0,0,0,1.869-1.349V15.632a1.419,1.419,0,0,0-1.113-1.387s-1.114-.249-3.018-.6a1.421,1.421,0,0,0-.514,2.8c.726.134,1.334.251,1.8.345V76.268a80.251,80.251,0,0,0-19.894-2.374,44.643,44.643,0,0,0-14.155,2.723,33.289,33.289,0,0,0-12.845-2.723A95.759,95.759,0,0,0,8.528,76.328v-59.6a93.535,93.535,0,0,1,21.315-2.521,30.81,30.81,0,0,1,11.368,2.342v55.92a1.421,1.421,0,0,0,2.153,1.218c.141-.084,14.22-8.493,26.716-12.658a1.421,1.421,0,0,0,.972-1.349V1.422A1.423,1.423,0,0,0,69.131.09,151.163,151.163,0,0,0,46.142,11.585a1.421,1.421,0,0,0,1.506,2.41A151.882,151.882,0,0,1,68.211,3.5V58.666A159.247,159.247,0,0,0,44.053,70V15.632a1.422,1.422,0,0,0-.786-1.272,32.9,32.9,0,0,0-13.424-2.991,92.228,92.228,0,0,0-23.127,2.9,1.42,1.42,0,0,0-1.03,1.366V78.157a1.42,1.42,0,0,0,1.421,1.421,1.4,1.4,0,0,0,.389-.055,91.282,91.282,0,0,1,22.347-2.787,30.742,30.742,0,0,1,11.368,2.343V82.42H7.107a4.268,4.268,0,0,1-4.263-4.263V22.737a1.421,1.421,0,1,0-2.842,0v55.42a7.113,7.113,0,0,0,7.105,7.105H78.158a7.113,7.113,0,0,0,7.105-7.105V22.737A1.421,1.421,0,0,0,83.842,21.316Z" transform="translate(-0.002 0)" fill="#e5e5e5"/>
            <path id="Path_303" data-name="Path 303" d="M290.284,152.817a1.423,1.423,0,0,0,1.913.621c.084-.043,8.448-4.292,12.573-5.595a1.422,1.422,0,0,0-.858-2.711c-4.346,1.374-12.653,5.595-13.005,5.774A1.422,1.422,0,0,0,290.284,152.817Z" transform="translate(-241.816 -120.909)" fill="#e5e5e5"/>
            <path id="Path_304" data-name="Path 304" d="M290.284,255.217a1.423,1.423,0,0,0,1.913.621c.084-.043,8.448-4.292,12.573-5.595a1.422,1.422,0,0,0-.858-2.711c-4.346,1.374-12.653,5.595-13.005,5.774A1.422,1.422,0,0,0,290.284,255.217Z" transform="translate(-241.816 -206.257)" fill="#e5e5e5"/>
            <path id="Path_305" data-name="Path 305" d="M105.552,154.431c-8.775-2.059-18.746.564-19.165.676a1.421,1.421,0,0,0,.367,2.794,1.445,1.445,0,0,0,.37-.048c.1-.027,9.7-2.552,17.781-.655a1.421,1.421,0,1,0,.648-2.767Z" transform="translate(-71.123 -128.059)" fill="#e5e5e5"/>
            <path id="Path_306" data-name="Path 306" d="M105.552,205.634c-8.775-2.058-18.746.564-19.165.676a1.421,1.421,0,0,0,.367,2.794,1.444,1.444,0,0,0,.37-.048c.1-.027,9.7-2.552,17.781-.655a1.421,1.421,0,1,0,.648-2.767Z" transform="translate(-71.123 -170.736)" fill="#e5e5e5"/>
            <path id="Path_307" data-name="Path 307" d="M290.284,306.417a1.423,1.423,0,0,0,1.913.621c.084-.043,8.448-4.292,12.573-5.595a1.422,1.422,0,0,0-.858-2.711c-4.346,1.374-12.653,5.595-13.005,5.774A1.422,1.422,0,0,0,290.284,306.417Z" transform="translate(-241.816 -248.931)" fill="#e5e5e5"/>
            <path id="Path_308" data-name="Path 308" d="M105.552,256.833c-8.775-2.058-18.746.563-19.165.676a1.422,1.422,0,0,0,.367,2.8,1.439,1.439,0,0,0,.37-.05c.1-.027,9.7-2.552,17.781-.655a1.421,1.421,0,1,0,.648-2.767Z" transform="translate(-71.123 -213.409)" fill="#e5e5e5"/>
            <path id="Path_309" data-name="Path 309" d="M105.552,359.231c-8.775-2.059-18.746.564-19.165.676a1.422,1.422,0,0,0,.367,2.8,1.439,1.439,0,0,0,.37-.05c.1-.027,9.7-2.552,17.781-.655a1.421,1.421,0,1,0,.648-2.767Z" transform="translate(-71.123 -298.754)" fill="#e5e5e5"/>
            <path id="Path_310" data-name="Path 310" d="M105.552,308.029c-8.775-2.059-18.746.563-19.165.676a1.422,1.422,0,0,0,.367,2.8,1.441,1.441,0,0,0,.37-.05c.1-.027,9.7-2.552,17.781-.655a1.421,1.421,0,1,0,.648-2.767Z" transform="translate(-71.123 -256.079)" fill="#e5e5e5"/>
          </g>
        </g>
      </g>
      <g id="bell" transform="translate(1401 2940.892)">
        <g id="Group_154" data-name="Group 154" transform="translate(0 0.01)">
          <g id="Group_153" data-name="Group 153" transform="translate(0 0)">
            <path id="Path_311" data-name="Path 311" d="M117.044,392.512a1.37,1.37,0,0,0-1.9.365,5.472,5.472,0,1,1-7.6-7.6,1.368,1.368,0,0,0-1.534-2.267,8.208,8.208,0,1,0,11.4,11.4A1.368,1.368,0,0,0,117.044,392.512Z" transform="translate(-85.985 -321.415)" fill="#e5e5e5"/>
            <path id="Path_312" data-name="Path 312" d="M54.722,17.059A24.462,24.462,0,0,0,37.31,24.271L23.768,37.814A1.368,1.368,0,0,0,25.7,39.748L39.244,26.206A21.89,21.89,0,0,1,70.2,57.162L52.788,74.574a1.367,1.367,0,0,0-.257,1.579c1.669,3.338.85,10.084-1.512,12.445l-4.5,4.5L3.3,49.892l4.5-4.5c2.318-2.317,8.855-3.151,12.256-1.6L48.919,72.638A1.368,1.368,0,1,0,50.853,70.7l-29.02-29.02a1.371,1.371,0,0,0-.356-.256c-4.394-2.2-12.419-1.161-15.6,2.025L.4,48.925a1.367,1.367,0,0,0,0,1.934L45.546,96a1.367,1.367,0,0,0,1.934,0l5.472-5.472c2.971-2.971,4.075-10.156,2.423-14.678L72.134,59.1A24.625,24.625,0,0,0,54.722,17.059Z" transform="translate(0 -14.326)" fill="#e5e5e5"/>
            <path id="Path_313" data-name="Path 313" d="M449.915,1.611a5.476,5.476,0,0,0-7.738,0l-1.806,1.806a1.368,1.368,0,0,0,1.934,1.934l1.806-1.806a2.736,2.736,0,1,1,3.869,3.869l-1.8,1.806a1.368,1.368,0,1,0,1.934,1.935l1.8-1.8a5.471,5.471,0,0,0,0-7.739Z" transform="translate(-369.435 -0.01)" fill="#e5e5e5"/>
            <path id="Path_314" data-name="Path 314" d="M294.788,72.417a1.372,1.372,0,0,0,.575-.127,13.769,13.769,0,0,1,11.405-.034,1.369,1.369,0,0,0,1.136-2.491,16.523,16.523,0,0,0-13.693.042,1.369,1.369,0,0,0,.577,2.61Z" transform="translate(-246.378 -57.352)" fill="#e5e5e5"/>
          </g>
        </g>
      </g>
      <g id="canvas" transform="matrix(0.985, 0.174, -0.174, 0.985, 733.795, 2357.194)">
        <g id="Group_157" data-name="Group 157" transform="translate(51.2)">
          <g id="Group_156" data-name="Group 156">
            <path id="Path_324" data-name="Path 324" d="M167.377,395.262h3.249a1.364,1.364,0,1,0,0-2.728H140.62a1.364,1.364,0,1,0,0,2.728h3.249l-7.2,14.393a1.364,1.364,0,1,0,2.44,1.219l7.807-15.613h7.341v15a1.364,1.364,0,0,0,2.728,0v-15h7.341l7.807,15.613a1.363,1.363,0,1,0,2.439-1.219Z" transform="translate(-122.889 -329.794)" fill="#f4d6e0"/>
            <path id="Path_325" data-name="Path 325" d="M189.1,8.183h19.095a1.364,1.364,0,1,0,0-2.728h-8.183V1.364a1.364,1.364,0,0,0-2.728,0V5.456H189.1a1.364,1.364,0,0,0,0,2.728Z" transform="translate(-165.911)" fill="#f4d6e0"/>
            <path id="Path_326" data-name="Path 326" d="M109.848,68.267H58.02a6.827,6.827,0,0,0-6.82,6.82v28.642a1.364,1.364,0,1,0,2.728,0V75.087a4.1,4.1,0,0,1,4.092-4.092h51.829a4.1,4.1,0,0,1,4.092,4.092v35.462a4.1,4.1,0,0,1-4.092,4.092H58.02a4.1,4.1,0,0,1-4.056-3.545c8.91-8.177,25.223-2.066,25.391-2a1.359,1.359,0,0,0,1.579-.456c.037-.049,3.784-4.91,12.548-4.91A27.417,27.417,0,0,1,109,108.887a1.364,1.364,0,0,0,1.7-2.132,29.875,29.875,0,0,0-15.855-5.708V98.1a5.229,5.229,0,0,0,4.092-5.286c0-3.2-.393-13.639-5.456-13.639-5.194,0-5.456,11.361-5.456,13.639A5.229,5.229,0,0,0,92.118,98.1v2.935c-7.143.379-11.175,3.659-12.682,5.191-3.856-1.3-18.928-5.557-27.836,3.354a1.363,1.363,0,0,0-.4.964,6.827,6.827,0,0,0,6.82,6.82h51.829a6.827,6.827,0,0,0,6.82-6.82V75.086A6.828,6.828,0,0,0,109.848,68.267ZM90.753,92.817c0-6.76,1.589-10.911,2.728-10.911,1.114,0,2.728,3.886,2.728,10.911a2.728,2.728,0,1,1-5.456,0Z" transform="translate(-51.2 -57.356)" fill="#f4d6e0"/>
            <path id="Path_327" data-name="Path 327" d="M120.831,124.915a1.364,1.364,0,0,0,0,2.728h1.616a3.852,3.852,0,0,0,.158.39l-1.14,1.14a1.364,1.364,0,1,0,1.929,1.929l1.14-1.14c.128.06.256.11.391.158v1.616a1.364,1.364,0,0,0,2.728,0v-1.619a4.178,4.178,0,0,0,.387-.158l1.14,1.142a1.364,1.364,0,0,0,1.931-1.927l-1.143-1.146c.06-.125.11-.255.158-.387h1.618a1.364,1.364,0,0,0,0-2.728h-1.62c-.048-.134-.1-.262-.158-.389l1.142-1.14a1.363,1.363,0,1,0-1.926-1.93l-1.144,1.143a3.575,3.575,0,0,0-.389-.158v-1.616a1.364,1.364,0,0,0-1.363-1.365h0a1.363,1.363,0,0,0-1.364,1.364v1.616a3.894,3.894,0,0,0-.389.16l-1.14-1.142a1.363,1.363,0,1,0-1.929,1.927l1.14,1.142a3.9,3.9,0,0,0-.158.39h-1.616Zm5.456,0a1.364,1.364,0,1,1-1.364,1.364A1.365,1.365,0,0,1,126.286,124.915Z" transform="translate(-108.556 -100.365)" fill="#f4d6e0"/>
          </g>
        </g>
      </g>
      <g id="pencil" transform="translate(712.02 2706.999)">
        <g id="Group_159" data-name="Group 159" transform="translate(0 0.001)">
          <g id="Group_158" data-name="Group 158" transform="translate(0 0)">
            <path id="Path_328" data-name="Path 328" d="M4.1,143.1l-.765.172,5.526-18.79,10.671,10.67a1.366,1.366,0,0,0,1.932-1.932L10.13,121.889,51.922,80.1,63.253,91.428A1.366,1.366,0,0,0,65.185,89.5l-12.3-12.3a1.365,1.365,0,0,0-1.932,0L7.232,120.923c-.016.015-.02.036-.034.052a1.535,1.535,0,0,0-.157.234,1.439,1.439,0,0,0-.123.236c-.007.022-.023.037-.03.059L.056,144.732a1.365,1.365,0,0,0,1.31,1.752,1.4,1.4,0,0,0,.3-.033l3.031-.683a1.367,1.367,0,0,0-.6-2.667Z" transform="translate(0 -64.501)" fill="#f4d6e0"/>
            <path id="Path_329" data-name="Path 329" d="M147.425,136.932a1.365,1.365,0,0,0-1.932,0l-34.159,34.159a1.366,1.366,0,1,0,1.932,1.932l34.159-34.159A1.365,1.365,0,0,0,147.425,136.932Z" transform="translate(-93.17 -114.67)" fill="#f4d6e0"/>
            <path id="Path_330" data-name="Path 330" d="M146.432,207.558a1.362,1.362,0,0,0,.966-.4L181.557,173a1.366,1.366,0,1,0-1.932-1.932l-34.159,34.159a1.366,1.366,0,0,0,.966,2.332Z" transform="translate(-121.837 -143.339)" fill="#f4d6e0"/>
            <path id="Path_331" data-name="Path 331" d="M372.913,0c-3.313,0-5.968,1.3-9.164,4.5l-.683.683A1.366,1.366,0,0,0,365,7.116l.683-.683c2.662-2.662,4.691-3.7,7.232-3.7a10.944,10.944,0,0,1,10.931,10.931c0,2.543-1.037,4.57-3.7,7.232l-.683.683a1.366,1.366,0,1,0,1.932,1.932l.683-.683c3.2-3.2,4.5-5.851,4.5-9.164A13.679,13.679,0,0,0,372.913,0Z" transform="translate(-304.595 -0.001)" fill="#f4d6e0"/>
            <path id="Path_332" data-name="Path 332" d="M85.654,51.6a1.366,1.366,0,1,0-1.932,1.932l15.43,15.43L52.537,115.578l-14.561,4.483-1.51-1.51a1.366,1.366,0,1,0-1.932,1.932l2.092,2.092a1.368,1.368,0,0,0,1.368.34l15.671-4.825a1.368,1.368,0,0,0,.564-.34l47.823-47.823a1.365,1.365,0,0,0,0-1.932Z" transform="translate(-28.667 -43)" fill="#f4d6e0"/>
          </g>
        </g>
      </g>
      <g id="strategy" transform="translate(298.634 2498.95) rotate(-17)">
        <g id="Group_161" data-name="Group 161" transform="translate(85.335)">
          <g id="Group_160" data-name="Group 160" transform="translate(0)">
            <path id="Path_333" data-name="Path 333" d="M260.091,136.533h-2.725a1.362,1.362,0,0,0,0,2.725h2.725a1.362,1.362,0,1,0,0-2.725Z" transform="translate(-228.752 -114.733)" fill="#f4d6e0"/>
            <path id="Path_334" data-name="Path 334" d="M119.058,36.788h1.7c1.655,0,3.5.823,5.462,1.692,2.085.927,4.455,1.981,6.875,1.981a7.65,7.65,0,0,0,5.6-2.454c2.323-2.324.553-4.876-.617-6.566-.484-.7-1.292-1.863-1.113-2.22,1.255-2.512-3.387-7.163-13.8-13.823a13.916,13.916,0,0,0-10.58-7.133v-6.9A1.362,1.362,0,0,0,111.223,0c-6.795,0-9.087,5.06-9.475,8.476C98.4,9.49,88.06,13.614,88.06,25.888c0,9.882,1.967,14.057,3.549,17.413a14.754,14.754,0,0,1,1.9,7.112,23.2,23.2,0,0,1-1.636,7.732,14.86,14.86,0,0,0-1.089,4.53,9.583,9.583,0,0,0,2.113,5.45h-.751a7.177,7.177,0,0,0-6.813,6.813v5.45A1.362,1.362,0,0,0,86.7,81.751h46.326a1.362,1.362,0,0,0,1.362-1.362v-5.45a7.177,7.177,0,0,0-6.813-6.813H127.4a6.621,6.621,0,0,0,1.534-4.088c0-11.438-4.855-16.544-9.138-21.047-3.161-3.323-6.148-6.462-7.239-11.921a1.362,1.362,0,1,0-2.67.534c1.245,6.231,4.646,9.806,7.935,13.264,4.314,4.536,8.388,8.82,8.388,19.169a4.491,4.491,0,0,1-4.088,4.088H103.048a1.362,1.362,0,1,0,0,2.725h24.525a4.491,4.491,0,0,1,4.088,4.088v4.088H88.06V74.938a4.491,4.491,0,0,1,4.088-4.088H97.6a1.362,1.362,0,1,0,0-2.725c-1.856,0-4.088-3.348-4.088-5.45a13.432,13.432,0,0,1,.942-3.645,25.809,25.809,0,0,0,1.784-8.618,17.405,17.405,0,0,0-2.161-8.275c-1.542-3.271-3.289-6.977-3.289-16.251,0-12.316,12.02-14.91,12.533-15.015a1.365,1.365,0,0,0,1.093-1.335c0-.258.067-5.9,5.45-6.714v9.44a1.362,1.362,0,0,0,2.725,0V11.013a11.069,11.069,0,0,1,8.318,5.946,1.385,1.385,0,0,0,.488.541c6.769,4.307,12.666,9.126,13.067,10.658-.759,1.748.425,3.457,1.383,4.837,1.338,1.928,1.511,2.5.931,3.085-2.651,2.653-5.336,1.736-9.442-.089-2.131-.948-4.334-1.928-6.569-1.928h-1.7a1.363,1.363,0,0,0,0,2.725Z" transform="translate(-85.335)" fill="#f4d6e0"/>
          </g>
        </g>
      </g>
      <g id="mortarboard" transform="matrix(0.891, -0.454, 0.454, 0.891, 973.429, 1687.199)">
        <g id="Group_163" data-name="Group 163" transform="translate(0 17.068)">
          <g id="Group_162" data-name="Group 162">
            <path id="Path_335" data-name="Path 335" d="M344.613,443.77a1.46,1.46,0,0,0-1.774,1.064l-1.464,5.856a1.463,1.463,0,0,0,1.066,1.776,1.419,1.419,0,0,0,.356.044,1.464,1.464,0,0,0,1.419-1.108l1.464-5.856A1.465,1.465,0,0,0,344.613,443.77Z" transform="translate(-282.772 -370.528)" fill="#e5e5e5"/>
            <path id="Path_336" data-name="Path 336" d="M43.919,167.026a1.451,1.451,0,0,0,.559-.111l16.1-6.664a1.464,1.464,0,0,0-1.121-2.705l-15.542,6.433L2.928,147.016v-.486a1.464,1.464,0,0,0-2.928,0v1.464a1.462,1.462,0,0,0,.9,1.353L43.36,166.914A1.449,1.449,0,0,0,43.919,167.026Z" transform="translate(0 -123.107)" fill="#e5e5e5"/>
            <path id="Path_337" data-name="Path 337" d="M132.029,252.718a1.462,1.462,0,0,0-1.96-.665,34.121,34.121,0,0,1-13.991,3.191V242.112a1.464,1.464,0,0,0-2.928,0v13.12c-18.178-.58-24.044-11.592-24.888-13.425v-9.943a1.464,1.464,0,1,0-2.928,0v10.248a1.481,1.481,0,0,0,.1.545c.255.634,6.485,15.559,29.175,15.559a37.624,37.624,0,0,0,16.752-3.537A1.46,1.46,0,0,0,132.029,252.718Z" transform="translate(-70.695 -193.801)" fill="#e5e5e5"/>
            <path id="Path_338" data-name="Path 338" d="M376.931,452.266a1.463,1.463,0,0,0-1.464,1.464v4.392a1.464,1.464,0,0,0,2.928,0V453.73A1.464,1.464,0,0,0,376.931,452.266Z" transform="translate(-311.052 -377.604)" fill="#e5e5e5"/>
            <path id="Path_339" data-name="Path 339" d="M86.374,39.027a1.463,1.463,0,0,0-1.464,1.464v.483L67.343,48.2V45.559l19.591-8.108a1.464,1.464,0,0,0,0-2.705L44.478,17.178a1.465,1.465,0,0,0-1.118,0L.9,34.746a1.464,1.464,0,0,0,0,2.705L43.36,55.019a1.46,1.46,0,0,0,1.119,0L59.83,48.667a1.463,1.463,0,1,0-1.119-2.7L43.919,52.082,5.292,36.1,43.919,20.115,82.546,36.1,65.738,43.054l-16.1-6.011a3.5,3.5,0,0,0,.136-.944c0-2.462-2.572-4.392-5.856-4.392s-5.856,1.93-5.856,4.392,2.572,4.392,5.856,4.392a7.076,7.076,0,0,0,3.789-1.044l16.707,6.238V81.751a4.392,4.392,0,1,0,2.928,0V73.442a17.786,17.786,0,0,0,5.775-7.585,1.481,1.481,0,0,0,.08-.479V55.131a1.464,1.464,0,1,0-2.928,0v9.977a14.976,14.976,0,0,1-2.928,4.423V51.371l19.589-8.062a1.463,1.463,0,0,0,.906-1.354V40.491A1.464,1.464,0,0,0,86.374,39.027ZM43.919,37.563c-1.787,0-2.928-.867-2.928-1.464s1.14-1.464,2.928-1.464,2.928.867,2.928,1.464S45.706,37.563,43.919,37.563Zm21.96,49.775a1.464,1.464,0,1,1,1.464-1.464A1.465,1.465,0,0,1,65.879,87.338Z" transform="translate(0 -17.068)" fill="#e5e5e5"/>
            <path id="Path_340" data-name="Path 340" d="M403.95,444.837a1.464,1.464,0,0,0-2.84.711l1.464,5.856a1.464,1.464,0,0,0,1.419,1.108,1.421,1.421,0,0,0,.356-.044,1.464,1.464,0,0,0,1.066-1.776Z" transform="translate(-332.26 -370.531)" fill="#e5e5e5"/>
          </g>
        </g>
      </g>
      <g id="earth-globe" transform="matrix(0.985, 0.174, -0.174, 0.985, 1363.23, 1727.374)">
        <g id="Group_165" data-name="Group 165" transform="translate(17.067 0)">
          <g id="Group_164" data-name="Group 164" transform="translate(0 0)">
            <path id="Path_341" data-name="Path 341" d="M60.7,28.417a1.421,1.421,0,0,0,1.764-.97A34.222,34.222,0,0,1,102.438,3.6a7.435,7.435,0,0,0,1.4,4.357c.158.251.373.592.4.639,0,5.106-1.044,5.937-1.032,5.94a10.136,10.136,0,0,0-7.519,4.72,4.549,4.549,0,0,0,.2,4.859,34.415,34.415,0,0,1,1.85,3.282c1.21,2.344,2.553,4.943,4.661,4.943a3.231,3.231,0,0,0,1.448-.377c1.66-.83,2.85-3.191,4-5.472a18.137,18.137,0,0,1,1.693-2.949c1.445.2,2.151,1.5,3.107,3.574.7,1.523,1.431,3.1,2.86,3.811,2.406,1.2,10.318-.057,14.691-1.914a1.424,1.424,0,0,0,.817-1.682A37.234,37.234,0,0,0,109.3,2.749a1.423,1.423,0,1,0-1.079,2.634,34.4,34.4,0,0,1,19.69,21.465c-4.431,1.562-10.117,2.032-11.13,1.532-.535-.268-1.073-1.431-1.548-2.458-.992-2.15-2.352-5.094-5.823-5.248-1.794-.108-2.8,1.956-4.1,4.535-.763,1.512-1.915,3.8-2.833,4.249-.528-.124-1.578-2.156-2.2-3.369a36.841,36.841,0,0,0-2.01-3.554A1.709,1.709,0,0,1,98.2,20.6a7.6,7.6,0,0,1,5.009-3.216c2.574,0,3.88-2.956,3.88-8.788a4.086,4.086,0,0,0-.836-2.157,4.34,4.34,0,0,1-.857-3.633,1.424,1.424,0,0,0-1.042-1.684A37.072,37.072,0,0,0,59.728,26.653,1.423,1.423,0,0,0,60.7,28.417Z" transform="translate(-52.563 0)" fill="#e5e5e5"/>
            <path id="Path_342" data-name="Path 342" d="M314.737,222.308c-.411.117-.974.279-1.123.29-1.968,0-3.215,1.524-4.125,2.635-.347.424-.975,1.186-1.375,1.2a4.46,4.46,0,0,0-2.01-.484,3.431,3.431,0,0,0-3.457,2.376,2.76,2.76,0,0,0,1.738,3.11c2.312,1.156,4.7,2.351,5.766,3.414A4.938,4.938,0,0,0,313.625,236a6.394,6.394,0,0,0,6.248-4.162,7.985,7.985,0,0,1,2.307-3.03c1.085-1.041,2.111-2.022,2.126-3.43a3.276,3.276,0,0,0-1.094-2.362,5.5,5.5,0,0,0-4.052-1.508A16.431,16.431,0,0,0,314.737,222.308Zm6.72,3.031a6.11,6.11,0,0,1-1.247,1.411,10.46,10.46,0,0,0-3.038,4.187c-.7,2.107-3.078,2.214-3.547,2.214a2.708,2.708,0,0,1-1.459-.316c-1.392-1.393-3.877-2.635-6.508-3.949l-.016-.007a1.588,1.588,0,0,1,1.2.1,3.116,3.116,0,0,0,1.4.347c1.576,0,2.571-1.216,3.448-2.288.642-.782,1.3-1.592,1.922-1.592a7.586,7.586,0,0,0,1.905-.4,13.972,13.972,0,0,1,3.641-.691,2.746,2.746,0,0,1,2.037.673A2.418,2.418,0,0,1,321.457,225.339Z" transform="translate(-254.944 -184.55)" fill="#e5e5e5"/>
            <path id="Path_343" data-name="Path 343" d="M124.883,166.74a1.424,1.424,0,1,0-2.82.39,34.676,34.676,0,0,1,.326,4.733,34.209,34.209,0,0,1-33.761,34.168c-5.063-3.233-9.808-7.194-7.694-12.126,3.8-8.86.263-12.162-1.246-13.574l-.283-.269a6.736,6.736,0,0,0-1.347-.981c-1.042-.625-1.323-.793-.763-2.472a5.346,5.346,0,0,1,1.431-2.237c1.317-1.393,2.324-2.778,2.324-6.8a5.366,5.366,0,0,0-3.262-5.128,7.1,7.1,0,0,0-7.15.834,3.22,3.22,0,0,0-.955,3.517c1.015,3.04-1.3,7.434-5.638,10.684-1.148.86-1.489.465-1.694.231-1.271-1.465-1.173-5.632-.13-6.675a2.109,2.109,0,0,0,.555-2.388c-1.153-2.616-8.51-2.413-9.969-2.345a1.426,1.426,0,0,0-1.348,1.249,33.657,33.657,0,0,0-.258,4.317A36.933,36.933,0,0,0,79.31,207.8a1.423,1.423,0,0,0,.682-2.764,34.093,34.093,0,0,1-25.944-33.174c0-.988.034-1.861.11-2.751a21.229,21.229,0,0,1,5.5.6c-1.633,2.55-1.454,7.563.542,9.864,1.431,1.649,3.507,1.717,5.554.181,5.47-4.1,8.073-9.545,6.631-13.862-.046-.141-.091-.273.171-.511a4.316,4.316,0,0,1,4.082-.336,2.506,2.506,0,0,1,1.566,2.524c0,3.213-.648,3.9-1.545,4.848a8.112,8.112,0,0,0-2.064,3.293c-1.28,3.846.773,5.079,2,5.815a4.4,4.4,0,0,1,.8.551c.1.1.222.215.352.336,1.253,1.17,3.582,3.35.574,10.371-3.411,7.96,5.385,13.51,9.141,15.881a1.436,1.436,0,0,0,.76.219,37.061,37.061,0,0,0,37.018-37.018A37.473,37.473,0,0,0,124.883,166.74Z" transform="translate(-45.505 -134.844)" fill="#e5e5e5"/>
            <path id="Path_344" data-name="Path 344" d="M83.573,246.749a39.869,39.869,0,0,1-63.659-31.991,1.424,1.424,0,1,0-2.847,0,42.757,42.757,0,0,0,41.29,42.678v4.307a1.424,1.424,0,1,0,2.847,0v-4.328a42.293,42.293,0,0,0,24.07-8.382,1.424,1.424,0,0,0-1.7-2.284Z" transform="translate(-17.067 -177.739)" fill="#e5e5e5"/>
            <path id="Path_345" data-name="Path 345" d="M254.791,345.745c-1.777,0-3.861,2.045-4.622,3.88a3.227,3.227,0,0,0,.486,3.673,5.147,5.147,0,0,0,6.924,0,3.645,3.645,0,0,0,.649-3.911,8.118,8.118,0,0,0-1.878-3.013A2.19,2.19,0,0,0,254.791,345.745Zm.775,5.539a2.492,2.492,0,0,1-2.89.016,1.73,1.73,0,0,1,.359-1.041,4.733,4.733,0,0,1,1.561-1.586,5.233,5.233,0,0,1,.933,1.615C255.685,350.758,255.7,351.151,255.566,351.284Z" transform="translate(-210.989 -288.058)" fill="#e5e5e5"/>
          </g>
        </g>
      </g>
      <g id="Group_166" data-name="Group 166" transform="translate(1233.909 7789.309) rotate(-22)">
        <g id="Group_53" data-name="Group 53" transform="translate(0.106 -59.223)" clip-path="url(#clip-path-2)">
          <g id="Group_52" data-name="Group 52" transform="translate(-70.807 -493.703)" clip-path="url(#clip-path-3)">
            <path id="Path_96" data-name="Path 96" d="M-4.894-64.223H207.725v49.71H-4.894Z" transform="translate(65.616 547.841)" fill="#fffefe"/>
          </g>
        </g>
        <g id="Group_55" data-name="Group 55" transform="translate(27.994 -58.686)" clip-path="url(#clip-path-4)">
          <g id="Group_54" data-name="Group 54" transform="translate(-98.695 -494.239)" clip-path="url(#clip-path-5)">
            <path id="Path_99" data-name="Path 99" d="M8.933-63.957h184.73V25.618H8.933Z" transform="translate(79.678 548.111)" fill="#e6e6e6"/>
          </g>
        </g>
        <g id="Group_57" data-name="Group 57" transform="translate(27.994 -9.404)" clip-path="url(#clip-path-6)">
          <g id="Group_56" data-name="Group 56" transform="translate(-98.695 -543.521)" clip-path="url(#clip-path-7)">
            <path id="Path_102" data-name="Path 102" d="M8.933-39.523H67.915V.77H8.933Z" transform="translate(79.678 572.959)" fill="#d3d3d3"/>
          </g>
        </g>
        <g id="Group_59" data-name="Group 59" transform="translate(58.589 -58.686)" clip-path="url(#clip-path-8)">
          <g id="Group_58" data-name="Group 58" transform="translate(-129.29 -494.239)" clip-path="url(#clip-path-3)">
            <path id="Path_105" data-name="Path 105" d="M24.1-63.957H178.237V74.121H24.1Z" transform="translate(95.104 548.111)" fill="#fffefe"/>
          </g>
        </g>
      </g>
      <g id="school-material" transform="matrix(0.883, -0.469, 0.469, 0.883, 1309.577, 2148.071)">
        <g id="Group_171" data-name="Group 171" transform="translate(0.004)">
          <g id="Group_170" data-name="Group 170" transform="translate(0)">
            <path id="Path_348" data-name="Path 348" d="M162.443,0H143.348a6.827,6.827,0,0,0-6.82,6.819v49.1a1.363,1.363,0,0,0,1.364,1.364h8.183a1.364,1.364,0,1,0,0-2.728h-6.82V51.828h1.364a1.364,1.364,0,0,0,0-2.728h-1.364V46.372h1.364a1.364,1.364,0,0,0,0-2.728h-1.364V40.917h1.364a1.364,1.364,0,0,0,0-2.728h-1.364V35.461h6.82a1.364,1.364,0,1,0,0-2.728h-6.82V30.006h1.364a1.364,1.364,0,0,0,0-2.728h-1.364V24.55h1.364a1.364,1.364,0,0,0,0-2.728h-1.364V19.094h1.364a1.364,1.364,0,0,0,0-2.728h-1.364V13.639h6.82a1.364,1.364,0,1,0,0-2.728h-6.82V6.819a4.1,4.1,0,0,1,4.092-4.092h19.094a4.1,4.1,0,0,1,4.092,4.092V75.014a4.1,4.1,0,0,1-4.092,4.092H143.348a4.1,4.1,0,0,1-4.092-4.092V61.375a1.364,1.364,0,0,0-2.728,0V75.014a6.827,6.827,0,0,0,6.82,6.819h19.094a6.827,6.827,0,0,0,6.82-6.819V6.819A6.828,6.828,0,0,0,162.443,0Z" transform="translate(-114.708)" fill="#e5e5e5"/>
            <path id="Path_349" data-name="Path 349" d="M34.138,103.756v49.1a1.364,1.364,0,0,0,2.728,0v-49.1a1.364,1.364,0,1,0-2.728,0Z" transform="translate(-28.682 -86.027)" fill="#e5e5e5"/>
            <path id="Path_350" data-name="Path 350" d="M8.043,1.064a1.42,1.42,0,0,0-2.44,0L.147,11.975a1.367,1.367,0,0,0-.143.61V75.324a6.819,6.819,0,1,0,13.639,0V72.6a1.363,1.363,0,0,0-1.364-1.364H6.823a1.364,1.364,0,1,0,0,2.728h4.092v1.364a4.092,4.092,0,1,1-8.183,0V12.907L6.823,4.723l3.249,6.5H6.823a1.364,1.364,0,1,0,0,2.728h4.092V67.14a1.364,1.364,0,0,0,2.728,0V12.563a1.375,1.375,0,0,0-.156-.612Z" transform="translate(-0.004 -0.311)" fill="#e5e5e5"/>
            <path id="Path_351" data-name="Path 351" d="M215.707,397.989a5.455,5.455,0,1,0-5.456,5.455A5.461,5.461,0,0,0,215.707,397.989Zm-8.183,0a2.728,2.728,0,1,1,2.728,2.728A2.731,2.731,0,0,1,207.524,397.989Z" transform="translate(-172.064 -329.795)" fill="#e5e5e5"/>
            <path id="Path_352" data-name="Path 352" d="M399.349,337.9a1.364,1.364,0,0,0,0,2.728H410.26a1.363,1.363,0,0,0,1.364-1.364v-8.183a6.827,6.827,0,0,0-6.819-6.82h-5.456a6.827,6.827,0,0,0-6.82,6.82v16.367a6.827,6.827,0,0,0,6.82,6.819H404.8a6.827,6.827,0,0,0,6.819-6.819v-2.728a1.364,1.364,0,0,0-2.728,0v2.728a4.1,4.1,0,0,1-4.092,4.092h-5.456a4.1,4.1,0,0,1-4.092-4.092V331.085a4.1,4.1,0,0,1,4.092-4.092H404.8a4.1,4.1,0,0,1,4.092,4.092V337.9Z" transform="translate(-329.791 -272.438)" fill="#e5e5e5"/>
          </g>
        </g>
      </g>
    </g>
  </g>
</svg>
