<svg xmlns="http://www.w3.org/2000/svg" xmlns:xlink="http://www.w3.org/1999/xlink" width="16" height="16" viewBox="0 0 16 16">
  <defs>
    <linearGradient id="linear-gradient" x1="0.891" y1="0.069" x2="0.085" y2="0.908" gradientUnits="objectBoundingBox">
      <stop offset="0" stop-color="#742bc0"/>
      <stop offset="0.412" stop-color="#c63790"/>
      <stop offset="0.714" stop-color="#fc7246"/>
      <stop offset="1" stop-color="#feb92d"/>
    </linearGradient>
  </defs>
  <g id="instagram" transform="translate(-11.2 -11.2)">
    <g id="Group_79" data-name="Group 79" transform="translate(11.2 11.2)">
      <path id="Path_170" data-name="Path 170" d="M19.2,11.2c-2.173,0-2.445.009-3.3.048a5.87,5.87,0,0,0-1.942.372,4.092,4.092,0,0,0-2.341,2.339,5.844,5.844,0,0,0-.372,1.942c-.038.853-.048,1.126-.048,3.3s.01,2.444.048,3.3a5.879,5.879,0,0,0,.372,1.942,4.094,4.094,0,0,0,2.339,2.34,5.876,5.876,0,0,0,1.942.372c.853.039,1.126.048,3.3.048s2.445-.01,3.3-.048a5.88,5.88,0,0,0,1.943-.372,4.1,4.1,0,0,0,2.339-2.34,5.929,5.929,0,0,0,.372-1.942c.038-.853.048-1.125.048-3.3s-.01-2.445-.048-3.3a5.926,5.926,0,0,0-.372-1.942,4.093,4.093,0,0,0-2.34-2.34,5.888,5.888,0,0,0-1.943-.372c-.853-.039-1.125-.048-3.3-.048Zm-.267,1.442H19.2c2.136,0,2.389.008,3.233.046a4.43,4.43,0,0,1,1.485.275,2.651,2.651,0,0,1,1.518,1.518,4.42,4.42,0,0,1,.276,1.485c.038.843.047,1.1.047,3.232s-.008,2.388-.047,3.232a4.425,4.425,0,0,1-.276,1.485,2.653,2.653,0,0,1-1.518,1.517,4.413,4.413,0,0,1-1.485.276c-.843.038-1.1.047-3.233.047s-2.389-.008-3.233-.047a4.438,4.438,0,0,1-1.485-.276,2.65,2.65,0,0,1-1.519-1.518,4.42,4.42,0,0,1-.275-1.485c-.038-.843-.046-1.1-.046-3.233s.008-2.388.046-3.232a4.428,4.428,0,0,1,.275-1.485,2.651,2.651,0,0,1,1.519-1.519,4.42,4.42,0,0,1,1.485-.276c.738-.033,1.024-.043,2.515-.045v0Zm3.577,2.288a.96.96,0,0,1,.96-.96h0a.96.96,0,1,1-.96.96Zm-3.311.162A4.108,4.108,0,1,0,23.308,19.2,4.109,4.109,0,0,0,19.2,15.092ZM21.867,19.2A2.667,2.667,0,1,0,19.2,21.867,2.667,2.667,0,0,0,21.867,19.2Z" transform="translate(-11.2 -11.2)" fill-rule="evenodd" fill="url(#linear-gradient)"/>
    </g>
  </g>
</svg>
