<svg id="Icons-_-Communication-_-Chat_5" data-name="Icons-/-Communication-/-Chat#5" xmlns="http://www.w3.org/2000/svg" width="24" height="24" viewBox="0 0 24 24">
  <rect id="bound" width="24" height="24" fill="none"/>
  <path id="Combined-Shape" d="M3.025,15.01,3,15v4.586a1,1,0,0,0,1.707.707L7,18H19.025a3,3,0,0,0,3-3V6a3,3,0,0,0-3-3h-13a3,3,0,0,0-3,3v9S3.025,15.007,3.025,15.01Z" transform="translate(-1.025)" fill="#3d78c0" fill-rule="evenodd"/>
  <path id="Combined-Shape-2" data-name="Combined-Shape" d="M17.5,12A1.5,1.5,0,1,0,16,10.5,1.5,1.5,0,0,0,17.5,12Zm-5,0A1.5,1.5,0,1,0,11,10.5,1.5,1.5,0,0,0,12.5,12Zm-5,0A1.5,1.5,0,1,0,6,10.5,1.5,1.5,0,0,0,7.5,12Z" transform="translate(-1)" fill="#fff" fill-rule="evenodd"/>
</svg>
