<svg xmlns="http://www.w3.org/2000/svg" width="88.818" height="41.911" viewBox="0 0 88.818 41.911">
  <path id="Розарт" d="M-96.04,24.754Q-96.6,21.8-94.272,13.4q.542-1.958,1.76-5.845c.153-.488.317-1.006.486-1.539-.14.144-.285.285-.439.421a5.238,5.238,0,0,1-2.261,1.344c-.995.188-1.538.019-1.638-.507a18.951,18.951,0,0,1,.088-3.109q-.943,1.094-2.277,2.395L-98.7,6.7a7.41,7.41,0,0,1-2.729,1.918,1.354,1.354,0,0,1-1.181-.4,2.049,2.049,0,0,1-.7-1.129q-.335-1.767,2.427-6.083a22.844,22.844,0,0,1,2.329-3.14,4.408,4.408,0,0,1,2.152-1.5q1.445-.273,2.61,2.549c.626-.086.978.07,1.055.476a10.153,10.153,0,0,1-.81,2.734,7.987,7.987,0,0,0-.756,3.02c.024.127.114.169.266.14q2.053-.388,3.3-3.518a.113.113,0,0,1,.078-.064h0l.158-.756q.361-4.955,4.377-5.711l.064-.012a5.228,5.228,0,0,1,2.776.249A2.639,2.639,0,0,1-81.4-2.563q.344,1.814-4.552,5.793l-.1.075-2.433,1.9q-.192,4.341-.936,9.6-1.06,7.152-2.305,8.864a5.99,5.99,0,0,1-.784.884,4.669,4.669,0,0,1-2.329,1.181,1.369,1.369,0,0,1-.253.025C-95.6,25.756-95.915,25.42-96.04,24.754ZM-90.791,4.3c-.584,1.93-1.157,4.024-1.721,6.3q-.359,1.448-.71,2.992-1.856,8.032-1.428,10.32c.065.343.176.5.328.466.278-.053.711-.859,1.281-2.419q.314-.859.529-1.538a13.2,13.2,0,0,0,.37-1.386A97.319,97.319,0,0,0-90.293,3.324l-.049-.153A6.731,6.731,0,0,1-90.791,4.3ZM-95.954-1.54a5.633,5.633,0,0,0-2.6,1.713q-.508.5-1.065,1.157c-1.48,1.723-2.125,3.057-1.949,3.989.071.374.336.513.806.425a4.271,4.271,0,0,0,2.208-1.277,13.606,13.606,0,0,0,2.6-4.218,3.568,3.568,0,0,0,.435-1.533.294.294,0,0,0-.314-.268A.643.643,0,0,0-95.954-1.54Zm11.321-1.525a3.846,3.846,0,0,0-1.42.6,6.37,6.37,0,0,0-1.327,1.225,3.558,3.558,0,0,0-1.049,2.911,2.776,2.776,0,0,0,.509,1.157A9.137,9.137,0,0,0-86.053,1.6,10.677,10.677,0,0,0-85.006.584C-83.94-.583-83.5-1.639-83.673-2.57a.6.6,0,0,0-.659-.526A1.625,1.625,0,0,0-84.633-3.065ZM-131.689,24.4c-.032-.166.3-2.248.844-5.373-5.4,1.321-8.7,2.176-8.5,2.132-1.243.262-1.891.2-1.945-.186-.01-.072.069-.154.236-.217a26.268,26.268,0,0,1,3.344-.977c2.16-.5,3.288-.77,3.365-.824,1.315-.317,2.529-.609,3.665-.885.441-2.494,1-5.529,1.609-8.736-.175.073-.346.146-.524.218l-1.979.79a13.551,13.551,0,0,1-3.845,1.3c-.242-.018-.362-.1-.352-.229q.036-.487,2.036-1.558c.818-.426,1.65-.858,2.5-1.28l2.549-1.261c.5-2.6,1.034-5.265,1.561-7.8-.648.3-1.309.621-2,.988q-6.406,3.349-8.09,6.815c-.377.758-.717,1.129-1.015,1.106s-.436-.214-.41-.566a4.76,4.76,0,0,1,1.159-1.826,23.717,23.717,0,0,1,8.031-6.569c.882-.418,1.734-.776,2.569-1.1.029-.135.057-.271.085-.4l.182-.922q.518-2.669,1.031-2.766A3.266,3.266,0,0,1-124-5.567a1.152,1.152,0,0,1,.8.8.746.746,0,0,1-.158.568,11.048,11.048,0,0,0-.911,1.678,17.838,17.838,0,0,1,6.162-.762c.234.017.461.045.685.081a18.681,18.681,0,0,1,4.339-1.963,46.46,46.46,0,0,1,6.179-1.825,1.243,1.243,0,0,1,.834.2,1,1,0,0,1,.532.638.612.612,0,0,1-.1.347,15.618,15.618,0,0,1-2.431,3.372A12.44,12.44,0,0,0-110.6,2.215,21.108,21.108,0,0,1-106.272.732c1.762-.334,2.752.05,2.959,1.143q.528,2.79-5.16,10.575c1.937-.506,4.11-1.073,6.636-1.73.169-.036.616-.168,1.323-.391a10.99,10.99,0,0,1,1.332-.384c.984-.208,1.524.06,1.628.8.059.425-.382.752-1.33.99l-1.909.4c-3.011.636-5.993,1.287-8.89,1.932-2.672,3.513-5.5,6.861-5.619,6.884-.217.041-.347-.1-.407-.419a.765.765,0,0,1,.019-.444c.306-.31.773-.759,1.326-1.4.756-.879,2.084-2.556,3.373-4.326-6.895,1.546-13.232,3.048-18.158,4.246a33.312,33.312,0,0,1-1.586,5.651c-.123.291-.271.454-.439.486a.7.7,0,0,1-.13.013C-131.518,24.76-131.643,24.637-131.689,24.4ZM-110.6-4.2a15.215,15.215,0,0,0-4.671,1.744,2.027,2.027,0,0,1,1.194,1.883q-.176,2.344-6.641,5.936-2.9,1.614-6.517,3.192c-.6,3.105-1.141,6.292-1.71,9.1,7.775-1.892,11.716-2.912,19.052-4.826.679-.987,1.292-1.941,1.727-2.735,1.714-3.129,2.44-5.357,2.192-6.668-.133-.7-.48-1-1.049-.9A7.388,7.388,0,0,0-109.837,4.2,11.313,11.313,0,0,1-111.9,5.643a4.36,4.36,0,0,1-.075.916,8.342,8.342,0,0,1-1.536,4.344,5.98,5.98,0,0,1-2.8,2.176,6.131,6.131,0,0,1-.994.273,4.208,4.208,0,0,1-2.629-.292,2.52,2.52,0,0,1-1.468-1.928q-.433-2.286,2.16-4.982a11.991,11.991,0,0,1,2.931-2.289,6.624,6.624,0,0,1,1.861-.672,2.176,2.176,0,0,1,1.317.112,4.876,4.876,0,0,1,1.165-1.052c.669-1.512,1.639-3.708,2.93-6.583q-.118-.005-.24-.005A7.155,7.155,0,0,0-110.6-4.2Zm-5.007,9.3a2.97,2.97,0,0,0-.7.227,5.65,5.65,0,0,0-1.984,1.805,4.053,4.053,0,0,0-1.1,2.944,1.558,1.558,0,0,0,1.22,1.186,3.933,3.933,0,0,0,1.809.08l.058-.012a3.771,3.771,0,0,0,2.323-1.434c1.008-1.293,1.358-4.944-.8-4.944A2.672,2.672,0,0,0-115.612,5.1Zm-9.084-6.6a53.592,53.592,0,0,0-2.1,7.829A30.787,30.787,0,0,0-118.808.495a4.146,4.146,0,0,0,1.248-1.986q.066-.892-1.593-1.017-.3-.022-.607-.022A14.806,14.806,0,0,0-124.7-1.506ZM-83.037,10.66q-.141-.74,3.759-19.173C-88.057-6.588-98.956-4.4-98.43-4.5c-1.338.253-2.038.212-2.1-.13-.012-.064.072-.137.252-.2a33.528,33.528,0,0,1,3.594-.919c2.325-.481,3.538-.736,3.619-.785L-79.08-9.516c.376-1.935.747-2.936,1.122-3.007a2.448,2.448,0,0,1,1.413.194,1.245,1.245,0,0,1,.865.867.816.816,0,0,1-.171.618,2.223,2.223,0,0,0-.288.532Q-70.1-11.6-58.1-14.352c.183-.035.663-.158,1.423-.368a13.791,13.791,0,0,1,1.432-.361c1.059-.2,1.645.026,1.77.679.07.374-.4.67-1.422.9l-2.054.389q-8.394,1.59-19.546,3.938A34.035,34.035,0,0,0-79.91.651q-.434,2.544-.915,5.1A26.812,26.812,0,0,1-82,10.513c-.138.314-.295.492-.478.527a.765.765,0,0,1-.141.014C-82.851,11.054-82.987,10.921-83.037,10.66Zm4.327-3.488c-.634-.048-.933-.359-.89-.927a1.735,1.735,0,0,1,.744-1.193,1.926,1.926,0,0,1,1.335-.5c.379.029.547.33.5.9a2.082,2.082,0,0,1-.523,1.241,1.344,1.344,0,0,1-1.047.49Q-78.647,7.176-78.709,7.171Z" transform="translate(141.789 15.655)" fill="#3d78c0" stroke="rgba(0,0,0,0)" stroke-width="1"/>
</svg>
