<?xml version="1.0" encoding="utf-8"?>
<!-- Generator: Adobe Illustrator 23.0.3, SVG Export Plug-In . SVG Version: 6.00 Build 0)  -->
<svg version="1.1" id="Capa_1" xmlns="http://www.w3.org/2000/svg" xmlns:xlink="http://www.w3.org/1999/xlink" x="0px" y="0px"
	 viewBox="0 0 512 512" style="enable-background:new 0 0 512 512;" xml:space="preserve">
<style type="text/css">
	.st0{fill:#FFFFFF;}
</style>
<g>
	<g>
		<path class="st0" d="M184.9,155.2c21.9-3.1,45.1-4.6,68.9-4.6c25,0,49.1,1.7,71.6,5l1.1,0.2l11.4-11.4l-4.2-0.7
			c-25.2-4.1-52.1-6.2-80-6.2c-26.7,0-52.7,2-77.2,5.8l-4.3,0.7l11.5,11.5L184.9,155.2z"/>
	</g>
	<g>
		<path class="st0" d="M364.9,149.9l-1.2-0.3l-10.9,10.9l3.8,0.9c46.7,11,76.9,29.5,76.9,47.1c0,10.9-12.1,22.6-33.2,32.5v-2.4
			h-13.2v7.8c-17.9,6.7-40.1,11.9-64.4,15.3v-2.2h-13.1v3.9c-17.9,1.9-36.6,2.9-55.7,2.9c-6.3,0-13-0.1-20.3-0.4v-6.4h-13.2v5.7
			c-28.3-1.8-54.1-5.7-76.8-11.7V246h-13.2v3.9c-34.7-11.1-56.2-26.8-56.2-41.4c0-17.9,31.2-36.7,79.4-47.7l3.9-0.9l-10.9-11
			l-1.2,0.3c-46.5,11.4-76.5,29.8-82.9,50.6H61v190.9c0,21.8,25.2,41.9,69.3,55.2v6.8h13.2v-3.2c22.9,5.8,48.8,9.6,76.8,11.3v7.3
			h13.2v-6.6c7.4,0.3,14,0.4,20.3,0.4c19.1,0,37.8-1,55.7-2.9v3.2h13.2v-4.9c26.3-3.6,49.4-9,68.7-16.1h8.8v-3.5
			c24-10.2,39.2-22.8,44.4-36.5h2v-191l-0.1-0.8c0.1-0.3,0.1-0.7,0.1-1C446.6,184.5,416.8,163.1,364.9,149.9z M74.2,390.9V235.1
			c11.7,11.2,31,21,56.2,28.6v168.6C95.6,421.2,74.2,405.4,74.2,390.9z M220.3,278.5v169.2c-28.3-1.8-54.1-5.7-76.8-11.7V267.3
			C166.4,273,192.3,276.8,220.3,278.5z M433.5,235.1v155.8c0,10.9-12.1,22.6-33.2,32.5v-168C414.5,249.3,425.7,242.5,433.5,235.1z
			 M387.1,260.6v168.3c-17.9,6.7-40.1,11.9-64.4,15.4V275.1C347.2,271.8,368.8,266.9,387.1,260.6z M233.5,279.2
			c7.4,0.3,14,0.4,20.3,0.4c19.1,0,37.8-1,55.7-2.9v169.1c-17.9,2-36.6,2.9-55.7,2.9c-6.3,0-13-0.1-20.3-0.4
			C233.5,448.4,233.5,279.2,233.5,279.2z"/>
	</g>
	<g>
		<path class="st0" d="M288.1,188.1c-2.9,2.9-4.5,6.8-4.5,10.9c0,4.1,1.6,7.9,4.5,10.9c2.9,2.9,6.8,4.5,10.9,4.5
			c4.1,0,8-1.6,10.8-4.5c4.2-4.2,5.5-10.4,3.6-16L454.1,53.1l-9.3-9.3L304.1,184.5C298.5,182.6,292.2,184,288.1,188.1z"/>
	</g>
	<g>
		<path class="st0" d="M202.2,210.4c2.9,2.9,6.7,4.5,10.9,4.5c4.1,0,7.9-1.6,10.8-4.5c2.9-2.9,4.5-6.8,4.5-10.9
			c0-4.1-1.6-7.9-4.5-10.9c-4.1-4.1-10.4-5.5-16-3.6L67.2,44.3l-9.3,9.3l140.7,140.7C196.6,199.9,198,206.2,202.2,210.4z"/>
	</g>
</g>
</svg>
