<?xml version="1.0" encoding="utf-8"?>
<!-- Generator: Adobe Illustrator 23.0.3, SVG Export Plug-In . SVG Version: 6.00 Build 0)  -->
<svg version="1.1" id="Capa_1" xmlns="http://www.w3.org/2000/svg" xmlns:xlink="http://www.w3.org/1999/xlink" x="0px" y="0px"
	 viewBox="0 0 512 512" style="enable-background:new 0 0 512 512;" xml:space="preserve">
<style type="text/css">
	.st0{fill:#FFFFFF;}
</style>
<g>
	<g>
		<path class="st0" d="M474.5,127c-10.9-10.9-25.3-16.8-40.7-16.8s-29.8,6-40.7,16.8L179.5,340.7L141,302.2c-2.9-2.9-7.7-2.9-10.6,0
			s-2.9,7.7,0,10.6l38.5,38.5l-31.8,31.8l-38.8-38.8c-2.9-2.9-7.7-2.9-10.6,0s-2.9,7.7,0,10.6l38.3,38.3c-15,10.1-35.6,8.5-48.9-4.8
			C62,373.4,62,348.8,77,333.7l122.4-122.1c30.3-30.3,74.8-41.9,116-30.2c3.3,0.9,6.8-0.5,8.5-3.4c1.7-2.9,1.2-6.7-1.2-9.1
			L210.2,56.4c-2.4-2.4-6.2-2.9-9.1-1.2c-2.9,1.7-4.4,5.2-3.4,8.5c11.7,41.2,0.1,85.6-30.2,116L45.2,301.9
			c-15.8,15.8-24.5,36.8-24.5,59.2s8.7,43.4,24.5,59.2c32.6,32.6,85.7,32.6,118.4,0l79.6-79.5l17.7,17.7l-53,53l-1.8-1.8
			c-2.9-2.9-7.7-2.9-10.6,0s-2.9,7.7,0,10.6l28.3,28.3c0,0,7.1,7.1,7.1,7.1c1.5,1.5,3.4,2.2,5.3,2.2s3.8-0.7,5.3-2.2
			c2.9-2.9,2.9-7.7,0-10.6l-1.8-1.8l234.9-234.9C496.9,185.9,496.9,149.5,474.5,127z M253.7,330.1l10.6-10.6l17.7,17.7l-10.6,10.6
			L253.7,330.1z M274.9,308.9l150-150c2.4-2.4,5.5-3.7,8.8-3.7c3.3,0,6.5,1.3,8.8,3.7c2.4,2.4,3.7,5.5,3.7,8.8s-1.3,6.5-3.7,8.8
			l-150,150L274.9,308.9z M229,432.6L218.4,422l58.3-58.3c0,0,21.2-21.2,21.2-21.2c0,0,155.3-155.3,155.3-155.3
			c5.2-5.2,8-12.1,8-19.4c0-7.4-2.9-14.3-8-19.4c-5.2-5.2-12.1-8-19.4-8s-14.3,2.9-19.4,8L153,409.7c-26.8,26.8-70.4,26.8-97.1,0
			c-13-13-20.1-30.2-20.1-48.6s7.1-35.6,20.1-48.6L178,190.3c28.2-28.2,42-67.3,38.5-106.3l78.5,78.5c-38.9-3.5-78,10.3-106.3,38.5
			L66.4,323.1c-10.1,10.1-15.7,23.6-15.7,38s5.6,27.8,15.7,38c20.9,20.9,55,20.9,75.9,0l42.4-42.4c0,0,219-219,219-219
			c8-8,18.7-12.4,30.1-12.4c11.4,0,22,4.4,30.1,12.4c8,8,12.4,18.7,12.4,30.1s-4.4,22-12.4,30.1L229,432.6z"/>
	</g>
</g>
</svg>
