<?xml version="1.0" encoding="utf-8"?>
<!-- Generator: Adobe Illustrator 23.0.3, SVG Export Plug-In . SVG Version: 6.00 Build 0)  -->
<svg version="1.1" id="Layer_1" xmlns="http://www.w3.org/2000/svg" xmlns:xlink="http://www.w3.org/1999/xlink" x="0px" y="0px"
	 viewBox="0 0 512 512" style="enable-background:new 0 0 512 512;" xml:space="preserve">
<style type="text/css">
	.st0{fill:#FFFFFF;}
</style>
<path class="st0" d="M490.9,133.7L378.3,21.1c-2.7-2.7-7.2-2.7-9.9,0c-1,1-1.6,2.2-1.9,3.5l-2.1,10.1
	c-11.3,55.9-22,108.7-96.7,182.1l-17.3,17.3L229.3,213c-2.8-2.6-7.1-2.6-9.9,0l-3.8,3.8l-9.8-9.8l3.4-3.4c2.7-2.7,2.7-7.2,0-9.9
	c-2.7-2.7-7.2-2.7-9.9,0l0,0l-16.6,16.6c-2.7,2.7-2.7,7.2,0,9.9c2.7,2.7,7.2,2.7,9.9,0l3.4-3.4l9.8,9.8l-3.8,3.8
	c-2.7,2.7-2.7,7.2,0,9.9l21.1,21.1l-7.4,7.4l-21.1-21.1c-2.7-2.7-7.2-2.7-9.9,0c0,0,0,0,0,0l-3.8,3.8l-9.8-9.8l3.4-3.4
	c2.7-2.7,2.7-7.2,0-9.9s-7.2-2.7-9.9,0l-16.6,16.6c-2.8,2.7-2.9,7.1-0.2,9.9c2.7,2.8,7.1,2.9,9.9,0.2c0.1-0.1,0.1-0.1,0.2-0.2
	l3.4-3.4l9.8,9.8l-3.8,3.8c-2.7,2.7-2.7,7.2,0,9.9c0,0,0,0,0,0l21.1,21.1l-7.4,7.4l-21.1-21.1c-2.7-2.7-7.2-2.7-9.9,0c0,0,0,0,0,0
	l-3.8,3.8l-9.8-9.8l3.4-3.4c2.8-2.7,2.9-7.1,0.2-9.9c-2.7-2.8-7.1-2.9-9.9-0.2c-0.1,0.1-0.1,0.1-0.2,0.2l-8.3,8.3l-8.3,8.3
	c-2.7,2.7-2.7,7.2,0,9.9s7.2,2.7,9.9,0l0,0l3.4-3.4l9.8,9.8l-3.8,3.8c-2.7,2.7-2.7,7.2,0,9.9l21.1,21.1L36.7,447.8l-5.7-5.7
	c-2.7-2.7-7.2-2.7-9.9,0s-2.7,7.2,0,9.9l0,0l10.6,10.6l0.1,0.1l17.6,17.6c0,0,0.1,0,0.1,0.1L60,490.9c2.8,2.7,7.2,2.6,9.9-0.2
	c2.6-2.7,2.6-7,0-9.7l-5.7-5.7l57-57c12.9,34.1,51,51.2,85.1,38.2c8.7-3.3,16.6-8.4,23.2-15l17.1-17.1l22.9,22.9
	c2.7,2.7,7.2,2.7,9.9,0c0,0,0,0,0,0l17.6-17.6c2.7-2.7,2.7-7.2,0-9.9L274,397.1l7.4-7.4l22.9,22.9c2.7,2.7,7.2,2.7,9.9,0l17.6-17.6
	c2.7-2.7,2.7-7.2,0-9.9c0,0,0,0,0,0l-22.9-22.9l7.4-7.4l22.9,22.9c2.7,2.7,7.2,2.7,9.9,0l17.6-17.6c2.7-2.7,2.7-7.2,0-9.9
	c0,0,0,0,0,0l-22.9-22.9l20.4-20.4c25.7-25.7,25.8-67.4,0.1-93.1c0,0-0.1-0.1-0.1-0.1c-5.5-5.5-11.9-10-18.9-13.3
	c49.1-36,89.5-44.2,132.1-52.8l10.2-2.1c3.8-0.8,6.2-4.5,5.4-8.3C492.6,135.9,491.9,134.7,490.9,133.7L490.9,133.7z M232.8,271.5
	l7.7,7.7l-7.4,7.4l-7.7-7.7L232.8,271.5z M243,296.4l7.4-7.4l38.3,38.3l-7.4,7.4L243,296.4z M198,306.3l7.7,7.7l-7.4,7.4l-7.7-7.7
	L198,306.3z M208.2,331.3l7.4-7.4l38.3,38.3l-7.3,7.4L208.2,331.3z M46.6,457.7l116.5-116.5l7.7,7.7L54.3,465.4L46.6,457.7z
	 M163.6,375.9l17.1-17.1l38.3,38.3l-17.1,17.1c-10.6,10.6-27.7,10.6-38.3,0C153.1,403.6,153.1,386.4,163.6,375.9L163.6,375.9
	L163.6,375.9z M219.5,431.7c-20.3,20.2-53.2,20.2-73.5,0c-6.8-6.7-11.5-15.2-13.7-24.5l9.5-9.5c1.4,21.6,19.3,38.4,41,38.4
	c10.9,0,21.3-4.3,29-12l17.1-17.1l7.7,7.7L219.5,431.7z M274.3,432.6L147,305.2l7.7-7.7L282,424.9L274.3,432.6z M264.1,387.2
	l-7.7-7.7l7.4-7.4l7.7,7.7L264.1,387.2z M309.2,397.7L181.8,270.3l7.7-7.7L316.8,390L309.2,397.7z M298.9,352.3l-7.7-7.7l7.4-7.4
	l7.7,7.7L298.9,352.3z M344,362.9L216.6,235.5l3.8-3.8l3.8-3.8l127.4,127.3L344,362.9z M277.9,261.6l20.4-20.5
	c10.6-10.6,27.8-10.5,38.3,0.1c5.1,5.1,7.9,12,7.9,19.1c0,7.2-2.8,14.1-8,19.1l-20.4,20.5L277.9,261.6z M369.4,260.3
	c0,13.8-5.4,27-15.2,36.7l-20.4,20.4l-7.7-7.7l20.4-20.4c16.1-16,16.1-42,0.1-58c-6.7-6.8-15.6-11-25.2-11.9c3.6-3.1,7.1-6.1,10.7-9
	C354.2,217,369.4,237.3,369.4,260.3L369.4,260.3z M326.6,197L326.6,197c-0.2,0.1-0.3,0.2-0.5,0.4c-13.2,10.6-25.8,21.9-37.7,33.9
	L268,251.7l-7.7-7.7l17.3-17.3C354.1,151.6,366,97.3,377.6,40.2l94.2,94.2C427.6,143.4,381.7,153.3,326.6,197z"/>
</svg>
