<?xml version="1.0" encoding="utf-8"?>
<!-- Generator: Adobe Illustrator 23.0.3, SVG Export Plug-In . SVG Version: 6.00 Build 0)  -->
<svg version="1.1" id="Capa_1" xmlns="http://www.w3.org/2000/svg" xmlns:xlink="http://www.w3.org/1999/xlink" x="0px" y="0px"
	 viewBox="0 0 512 512" style="enable-background:new 0 0 512 512;" xml:space="preserve">
<style type="text/css">
	.st0{fill:#FFFFFF;}
</style>
<g>
	<path class="st0" d="M480.3,419.2h-30.5v-15.3c0-4.2-3.4-7.6-7.6-7.6h-22.9c-4.2,0-7.6,3.4-7.6,7.6v7.6h-19.7
		c26.5-30.8,42.6-70.8,42.6-114.5c0-96.8-78.8-175.6-175.6-175.6c-18.9,0-37.1,3-54.2,8.6c8-21.5,22.6-52.3,43.2-54.4h26.2
		c4.2,0,7.6-3.4,7.6-7.6c0-4.2-3.4-7.6-7.6-7.6h-26.8H242c-8.4-20.1-49.3-30.5-90-30.5s-81.6,10.5-90,30.5h-1.9H37.5
		c-4.2,0-7.6,3.4-7.6,7.6c0,4.2,3.4,7.6,7.6,7.6h22.1c40.6,4,52.7,83.1,56.1,119.9c-20.4,28.7-32.4,63.7-32.4,101.5
		c0,96.8,78.8,175.6,175.6,175.6c2.3,0,4.5-0.1,6.8-0.2c0.3,0,0.5,0.2,0.9,0.2h145v7.6c0,4.2,3.4,7.6,7.6,7.6h22.9
		c4.2,0,7.6-3.4,7.6-7.6V465h30.5c4.2,0,7.6-3.4,7.6-7.6v-30.5C487.9,422.6,484.5,419.2,480.3,419.2z M152,45.2
		c34.1,0,59.7,7.6,70.6,15.3H81.5C92.3,52.8,117.9,45.2,152,45.2z M129.2,178.7c-4.6-35.7-14.8-80-37.6-103h126.2
		c-14.4,15.2-24.3,39.2-31.9,61.6c-0.4,0.2-0.8,0.4-1.2,0.6c-4.4,2.1-8.7,4.3-12.8,6.7c-0.9,0.5-1.9,1.1-2.8,1.6
		c-4.1,2.4-8,5-11.9,7.8c-0.9,0.7-1.9,1.3-2.8,2c-3.8,2.8-7.4,5.8-10.9,8.8c-0.9,0.8-1.7,1.5-2.6,2.2c-3.5,3.2-6.9,6.6-10.2,10.1
		C130.3,177.7,129.7,178.2,129.2,178.7z M98.6,297.1c0-44.1,17.9-84,46.8-113c0.2-0.2,0.5-0.4,0.7-0.7c3.4-3.3,6.8-6.5,10.5-9.5
		c0.2-0.2,0.5-0.4,0.7-0.6c3.8-3.1,7.8-6.1,11.9-8.9c0.2-0.2,0.5-0.3,0.8-0.5c3.7-2.5,7.6-4.9,11.6-7.1c0.6-0.3,1.2-0.7,1.8-1
		c22.5-12.1,48.3-19,75.6-19c88.4,0,160.3,71.9,160.3,160.3c0,54.8-27.6,103.1-69.6,132.1c-0.7,0.5-1.4,1-2.1,1.4
		c-3.9,2.6-7.9,5.1-12.1,7.4c-0.2,0.1-0.4,0.2-0.6,0.3c-4,2.1-8.1,4.1-12.2,5.9c-0.7,0.3-1.5,0.6-2.2,0.9c-4.4,1.8-8.8,3.5-13.4,4.9
		c-0.4,0.1-0.9,0.3-1.3,0.4c-14.8,4.5-30.4,7-46.7,7C170.5,457.4,98.6,385.4,98.6,297.1z M330.5,457.4c0.6-0.3,1.1-0.6,1.6-0.8
		c3.5-1.6,7-3.3,10.4-5.2c0.6-0.3,1.2-0.7,1.9-1.1c2.9-1.6,5.8-3.4,8.7-5.2c1-0.6,2-1.2,3-1.9c3.1-2,6-4.2,8.9-6.4
		c1.1-0.8,2.1-1.6,3.1-2.5c2.6-2,5.1-4.1,7.5-6.3c0.5-0.4,1-0.8,1.4-1.2h34.5v30.5L330.5,457.4L330.5,457.4z M434.5,472.6h-7.6V465
		v-45.8v-7.6h7.6v15.3v30.5V472.6z M472.6,449.7h-22.9v-15.3h22.9V449.7z"/>
	<path class="st0" d="M403.9,297.1c0-38.7-15.3-73.7-40-99.8c-0.1-0.1-0.1-0.3-0.3-0.4c-0.2-0.2-0.5-0.5-0.7-0.7
		c-2.4-2.5-5-4.9-7.6-7.2c-1.1-0.9-2.1-1.9-3.1-2.9c-2.2-1.9-4.5-3.6-6.9-5.3c-1.6-1.2-3.2-2.5-4.9-3.6c-1.5-1-3-1.9-4.5-2.8
		c-2.6-1.6-5.2-3.3-7.9-4.8c0,0-0.1,0-0.1,0c-20.9-11.4-44.5-17.5-69-17.5s-48.1,6.1-69,17.5c0,0-0.1,0-0.1,0
		c-2.7,1.5-5.3,3.2-7.9,4.8c-1.5,0.9-3.1,1.8-4.5,2.8c-1.7,1.1-3.3,2.4-4.9,3.6c-2.3,1.7-4.7,3.4-6.9,5.3c-1.1,0.9-2.1,1.9-3.1,2.9
		c-2.6,2.3-5.2,4.7-7.6,7.2c-0.2,0.2-0.5,0.5-0.7,0.7c-0.1,0.1-0.2,0.3-0.3,0.4c-24.8,26-40.1,61.1-40.1,99.8c0,80,65.1,145,145,145
		S403.9,377,403.9,297.1z M245.9,426.2c-1.4-0.1-2.8-0.4-4.2-0.6c-2.8-0.4-5.7-0.7-8.4-1.3c-1.7-0.3-3.3-0.8-4.9-1.2
		c-2.4-0.6-4.9-1.2-7.3-1.9c-1.7-0.5-3.4-1.2-5.1-1.8c-2.2-0.8-4.5-1.5-6.6-2.4c-1.7-0.7-3.4-1.5-5-2.3c-2.1-1-4.1-1.9-6.1-3
		c-1.7-0.9-3.3-1.9-4.9-2.8c-1.9-1.1-3.8-2.2-5.7-3.5c-1.6-1.1-3.1-2.2-4.6-3.3c-1.8-1.3-3.5-2.5-5.2-3.9c-1.5-1.2-2.9-2.5-4.4-3.8
		c-1.6-1.4-3.2-2.8-4.8-4.4c-1.4-1.4-2.7-2.8-4-4.2c-1.5-1.6-2.9-3.1-4.3-4.8c-1.3-1.5-2.5-3-3.6-4.6c-1.3-1.7-2.6-3.4-3.8-5.1
		c-1.1-1.6-2.2-3.3-3.2-4.9c-1.1-1.8-2.3-3.6-3.3-5.5c-1-1.7-1.9-3.5-2.8-5.2c-1-1.9-1.9-3.8-2.8-5.8c-0.8-1.8-1.6-3.7-2.3-5.5
		c-0.8-2-1.5-4-2.2-6.1c-0.6-1.9-1.2-3.8-1.8-5.8c-0.6-2.1-1.1-4.2-1.6-6.3c-0.5-2-0.9-4-1.2-6c-0.4-2.2-0.7-4.4-1-6.6
		c-0.3-2-0.5-4.1-0.7-6.1c-0.1-1-0.1-1.9-0.1-2.9h45.4v45.8v15.3c0,2,0.8,4,2.2,5.4l7.6,7.6c1.4,1.4,3.4,2.2,5.4,2.2h15.3
		c2,0,4-0.8,5.4-2.2l7.6-7.6c1.4-1.4,2.2-3.4,2.2-5.4v-15.3v-45.8H236v45.8v15.3c0,2,0.8,4,2.2,5.4l7.6,7.6c1.4,1.4,3.4,2.2,5.4,2.2
		h15.3c2,0,4-0.8,5.4-2.2l7.6-7.6c1.4-1.4,2.2-3.4,2.2-5.4v-15.3v-45.8h15.3v45.8v15.3c0,2,0.8,4,2.2,5.4l7.6,7.6
		c1.4,1.4,3.4,2.2,5.4,2.2h15.3c2,0,4-0.8,5.4-2.2l7.6-7.6c1.4-1.4,2.2-3.4,2.2-5.4v-15.3v-45.8h45.4c-0.1,1-0.1,1.9-0.1,2.9
		c-0.2,2.1-0.4,4.1-0.7,6.1c-0.3,2.2-0.6,4.4-1,6.6c-0.4,2-0.8,4-1.2,6c-0.5,2.1-1,4.3-1.6,6.3c-0.5,1.9-1.1,3.9-1.8,5.8
		c-0.7,2.1-1.4,4.1-2.2,6.1c-0.7,1.9-1.5,3.7-2.3,5.5c-0.9,2-1.8,3.9-2.8,5.8c-0.9,1.8-1.8,3.5-2.8,5.2c-1.1,1.9-2.2,3.7-3.3,5.5
		c-1.1,1.7-2.1,3.3-3.2,4.9c-1.2,1.7-2.5,3.4-3.8,5.1c-1.2,1.5-2.4,3.1-3.6,4.6c-1.4,1.6-2.9,3.2-4.3,4.8c-1.3,1.4-2.6,2.8-4,4.2
		c-1.5,1.5-3.2,2.9-4.8,4.4c-1.4,1.3-2.9,2.6-4.4,3.8c-1.7,1.4-3.5,2.6-5.2,3.9c-1.5,1.1-3.1,2.3-4.6,3.3c-1.8,1.2-3.8,2.3-5.7,3.5
		c-1.6,1-3.2,2-4.9,2.8c-2,1.1-4.1,2-6.1,3c-1.7,0.8-3.3,1.6-5,2.3c-2.2,0.9-4.4,1.6-6.6,2.4c-1.7,0.6-3.4,1.3-5.1,1.8
		c-2.4,0.7-4.8,1.3-7.3,1.9c-1.6,0.4-3.3,0.9-4.9,1.2c-2.8,0.6-5.6,0.9-8.4,1.3c-1.4,0.2-2.8,0.5-4.2,0.6c-4.3,0.5-8.6,0.7-13,0.7
		C254.5,426.8,250.1,426.6,245.9,426.2z M178.9,195.1c2.6-2,5.1-4,7.8-5.8c2.6-1.7,5.3-3.3,8-4.9c0.8-0.5,1.7-1,2.5-1.5
		c3.4-1.9,7-3.6,10.6-5.1c0.2-0.1,0.4-0.2,0.6-0.3c3.7-1.6,7.6-3,11.5-4.2c0.2,0,0.3-0.1,0.4-0.2c3.7-1.1,7.5-2.1,11.3-2.9
		c0.4-0.1,0.8-0.2,1.2-0.3c3.5-0.7,7.2-1.2,10.8-1.7c0.7-0.1,1.4-0.2,2.1-0.3c4.3-0.4,8.7-0.6,13.1-0.6s8.8,0.2,13.1,0.7
		c0.7,0.1,1.4,0.2,2.1,0.3c3.6,0.4,7.3,0.9,10.8,1.7c0.4,0.1,0.8,0.2,1.2,0.3c3.8,0.8,7.6,1.8,11.3,2.9c0.2,0,0.3,0.1,0.4,0.2
		c3.9,1.2,7.7,2.6,11.5,4.2c0.2,0.1,0.4,0.2,0.6,0.3c3.6,1.5,7.2,3.2,10.6,5.1c0.9,0.5,1.7,1,2.5,1.5c2.7,1.5,5.4,3.1,8,4.9
		c2.7,1.8,5.3,3.8,7.8,5.8c0.7,0.5,1.4,1,2,1.5c3.3,2.7,6.4,5.5,9.5,8.6c-1.5,13-12.6,23.2-26,23.2h-19.6h-30.5h-30.5h-30.5h-19.6
		c-13.4,0-24.5-10.2-26-23.2c3-3,6.2-5.9,9.5-8.6C177.6,196,178.3,195.6,178.9,195.1z M205.5,297.1v38.2h-15.3v-38.2v-53.4h3.3h12
		V297.1z M190.2,353.7l3.2-3.2h8.9l3.2,3.2v8.9l-3.2,3.2h-8.9l-3.2-3.2V353.7z M220.7,243.6H236v45.8h-15.3V243.6z M266.5,297.1
		v38.2h-15.3v-38.2v-53.4h15.3V297.1z M251.3,353.7l3.2-3.2h8.9l3.2,3.2v8.9l-3.2,3.2h-8.9l-3.2-3.2V353.7z M281.8,243.6h15.3v45.8
		h-15.3V243.6z M327.6,243.6v53.4v38.2h-15.3v-38.2v-53.4h12H327.6z M312.3,353.7l3.2-3.2h8.9l3.2,3.2v8.9l-3.2,3.2h-8.9l-3.2-3.2
		V353.7z M342.9,239.2c8.6-4.3,15.5-11.5,19.4-20.3c15.1,19.9,24.5,44.1,26.1,70.5h-45.4V239.2z M174.9,239.2v50.2h-45.4
		c1.5-26.4,11-50.7,26.1-70.5C159.5,227.7,166.3,234.9,174.9,239.2z"/>
</g>
</svg>
