<?xml version="1.0" encoding="utf-8"?>
<!-- Generator: Adobe Illustrator 23.0.3, SVG Export Plug-In . SVG Version: 6.00 Build 0)  -->
<svg version="1.1" id="Capa_1" xmlns="http://www.w3.org/2000/svg" xmlns:xlink="http://www.w3.org/1999/xlink" x="0px" y="0px"
	 viewBox="0 0 512 512" style="enable-background:new 0 0 512 512;" xml:space="preserve">
<style type="text/css">
	.st0{fill:#FFFFFF;}
</style>
<g>
	<path class="st0" d="M384,161.3c0.6,0.2,1.3,0.3,2,0.3c3.1,0,5.8-2,6.7-5c5.3-17.9,11.7-36.7,19.1-55.8c1.4-3.6-0.4-7.7-4-9.1
		c-3.6-1.4-7.7,0.4-9.1,4l0,0c-7.6,19.5-14.1,38.6-19.5,56.9C378.2,156.3,380.3,160.2,384,161.3L384,161.3z"/>
	<path class="st0" d="M278.6,193.6c-73.8,0-133.7,59.9-133.7,133.7c0,22.4,5.6,44.5,16.4,64.2c0.1,0.1,0.1,0.2,0.2,0.4
		c35.6,64.7,117,88.2,181.7,52.6s88.2-117,52.6-181.7C372.2,220.1,327.4,193.6,278.6,193.6L278.6,193.6z M194,242.6
		c46.8-46.8,122.6-46.8,169.3,0c5.2,5.2,10,11,14.2,17.1h-5.7c-14.1,0-25.6,11.5-25.6,25.6v84c-0.3,6.4-5.8,11.3-12.2,11
		c-5.9-0.3-10.7-5-11-11v-84c-0.5-14.1-12.4-25.2-26.5-24.7c-13.4,0.5-24.2,11.3-24.7,24.7v84c0.4,6.4-4.5,11.9-10.9,12.2
		c-6.4,0.4-11.9-4.5-12.2-10.9c0-0.4,0-0.9,0-1.3v-84c-0.5-14.1-12.4-25.2-26.5-24.7c-13.4,0.5-24.2,11.3-24.7,24.7v84
		c0,6.4-5.2,11.6-11.6,11.6c0,0,0,0,0,0h-14.3C148.6,334.8,157.6,279.1,194,242.6z M363.3,412c-46.7,46.8-122.4,46.8-169.2,0.1
		c-5.3-5.3-10.1-11-14.3-17.2h6.1c14.1,0,25.6-11.5,25.6-25.6l0,0v-84c0.3-6.4,5.8-11.3,12.2-11c5.9,0.3,10.7,5,11,11v84
		c-0.5,14.1,10.5,26,24.6,26.5c14.1,0.5,26-10.5,26.5-24.6c0-0.6,0-1.3,0-1.9v-84c0.3-6.4,5.8-11.3,12.2-11c5.9,0.3,10.7,5,11,11v84
		c0.5,14.1,12.4,25.2,26.5,24.7c13.4-0.5,24.2-11.3,24.7-24.7v-84c0-6.4,5.2-11.6,11.6-11.6h14C408.8,319.8,399.7,375.5,363.3,412
		L363.3,412z"/>
	<path class="st0" d="M486,19H243.9c-3.9,0-7,3.1-7,7s3.1,7,7,7h13.7c28,40.7,42.8,85.7,55.7,132.3
		c-89.4-19.2-177.4,37.8-196.6,127.2c-5.2,24.1-4.9,49.1,0.8,73.1l-50.3-19.2c1.7-8.2-2.5-16.4-10.1-19.9c-8.9-4-19.5,0-23.5,8.9
		l-13,29c-4,8.9-0.1,19.4,8.9,23.5c7.6,3.5,16.7,1.1,21.6-5.7l102.2,53.4c2.6,3,5.3,6,8.2,8.9c64.8,64.7,169.7,64.6,234.4-0.1
		c60.3-60.4,64.9-156.8,10.5-222.7c10.3-63.8,40.6-138.2,66.6-188.6H486c3.9,0,7-3.1,7-7S489.9,19.1,486,19L486,19z M38.1,375.2
		c-1.9,0.7-4.1-0.2-4.8-2.2c-0.4-0.9-0.3-2,0.1-2.9l13.1-29c0.8-1.9,3.1-2.7,5-1.9c1.9,0.8,2.7,3.1,1.9,5l-13.1,29
		C39.8,374.2,39,374.9,38.1,375.2z M57.2,369.6l4.6-10.3l60.5,23.1c3.4,9.7,7.7,19.1,12.9,28L57.2,369.6z M385.9,434.6
		c-59.3,59.2-155.3,59.2-214.5-0.1s-59.2-155.3,0.1-214.5c59.2-59.2,155.2-59.2,214.4,0C445.1,279.3,445.1,375.3,385.9,434.6z
		 M394.4,208.7c-18.5-18.1-40.9-31.5-65.5-39.3C316,121.9,301.7,75.6,274.4,33h182.8C432.9,81.3,405.9,148.6,394.4,208.7
		L394.4,208.7z"/>
</g>
</svg>
