<svg xmlns="http://www.w3.org/2000/svg" width="155.687" height="30.343" viewBox="0 0 155.687 30.343">
  <g id="Group_37" data-name="Group 37" transform="translate(-23.803 -379.741)" opacity="0.08">
    <g id="текст" transform="translate(23.803 382.741)">
      <path id="Path_32" data-name="Path 32" d="M39.092,439.191l3.841,1.919a10.458,10.458,0,0,1-9.28,5.249c-6.434,0-10.849-4.993-10.849-11.425s4.416-11.425,10.849-11.425a10.4,10.4,0,0,1,9.28,5.248l-3.841,1.92a6.136,6.136,0,0,0-5.44-2.912c-4.065,0-6.5,3.072-6.5,7.169,0,4.064,2.432,7.136,6.5,7.136A6.113,6.113,0,0,0,39.092,439.191Z" transform="translate(-22.803 -423.51)" fill="#f5f5f5"/>
      <path id="Path_33" data-name="Path 33" d="M552.243,440.507h-3.1v7.68h-4.257v-22.4h8.289c4.991,0,7.776,3.265,7.776,7.361a6.933,6.933,0,0,1-4.257,6.72l4.8,8.32h-4.8Zm-3.1-4.064h3.936a3.285,3.285,0,1,0,0-6.561H549.14Z" transform="translate(-500.953 -425.594)" fill="#f5f5f5"/>
      <path id="Path_34" data-name="Path 34" d="M311.356,631.921" transform="translate(-287.076 -614.384)" fill="#f5f5f5"/>
    </g>
    <g id="текст_2" data-name="текст 2" transform="translate(137.781 383.424)">
      <path id="Path_35" data-name="Path 35" d="M1406.387,439.607c0,3.712-2.593,6.881-8.161,6.881-4.384,0-8.352-2.336-8.993-5.569l3.9-1.5c.416,1.7,2.367,2.753,4.7,2.753,2.591,0,4-1.024,4-2.4,0-1.345-1.088-1.92-4.736-3.008-5.153-1.536-7.265-3.489-7.265-6.784,0-2.945,2.145-6.465,7.9-6.465,3.424,0,6.912,1.824,7.553,5.024l-3.777,1.408c-.288-1.408-2.112-2.176-3.745-2.208-1.792-.031-3.424.608-3.424,2.081,0,1.055.833,1.728,4.353,2.815C1403.122,433.975,1406.387,435.447,1406.387,439.607Z" transform="translate(-1389.233 -423.51)" fill="#f5f5f5"/>
      <path id="Path_36" data-name="Path 36" d="M1645.626,425.786v22.4h-4.255V434.075l-5.473,8.832h-2.528l-5.472-8.832v14.113h-4.256v-22.4h3.969l7.008,11.329,7.072-11.329Z" transform="translate(-1603.917 -425.594)" fill="#f5f5f5"/>
    </g>
    <g id="Слой_15" data-name="Слой 15" transform="translate(85.794 379.741)">
      <path id="Path_37" data-name="Path 37" d="M786.576,405.815a10.9,10.9,0,0,1,0-21.8v-4.27a15.172,15.172,0,1,0,15.172,15.172h-4.27A10.9,10.9,0,0,1,786.576,405.815Z" transform="translate(-771.404 -379.741)" fill="#f5f5f5"/>
    </g>
    <g id="Слой_12" data-name="Слой 12" transform="translate(43.904 383.615)">
      <path id="Path_38" data-name="Path 38" d="M1147.6,425.786h-4.352l-8.193,22.4h4.832l1.728-5.056,1.44-4.064,2.369-6.881,2.369,6.881h-2.055l-1.329,4.064h4.791l1.76,5.056h4.832Z" transform="translate(-1062.563 -425.786)" fill="#f5f5f5"/>
      <path id="Path_39" data-name="Path 39" d="M286.122,425.786H281.77l-8.193,22.4h4.832l1.728-5.056h0l1.44-4.064h0l2.369-6.881,2.367,6.881h-2.051l-1.329,4.064h4.789l1.76,5.056h4.832Z" transform="translate(-273.578 -425.786)" fill="#f5f5f5"/>
      <path id="Path_40" data-name="Path 40" d="M839.627,441.385a6.582,6.582,0,1,1-6.582-6.582v-4.32a10.9,10.9,0,1,0,10.9,10.9Z" transform="translate(-775.984 -430.088)" fill="#f5f5f5" opacity="0.413"/>
      <rect id="Rectangle_29" data-name="Rectangle 29" width="9.077" height="4.089" transform="translate(78.091 13.266)" fill="#f5f5f5"/>
      <rect id="Rectangle_30" data-name="Rectangle 30" width="9.077" height="4.089" transform="translate(5.393 13.266)" fill="#f5f5f5"/>
    </g>
    <g id="Слой_18" data-name="Слой 18" transform="translate(100.966 379.741)">
      <rect id="Rectangle_31" data-name="Rectangle 31" width="4.263" height="13.27" transform="translate(0 19.434) rotate(-90)" fill="#f5f5f5"/>
      <rect id="Rectangle_32" data-name="Rectangle 32" width="8.566" height="8.566" transform="translate(6.606 3.874)" fill="#f5f5f5" opacity="0.413"/>
      <rect id="Rectangle_33" data-name="Rectangle 33" width="8.566" height="8.566" transform="translate(2.732 0)" fill="#f5f5f5"/>
    </g>
  </g>
</svg>
