<svg width="161" height="180" viewBox="0 0 161 180" fill="none" xmlns="http://www.w3.org/2000/svg">
<g clip-path="url(#clip0)">
<g filter="url(#filter0_d)">
<rect width="82.3529" height="105.882" rx="4" transform="translate(23 38.8235)" fill="white"/>
<rect x="0.5" y="0.5" width="81.3529" height="104.882" rx="3.5" transform="translate(23 38.8235)" stroke="#5F45EA"/>
</g>
<rect x="0.5" y="0.5" width="31.9412" height="31.9412" transform="translate(58.2942 85.8824)" fill="white" stroke="#1EE4BD"/>
<rect x="0.5" y="0.5" width="31.9412" height="31.9412" transform="translate(39.4707 67.0588)" fill="white" stroke="#1EE4BD"/>
<rect x="0.5" y="0.5" width="4.88235" height="4.88235" transform="translate(37.1177 64.7059)" fill="white" stroke="#1EE4BD"/>
<rect x="0.5" y="0.5" width="4.88235" height="4.88235" transform="translate(68.8823 64.7059)" fill="white" stroke="#1EE4BD"/>
<rect x="0.5" y="0.5" width="4.88235" height="4.88235" transform="translate(68.8823 96.4706)" fill="white" stroke="#1EE4BD"/>
<rect x="0.5" y="0.5" width="4.88235" height="4.88235" transform="translate(37.1177 96.4706)" fill="white" stroke="#1EE4BD"/>
<g filter="url(#filter1_d)">
<rect width="32" height="85" rx="4" transform="translate(101 75)" fill="white"/>
<rect x="0.5" y="0.5" width="31" height="84" rx="3.5" transform="translate(101 75)" stroke="#5F45EA"/>
</g>
<path d="M1.70385 5.59077L0 15.8139C0 15.8257 0 15.8376 0 15.8494C0 15.8612 0 15.8731 0 15.8849C0 15.8849 0 15.8908 0 15.9026C0 15.9026 0 15.9086 0 15.9204C0 15.9441 0 15.9736 0 16.0091C0.0118323 16.0446 0.0236646 16.0742 0.035497 16.0979C0.035497 16.1097 0.035497 16.1215 0.035497 16.1334C0.0473293 16.1334 0.0532454 16.1334 0.0532454 16.1334C0.0650778 16.1689 0.0769101 16.2044 0.0887424 16.2399C0.112407 16.2635 0.136072 16.2872 0.159736 16.3109C0.195233 16.3345 0.224814 16.3582 0.248479 16.3818C0.283976 16.3937 0.319473 16.4114 0.35497 16.4351C0.390467 16.4469 0.425963 16.4588 0.46146 16.4706C0.496957 16.4706 0.532454 16.4706 0.567951 16.4706C0.579784 16.4706 0.591616 16.4706 0.603448 16.4706C0.627113 16.4706 0.644861 16.4706 0.656694 16.4706L10.8798 14.7667C10.9863 14.7431 11.0751 14.7017 11.146 14.6425C11.2289 14.5833 11.288 14.5064 11.3235 14.4118L13.2759 9.53093L13.7906 10.0634C13.8497 10.1107 13.9148 10.1521 13.9858 10.1876C14.0568 10.2113 14.1278 10.2231 14.1988 10.2231C14.2698 10.2231 14.3408 10.2113 14.4118 10.1876C14.4828 10.1521 14.5478 10.1107 14.607 10.0634L16.3109 8.35953C16.4173 8.24121 16.4706 8.10514 16.4706 7.95132C16.4706 7.7975 16.4173 7.66143 16.3109 7.5431L8.92748 0.159736C8.80916 0.0532454 8.67309 0 8.51927 0C8.36545 0 8.22938 0.0532454 8.11105 0.159736L6.4072 1.86359C6.30071 1.98191 6.24746 2.11799 6.24746 2.27181C6.24746 2.42563 6.30071 2.5617 6.4072 2.68002L6.93966 3.19473L2.05882 5.14706C1.96416 5.18256 1.88725 5.24172 1.82809 5.32454C1.76893 5.39554 1.72752 5.48428 1.70385 5.59077ZM8.51927 1.36663L15.104 7.95132L14.1988 8.85649L13.4711 8.11105C13.4711 8.11105 13.4652 8.11105 13.4533 8.11105L8.35953 3.01724C8.35953 3.00541 8.35953 2.99949 8.35953 2.99949L7.6141 2.27181L8.51927 1.36663ZM7.80933 4.08215L12.3884 8.66126L10.3829 13.6841L2.21856 15.0507L5.51978 11.7495C5.62627 11.8087 5.73867 11.856 5.857 11.8915C5.98715 11.9151 6.11731 11.927 6.24746 11.927C6.47228 11.927 6.68526 11.8856 6.88641 11.8027C7.09939 11.7081 7.28871 11.5838 7.45436 11.43C7.60818 11.2644 7.7265 11.081 7.80933 10.8798C7.90399 10.6668 7.95132 10.4479 7.95132 10.2231C7.95132 9.99831 7.90399 9.78533 7.80933 9.58418C7.7265 9.3712 7.60818 9.18188 7.45436 9.01623C7.13489 8.69675 6.73259 8.53702 6.24746 8.53702C5.76234 8.53702 5.36004 8.69675 5.04057 9.01623C4.88675 9.18188 4.76251 9.3712 4.66785 9.58418C4.58502 9.78533 4.54361 9.99831 4.54361 10.2231C4.54361 10.3533 4.55544 10.4834 4.57911 10.6136C4.6146 10.7319 4.66193 10.8443 4.7211 10.9508L1.41988 14.252L2.78651 6.08773L7.80933 4.08215ZM5.83925 10.6313C5.79192 10.5722 5.75051 10.5071 5.71501 10.4361C5.69135 10.3651 5.67951 10.2941 5.67951 10.2231C5.67951 10.1521 5.69135 10.0811 5.71501 10.0101C5.75051 9.93915 5.79192 9.87407 5.83925 9.81491C5.89841 9.76758 5.96349 9.73208 6.03448 9.70842C6.10548 9.67292 6.17647 9.65517 6.24746 9.65517C6.31846 9.65517 6.38945 9.67292 6.46045 9.70842C6.53144 9.73208 6.59652 9.76758 6.65568 9.81491C6.70301 9.87407 6.73851 9.93915 6.76217 10.0101C6.79767 10.0811 6.81542 10.1521 6.81542 10.2231C6.81542 10.2941 6.79767 10.3651 6.76217 10.4361C6.73851 10.5071 6.70301 10.5722 6.65568 10.6313C6.54919 10.7378 6.41312 10.7911 6.24746 10.7911C6.08181 10.7911 5.94574 10.7378 5.83925 10.6313Z" transform="translate(108.882 132.941)" fill="#5F45EA"/>
<path d="M7.05882 18.8235C7.92892 18.8235 8.78064 18.6591 9.61397 18.3302C10.4596 18.0013 11.2132 17.5269 11.875 16.907C12.549 16.2745 13.0882 15.5092 13.4926 14.611C13.9093 13.7002 14.1176 12.6755 14.1176 11.537C14.1176 10.4491 13.7868 9.25996 13.125 7.96964C12.4632 6.67932 11.7218 5.47122 10.9007 4.34535C10.0919 3.20683 9.33211 2.25174 8.62132 1.48008C7.92279 0.695762 7.53676 0.265655 7.46324 0.189753C7.35294 0.0632511 7.21814 0 7.05882 0C6.89951 0 6.76471 0.0632511 6.65441 0.189753C6.58088 0.265655 6.18873 0.695762 5.47794 1.48008C4.77941 2.25174 4.01961 3.20051 3.19853 4.32638C2.38971 5.45225 1.65441 6.66667 0.992647 7.96964C0.330882 9.25996 0 10.4491 0 11.537C0 12.6755 0.202206 13.6939 0.606618 14.592C1.02328 15.4902 1.5625 16.2555 2.22426 16.888C2.88603 17.5079 3.63971 17.9823 4.48529 18.3112C5.33088 18.6528 6.18873 18.8235 7.05882 18.8235ZM7.05882 1.4611C7.41422 1.85326 7.91667 2.44782 8.56618 3.24478C9.22794 4.0291 9.88358 4.90196 10.5331 5.86338C11.1826 6.81214 11.7463 7.79254 12.2243 8.80455C12.7022 9.80392 12.9412 10.7147 12.9412 11.537C12.9412 12.5237 12.7635 13.3966 12.4081 14.1556C12.065 14.902 11.6115 15.5345 11.0478 16.0531C10.4963 16.5591 9.87132 16.945 9.17279 17.2106C8.47426 17.4763 7.76961 17.6091 7.05882 17.6091C6.34804 17.6091 5.64338 17.4826 4.94485 17.2296C4.24632 16.9639 3.6152 16.5781 3.05147 16.0721C2.5 15.5534 2.04657 14.9146 1.69118 14.1556C1.34804 13.3966 1.17647 12.5237 1.17647 11.537C1.17647 10.7147 1.41544 9.80392 1.89338 8.80455C2.37132 7.79254 2.93505 6.81214 3.58456 5.86338C4.23407 4.90196 4.88358 4.0291 5.53309 3.24478C6.19485 2.44782 6.70343 1.85326 7.05882 1.4611ZM7.05882 14.5731C7.23039 14.5731 7.37132 14.5161 7.48162 14.4023C7.59191 14.2884 7.64706 14.1429 7.64706 13.9658C7.64706 13.7887 7.59191 13.6433 7.48162 13.5294C7.37132 13.4156 7.23039 13.3586 7.05882 13.3586C6.91176 13.3586 6.58088 13.2701 6.06618 13.093C5.55147 12.9032 5.29412 12.3846 5.29412 11.537C5.29412 11.3599 5.23897 11.2144 5.12868 11.1006C5.01838 10.9867 4.87745 10.9298 4.70588 10.9298C4.53431 10.9298 4.39338 10.9867 4.28309 11.1006C4.17279 11.2144 4.11765 11.3599 4.11765 11.537C4.11765 12.7514 4.47917 13.561 5.20221 13.9658C5.9375 14.3707 6.55637 14.5731 7.05882 14.5731Z" transform="translate(110.059 107.059)" fill="#5F45EA"/>
<path d="M15.9216 4.94118H9.33333C9.18464 4.94118 9.0531 4.99837 8.93873 5.11275C8.83578 5.21569 8.78431 5.3415 8.78431 5.4902V6.58824C8.78431 6.73693 8.83578 6.86846 8.93873 6.98284C9.0531 7.08578 9.18464 7.13726 9.33333 7.13726C9.48203 7.13726 9.60784 7.08578 9.71078 6.98284C9.82516 6.86846 9.88235 6.73693 9.88235 6.58824V6.03922H12.0784V12.0784H10.9804C10.8317 12.0784 10.7002 12.1356 10.5858 12.25C10.4828 12.3529 10.4314 12.4788 10.4314 12.6275C10.4314 12.7761 10.4828 12.9077 10.5858 13.0221C10.7002 13.125 10.8317 13.1765 10.9804 13.1765H14.2745C14.4232 13.1765 14.549 13.125 14.652 13.0221C14.7663 12.9077 14.8235 12.7761 14.8235 12.6275C14.8235 12.4788 14.7663 12.3529 14.652 12.25C14.549 12.1356 14.4232 12.0784 14.2745 12.0784H13.1765V6.03922H15.3725V6.58824C15.3725 6.73693 15.424 6.86846 15.527 6.98284C15.6413 7.08578 15.7729 7.13726 15.9216 7.13726C16.0703 7.13726 16.1961 7.08578 16.299 6.98284C16.4134 6.86846 16.4706 6.73693 16.4706 6.58824V5.4902C16.4706 5.3415 16.4134 5.21569 16.299 5.11275C16.1961 4.99837 16.0703 4.94118 15.9216 4.94118ZM8.78431 12.0784H6.58824V1.09804H10.9804V2.19608C10.9804 2.34477 11.0319 2.47631 11.1348 2.59069C11.2492 2.69363 11.3807 2.7451 11.5294 2.7451C11.6781 2.7451 11.8039 2.69363 11.9069 2.59069C12.0212 2.47631 12.0784 2.34477 12.0784 2.19608V0.54902C12.0784 0.400327 12.0212 0.27451 11.9069 0.171569C11.8039 0.0571895 11.6781 0 11.5294 0H0.54902C0.400327 0 0.268791 0.0571895 0.154412 0.171569C0.0514706 0.27451 0 0.400327 0 0.54902V2.19608C0 2.34477 0.0514706 2.47631 0.154412 2.59069C0.268791 2.69363 0.400327 2.7451 0.54902 2.7451C0.697712 2.7451 0.823529 2.69363 0.926471 2.59069C1.04085 2.47631 1.09804 2.34477 1.09804 2.19608V1.09804H5.4902V12.0784H3.29412C3.14542 12.0784 3.01389 12.1356 2.89951 12.25C2.79657 12.3529 2.7451 12.4788 2.7451 12.6275C2.7451 12.7761 2.79657 12.9077 2.89951 13.0221C3.01389 13.125 3.14542 13.1765 3.29412 13.1765H8.78431C8.93301 13.1765 9.05882 13.125 9.16176 13.0221C9.27614 12.9077 9.33333 12.7761 9.33333 12.6275C9.33333 12.4788 9.27614 12.3529 9.16176 12.25C9.05882 12.1356 8.93301 12.0784 8.78431 12.0784Z" transform="translate(108.882 85.8824)" fill="#5F45EA"/>
<g filter="url(#filter2_d)">
<path d="M0 4C0 1.79086 1.79086 0 4 0H78.3529C80.5621 0 82.3529 1.79086 82.3529 4V10.5882H0V4Z" transform="translate(23 38.8235)" fill="white"/>
<path d="M4 0.5H78.353C80.2859 0.5 81.8529 2.067 81.8529 4V10.0882H0.5V4C0.5 2.067 2.067 0.5 4 0.5Z" transform="translate(23 38.8235)" stroke="#5F45EA"/>
</g>
<circle cx="1.76471" cy="1.76471" r="1.76471" transform="translate(27.7058 42.3529)" fill="#1EE4BD"/>
<circle cx="1.76471" cy="1.76471" r="1.76471" transform="translate(34.7646 42.3529)" fill="#1EE4BD"/>
<circle cx="1.76471" cy="1.76471" r="1.76471" transform="translate(41.8235 42.3529)" fill="#1EE4BD"/>
<g filter="url(#filter3_d)">
<circle cx="21.1765" cy="21.1765" r="21.1765" transform="translate(95.9412 20)" fill="white"/>
<circle cx="21.1765" cy="21.1765" r="20.6765" transform="translate(95.9412 20)" stroke="#5F45EA"/>
</g>
<path d="M14.1176 0H5.56395V2.87431H14.1176V0Z" transform="translate(110.059 34.1176)" fill="#5F45EA"/>
<path d="M14.1176 5.6221H5.56395V8.49641H14.1176V5.6221Z" transform="translate(110.059 34.1176)" fill="#5F45EA"/>
<path d="M14.1176 11.2433H5.56395V14.1176H14.1176V11.2433Z" transform="translate(110.059 34.1176)" fill="#5F45EA"/>
<path d="M2.89399 0.0322881H0V14.1176H2.89399V0.0322881Z" transform="translate(110.059 34.1176)" fill="#5F45EA"/>
</g>
<defs>
<filter id="filter0_d" x="3" y="18.8235" width="122.353" height="145.882" filterUnits="userSpaceOnUse" color-interpolation-filters="sRGB">
<feFlood flood-opacity="0" result="BackgroundImageFix"/>
<feColorMatrix in="SourceAlpha" type="matrix" values="0 0 0 0 0 0 0 0 0 0 0 0 0 0 0 0 0 0 255 0"/>
<feOffset/>
<feGaussianBlur stdDeviation="10"/>
<feColorMatrix type="matrix" values="0 0 0 0 0.372549 0 0 0 0 0.270588 0 0 0 0 0.917647 0 0 0 0.5 0"/>
<feBlend mode="normal" in2="BackgroundImageFix" result="effect1_dropShadow"/>
<feBlend mode="normal" in="SourceGraphic" in2="effect1_dropShadow" result="shape"/>
</filter>
<filter id="filter1_d" x="81" y="55" width="72" height="125" filterUnits="userSpaceOnUse" color-interpolation-filters="sRGB">
<feFlood flood-opacity="0" result="BackgroundImageFix"/>
<feColorMatrix in="SourceAlpha" type="matrix" values="0 0 0 0 0 0 0 0 0 0 0 0 0 0 0 0 0 0 255 0"/>
<feOffset/>
<feGaussianBlur stdDeviation="10"/>
<feColorMatrix type="matrix" values="0 0 0 0 0.372549 0 0 0 0 0.270588 0 0 0 0 0.917647 0 0 0 0.5 0"/>
<feBlend mode="normal" in2="BackgroundImageFix" result="effect1_dropShadow"/>
<feBlend mode="normal" in="SourceGraphic" in2="effect1_dropShadow" result="shape"/>
</filter>
<filter id="filter2_d" x="3" y="18.8235" width="122.353" height="50.5882" filterUnits="userSpaceOnUse" color-interpolation-filters="sRGB">
<feFlood flood-opacity="0" result="BackgroundImageFix"/>
<feColorMatrix in="SourceAlpha" type="matrix" values="0 0 0 0 0 0 0 0 0 0 0 0 0 0 0 0 0 0 255 0"/>
<feOffset/>
<feGaussianBlur stdDeviation="10"/>
<feColorMatrix type="matrix" values="0 0 0 0 0.203922 0 0 0 0 0.192157 0 0 0 0 0.294118 0 0 0 0.1 0"/>
<feBlend mode="normal" in2="BackgroundImageFix" result="effect1_dropShadow"/>
<feBlend mode="normal" in="SourceGraphic" in2="effect1_dropShadow" result="shape"/>
</filter>
<filter id="filter3_d" x="75.9412" y="0" width="82.3529" height="82.3529" filterUnits="userSpaceOnUse" color-interpolation-filters="sRGB">
<feFlood flood-opacity="0" result="BackgroundImageFix"/>
<feColorMatrix in="SourceAlpha" type="matrix" values="0 0 0 0 0 0 0 0 0 0 0 0 0 0 0 0 0 0 255 0"/>
<feOffset/>
<feGaussianBlur stdDeviation="10"/>
<feColorMatrix type="matrix" values="0 0 0 0 0.372549 0 0 0 0 0.270588 0 0 0 0 0.917647 0 0 0 0.5 0"/>
<feBlend mode="normal" in2="BackgroundImageFix" result="effect1_dropShadow"/>
<feBlend mode="normal" in="SourceGraphic" in2="effect1_dropShadow" result="shape"/>
</filter>
<clipPath id="clip0">
<rect width="1920" height="6616" fill="white" transform="translate(-879 -674)"/>
</clipPath>
</defs>
</svg>
