<svg width="188" height="148" viewBox="0 0 188 148" fill="none" xmlns="http://www.w3.org/2000/svg">
<path opacity="0.2" d="M176.218 0.0316176L95.0818 8.70376C94.5409 8.70376 93.4591 8.70376 92.9182 8.70376L11.7822 0.0316176C4.75036 -0.510391 -1.74052 5.99371 0.423109 13.5818L21.5185 100.303C22.0594 103.013 23.6821 105.181 26.3866 106.807L88.5909 146.374C92.3773 148.542 96.7045 148.542 99.95 146.374L161.613 106.807C163.777 105.181 165.4 103.013 166.482 100.303L187.577 13.5818C189.741 5.99371 183.25 -0.510391 176.218 0.0316176ZM142.682 82.959L94 112.227L45.3184 82.959L32.3366 30.3841L94 40.1403L155.663 30.3841L142.682 82.959Z" fill="url(#paint0_linear)"/>
<defs>
<linearGradient id="paint0_linear" x2="1" gradientUnits="userSpaceOnUse" gradientTransform="translate(0 74) scale(188 148)">
<stop stop-color="#64ECF5"/>
<stop offset="1" stop-color="#1CEBBC"/>
</linearGradient>
</defs>
</svg>
