<svg width="164" height="129" viewBox="0 0 164 129" fill="none" xmlns="http://www.w3.org/2000/svg">
<path opacity="0.5" d="M153.722 0.0275586L82.9437 7.58638C82.4719 7.58638 81.5281 7.58638 81.0563 7.58638L10.278 0.0275586C4.14394 -0.444868 -1.51832 5.22425 0.369095 11.8382L18.7714 87.4265C19.2433 89.7886 20.6589 91.6783 23.0181 93.0956L77.2814 127.583C80.5844 129.472 84.3593 129.472 87.1904 127.583L140.982 93.0956C142.869 91.6783 144.285 89.7886 145.229 87.4265L163.631 11.8382C165.518 5.22425 159.856 -0.444868 153.722 0.0275586ZM124.467 72.3088L82 97.8198L39.5331 72.3088L28.2085 26.4834L82 34.9871L135.791 26.4834L124.467 72.3088Z" fill="url(#paint0_linear)"/>
<defs>
<linearGradient id="paint0_linear" x2="1" gradientUnits="userSpaceOnUse" gradientTransform="translate(0 64.5) scale(164 129)">
<stop stop-color="#64ECF5"/>
<stop offset="1" stop-color="#1CEBBC"/>
</linearGradient>
</defs>
</svg>
