<svg width="322" height="254" viewBox="0 0 322 254" fill="none" xmlns="http://www.w3.org/2000/svg">
<path opacity="0.2" d="M301.82 0.0542626L162.853 14.9375C161.926 14.9375 160.074 14.9375 159.147 14.9375L20.1801 0.0542626C8.13626 -0.875942 -2.9811 10.2865 0.724687 23.3094L36.8561 172.142C37.7826 176.793 40.5619 180.514 45.1941 183.304L151.736 251.209C158.221 254.93 165.632 254.93 171.191 251.209L276.806 183.304C280.512 180.514 283.291 176.793 285.144 172.142L321.275 23.3094C324.981 10.2865 313.864 -0.875942 301.82 0.0542626ZM244.38 142.376L161 192.607L77.6198 142.376L55.3851 52.1457L161 68.8894L266.615 52.1457L244.38 142.376Z" fill="url(#paint0_linear)"/>
<defs>
<linearGradient id="paint0_linear" x2="1" gradientUnits="userSpaceOnUse" gradientTransform="translate(0 127) scale(322 254)">
<stop stop-color="#64ECF5"/>
<stop offset="1" stop-color="#8667F7"/>
</linearGradient>
</defs>
</svg>
