<svg width="121" height="95" viewBox="0 0 121 95" fill="none" xmlns="http://www.w3.org/2000/svg">
<g opacity="0.11">
<path d="M113.417 0.0202951L61.1963 5.58687C60.8481 5.58687 60.1519 5.58687 59.8037 5.58687L7.58319 0.0202951C3.05742 -0.327616 -1.12023 3.84732 0.27232 8.71807L13.8497 64.3838C14.1978 66.1234 15.2422 67.515 16.9829 68.5588L57.0186 93.9563C59.4556 95.3479 62.2407 95.3479 64.3295 93.9563L104.017 68.5588C105.41 67.515 106.454 66.1234 107.15 64.3838L120.728 8.71807C122.12 3.84732 117.943 -0.327616 113.417 0.0202951ZM91.8323 53.2507L60.5 72.0379L29.1677 53.2507L20.8124 19.5033L60.5 25.7657L100.188 19.5033L91.8323 53.2507Z" fill="white" style="mix-blend-mode:overlay"/>
</g>
</svg>
