<svg id="Icons-_-Design-_-Edit" data-name="Icons-/-Design-/-Edit" xmlns="http://www.w3.org/2000/svg" width="24" height="24" viewBox="0 0 24 24">
  <rect id="bound" width="24" height="24" fill="none"/>
  <rect id="Rectangle" width="17" height="2" rx="1" transform="translate(4 20)" fill="#e62128" opacity="0.3"/>
  <path id="Path_56" data-name="Path 56" d="M1,0H4A.977.977,0,0,1,5,.953V14.3a1.586,1.586,0,0,1-.481.98S3.481,16.338,3.1,16.694a1.068,1.068,0,0,1-1.414,0C1.317,16.338.276,15.28.276,15.28A2.119,2.119,0,0,1,0,14.3V.953A.977.977,0,0,1,1,0Z" transform="translate(16.609 2) rotate(45)" fill="#e62128"/>
</svg>
