<svg xmlns="http://www.w3.org/2000/svg" xmlns:xlink="http://www.w3.org/1999/xlink" width="18" height="18" viewBox="0 0 18 18">
  <defs>
    <clipPath id="clip-path">
      <rect width="18" height="18" fill="none"/>
    </clipPath>
  </defs>
  <g id="Icons-shopping" clip-path="url(#clip-path)">
    <g id="Icons-shopping-2" data-name="Icons-shopping">
      <rect id="bound" width="18" height="18" fill="none"/>
      <rect id="Rectangle_6" data-name="Rectangle 6" width="14" height="14" rx="2" transform="translate(2 2)" fill="#d7dcde"/>
      <path id="Path-97" d="M8.178,12.5a.767.767,0,0,1-.894,0,.7.7,0,0,1,0-1L9.871,8.349a.761.761,0,0,1,.985-.051l2.114,2.6L15.725,6.75a.758.758,0,0,1,1-.108.622.622,0,0,1,.118.923L13.632,12.25a.757.757,0,0,1-1.024.093L10.448,9.7S8.311,12.37,8.178,12.5Z" transform="translate(-3 -0.5)" fill="#fff"/>
    </g>
  </g>
</svg>
