<svg xmlns="http://www.w3.org/2000/svg" xmlns:xlink="http://www.w3.org/1999/xlink" width="18" height="18" viewBox="0 0 18 18">
  <defs>
    <clipPath id="clip-path">
      <rect width="18" height="18" fill="none"/>
    </clipPath>
  </defs>
  <g id="ic-directory" clip-path="url(#clip-path)">
    <g id="ic-directory-2" data-name="ic-directory">
      <path id="Shape" d="M0,0H18V18H0Z" fill="none" fill-rule="evenodd"/>
      <path id="Path_47" data-name="Path 47" d="M.875,0A13.324,13.324,0,0,1,3.666.164,10.434,10.434,0,0,1,6.125.995C6.6,1.269,7,1.44,7,1.99v9.949c0,.549-.168,1.086-1,1.047s-1.307-.673-2.533-.9A9.559,9.559,0,0,0,1,11.986c-.243,0-1-.493-1-1.042V.995A.941.941,0,0,1,.875,0Z" transform="translate(2 3.014)" fill="#d7dcde"/>
      <path id="Path_48" data-name="Path 48" d="M6.125,0A13.324,13.324,0,0,0,3.334.164,10.434,10.434,0,0,0,.875.995C.4,1.269,0,1.44,0,1.99v9.949c0,.549.168,1.086,1,1.047s1.307-.673,2.533-.9A9.559,9.559,0,0,1,6,11.986c.243,0,1-.451,1-1v-10A.932.932,0,0,0,6.125,0Z" transform="translate(10 3.014)" fill="#d7dcde"/>
    </g>
  </g>
</svg>
