<svg xmlns="http://www.w3.org/2000/svg" width="18" height="18" viewBox="0 0 18 18">
  <g id="ic-settings" transform="translate(0)">
    <path id="Path_3" data-name="Path 3" d="M0,0H18V18H0Z" fill="none"/>
    <g id="Слой_2" data-name="Слой 2" transform="translate(1.962 2)">
      <g id="Icons">
        <path id="Settings" d="M12.684,8.782l-.475-.475a1.143,1.143,0,0,1-.356-.9,5.127,5.127,0,0,0,0-.961,1.108,1.108,0,0,1,.344-.886l.481-.481a1.136,1.136,0,0,0,.178-1.389L12.565,3.2a1.2,1.2,0,0,0-1.312-.544l-.718.174a1.212,1.212,0,0,1-.968-.179,4.256,4.256,0,0,0-.386-.237q-.2-.11-.386-.191A1.167,1.167,0,0,1,8.13,1.47L7.952.845A1.184,1.184,0,0,0,6.783,0H6.189a1.182,1.182,0,0,0-1.1.839l-.22.718a1.165,1.165,0,0,1-.594.706,5.423,5.423,0,0,0-.837.481,1.212,1.212,0,0,1-.956.179L1.8,2.767a1.2,1.2,0,0,0-1.312.579l-.3.515A1.136,1.136,0,0,0,.354,5.21l.475.475a1.143,1.143,0,0,1,.374.9,5.127,5.127,0,0,0,0,.938,1.108,1.108,0,0,1-.344.886l-.481.481A1.136,1.136,0,0,0,.2,10.282l.291.492a1.2,1.2,0,0,0,1.306.562l.718-.174a1.212,1.212,0,0,1,.968.179,4.257,4.257,0,0,0,.386.237q.2.11.386.191a1.167,1.167,0,0,1,.665.753l.178.625A1.184,1.184,0,0,0,6.284,14h.594a1.183,1.183,0,0,0,1.116-.828l.22-.718a1.165,1.165,0,0,1,.594-.706,5.422,5.422,0,0,0,.837-.481,1.212,1.212,0,0,1,.956-.179l.689.162A1.2,1.2,0,0,0,12.6,10.67l.3-.515A1.137,1.137,0,0,0,12.684,8.782Zm-6.138.533A2.317,2.317,0,1,1,8.92,7,2.346,2.346,0,0,1,6.545,9.315Z" transform="translate(-0.038 0)" fill="#e62128"/>
      </g>
    </g>
  </g>
</svg>
