<svg id="Icons-_-Communication-_-Clipboard-check" data-name="Icons-/-Communication-/-Clipboard-check" xmlns="http://www.w3.org/2000/svg" width="24" height="24" viewBox="0 0 24 24">
  <rect id="bound" width="24" height="24" fill="none"/>
  <path id="Combined-Shape" d="M8,3v.5A1.5,1.5,0,0,0,9.5,5h5A1.5,1.5,0,0,0,16,3.5V3h2a2,2,0,0,1,2,2V19a2,2,0,0,1-2,2H6a2,2,0,0,1-2-2V5A2,2,0,0,1,6,3Z" transform="translate(0 1)" fill="#e62128" fill-rule="evenodd" opacity="0.3"/>
  <path id="check-path" d="M10.875,15.75a.946.946,0,0,1-.671-.288L8.288,13.546A.949.949,0,0,1,9.629,12.2l1.246,1.246,3.163-3.162a.949.949,0,0,1,1.342,1.342l-3.833,3.833A.946.946,0,0,1,10.875,15.75Z" transform="translate(0.333)" fill="#e62128" fill-rule="evenodd"/>
  <path id="Combined-Shape-2" data-name="Combined-Shape" d="M11,2a1,1,0,0,1,2,0h1.5a.5.5,0,0,1,.5.5v1a.5.5,0,0,1-.5.5h-5A.5.5,0,0,1,9,3.5v-1A.5.5,0,0,1,9.5,2Z" transform="translate(0 1)" fill="#e62128" fill-rule="evenodd"/>
</svg>
