<svg id="Icons-_-Files-_-File" data-name="Icons-/-Files-/-File" xmlns="http://www.w3.org/2000/svg" width="18" height="18" viewBox="0 0 18 18">
  <path id="Shape" d="M0,0H18V18H0Z" fill="none" fill-rule="evenodd"/>
  <path id="Rectangle_37" data-name="Rectangle 37" d="M1,0H6a5,5,0,0,1,5,5v7a1,1,0,0,1-1,1H1a1,1,0,0,1-1-1V1A1,1,0,0,1,1,0Z" transform="translate(2 1)" fill="#d7dcde" opacity="0.499"/>
  <path id="Rectangle_36" data-name="Rectangle 36" d="M1,0H6a5,5,0,0,1,5,5v7a1,1,0,0,1-1,1H1a1,1,0,0,1-1-1V1A1,1,0,0,1,1,0Z" transform="translate(5 4)" fill="#d7dcde"/>
  <rect id="Rectangle" width="4" height="1" rx="0.5" transform="translate(7 10)" fill="#fff"/>
  <rect id="Rectangle-2" data-name="Rectangle" width="6" height="1" rx="0.5" transform="translate(7 8)" fill="#fff"/>
  <rect id="Rectangle-Copy" width="3" height="1" rx="0.5" transform="translate(7 12)" fill="#fff"/>
</svg>
