<svg id="ic-visibility-24px" xmlns="http://www.w3.org/2000/svg" width="24" height="24" viewBox="0 0 24 24">
  <path id="Path_29" data-name="Path 29" d="M0,0H24V24H0Z" fill="none"/>
  <path id="Path_55" data-name="Path 55" d="M221.637-2151.869c-1.676-1.218-2.637-2.723-2.637-4.13s.961-2.9,2.637-4.12A9.54,9.54,0,0,1,227-2162a9.537,9.537,0,0,1,5.364,1.877C234.04-2158.9,235-2157.4,235-2156s-.96,2.914-2.636,4.131A9.552,9.552,0,0,1,227-2150,9.557,9.557,0,0,1,221.637-2151.869ZM223-2156a4,4,0,0,0,4,4,4,4,0,0,0,4-4,4,4,0,0,0-4-4A4,4,0,0,0,223-2156Zm2,0a2,2,0,0,1,2-2,2,2,0,0,1,2,2,2,2,0,0,1-2,2A2,2,0,0,1,225-2156Z" transform="translate(-215 2168)" fill="#d7dcde"/>
</svg>
