<svg id="Icons-_-General-_-Duplicate" data-name="Icons-/-General-/-Duplicate" xmlns="http://www.w3.org/2000/svg" width="24" height="24" viewBox="0 0 24 24">
  <rect id="bound" width="24" height="24" fill="none"/>
  <path id="Combined-Shape" d="M16,6H9A3,3,0,0,0,6,9v7a1.937,1.937,0,0,1-2-2.177V6.182A1.962,1.962,0,0,1,6.182,4h7.636A1.937,1.937,0,0,1,16,6Z" fill="#e62128" opacity="0.3"/>
  <path id="Rectangle-19-Copy-3" d="M10.182,8h7.636A1.962,1.962,0,0,1,20,10.182v7.636A1.962,1.962,0,0,1,17.818,20H10.182A1.962,1.962,0,0,1,8,17.818V10.182A1.962,1.962,0,0,1,10.182,8Z" fill="#e62128" fill-rule="evenodd"/>
</svg>
