<svg xmlns="http://www.w3.org/2000/svg" width="111" height="22" viewBox="0 0 111 22">
  <g id="Logo" transform="translate(-22.803 -379.741)">
    <g id="Слой_12" data-name="Слой 12" transform="translate(70.451 382.837)">
      <path id="Path_424" data-name="Path 424" d="M834.529,438.387a4.664,4.664,0,1,1-4.663-4.772v-3.132a7.907,7.907,0,1,0,7.723,7.9Z" transform="translate(-822.143 -430.483)" fill="#e62128"/>
    </g>
    <g id="Слой_18" data-name="Слой 18" transform="translate(22.803 379.741)">
      <path id="Path_425" data-name="Path 425" d="M34.342,393.781l2.721,1.391a7.378,7.378,0,0,1-6.574,3.806c-4.558,0-7.686-3.62-7.686-8.283s3.128-8.284,7.686-8.284a7.334,7.334,0,0,1,6.574,3.8l-2.721,1.392a4.324,4.324,0,0,0-3.853-2.111c-2.88,0-4.6,2.227-4.6,5.2,0,2.946,1.723,5.174,4.6,5.174A4.307,4.307,0,0,0,34.342,393.781Zm24.8-.557h-2.2v5.569H53.924V382.55H59.8a5.124,5.124,0,0,1,5.508,5.337,5.035,5.035,0,0,1-3.015,4.872l3.4,6.033h-3.4Zm-2.2-2.946h2.788a2.38,2.38,0,1,0,0-4.757H56.939Zm59.468,3.8c0,2.691-1.837,4.989-5.782,4.989-3.106,0-5.916-1.694-6.37-4.037l2.766-1.091c.294,1.23,1.677,2,3.333,2,1.836,0,2.834-.742,2.834-1.74,0-.975-.771-1.392-3.355-2.181-3.65-1.114-5.147-2.53-5.147-4.919,0-2.135,1.519-4.687,5.6-4.687,2.426,0,4.9,1.322,5.351,3.643l-2.676,1.021c-.2-1.021-1.5-1.578-2.653-1.6-1.269-.023-2.426.441-2.426,1.509,0,.765.59,1.253,3.084,2.041C114.095,390,116.408,391.066,116.408,394.082Zm17.4-11.532v16.242h-3.014V388.56l-3.877,6.4H125.12l-3.876-6.4v10.232h-3.015V382.55h2.811L126,390.764l5.01-8.214Zm-33.432,16.242h3.423l-5.8-16.242H94.908l-5.8,16.242h3.423l1.222-3.659h5.377Zm-3.922-11.6,1.674,4.977H94.775Zm-47.431,11.6h3.423l-5.8-16.242H43.555l-5.8,16.242h3.423l1.222-3.659h5.377Zm-3.922-11.6,1.673,4.977H43.423Zm42.479,3.55h-9.4v3.091h7.11a7.724,7.724,0,0,1-7.11,4.814,7.907,7.907,0,0,1,0-15.809v-3.1a11,11,0,1,0,10.748,11Z" transform="translate(-22.803 -379.741)" fill="#242b33"/>
      <rect id="Rectangle_365" data-name="Rectangle 365" width="6.068" height="6.21" transform="translate(60.052 2.809)" fill="#e62128"/>
      <rect id="Rectangle_366" data-name="Rectangle 366" width="6.068" height="6.21" transform="translate(57.307 0)" fill="#242b33"/>
    </g>
  </g>
</svg>
