<svg xmlns="http://www.w3.org/2000/svg" width="1330.025" height="4742.897" viewBox="0 0 1330.025 4742.897">
  <path id="Path_108" data-name="Path 108" d="M149.625,436.8C465.31,329.9,896.254,320.005,896.254,738.392c0,201.243-251.155,429.919-639.639,303.459s-668.811-10.613-669.622,261.5c-.86,288.886,248.914,424.489,669.622,330.372s359.457,155.425,280.24,109.2,94.458-154.909,194.492-143.733,203.612,129.624,164.907,315.107-311.816,357.833-639.639,357.833-680.053-63.477-680.053,277,277.431,374.235,490.16,374.235,825.751-79.354,829.531,365.521c2.324,273.581-312.718,382.638-683.885,363.62s-591.488,80.1-591.488,509.483c0,217.268,225.507,394,541.011,494.645,309.123,98.608,713.825,27.686,716.638,314.38s-290.956,57.272-290.956,57.272" transform="translate(424.437 -373.329)" fill="none" stroke="#d9d9d9" stroke-width="2" stroke-dasharray="9" opacity="0.58"/>
</svg>
