<svg xmlns="http://www.w3.org/2000/svg" xmlns:xlink="http://www.w3.org/1999/xlink" width="174.402" height="109.519" viewBox="0 0 174.402 109.519">
  <defs>
    <clipPath id="clip-path">
      <path id="Path_124" data-name="Path 124" d="M126.207-36.588l32.561-19.024L.668-47.967,126.207-36.588" transform="translate(-0.668 55.612)" fill="#fff" clip-rule="evenodd"/>
    </clipPath>
    <clipPath id="clip-path-2">
      <path id="Path_123" data-name="Path 123" d="M589.08,478.08H-123V-234H589.08Z" transform="translate(123 234)" fill="#fff"/>
    </clipPath>
    <clipPath id="clip-path-3">
      <path id="Path_127" data-name="Path 127" d="M146.18-38.854,150.353-6.9,135.63-25.134,20.641-50.233,146.18-38.854" transform="translate(-20.641 50.233)" fill="#eaeaea" clip-rule="evenodd"/>
    </clipPath>
    <clipPath id="clip-path-4">
      <path id="Path_126" data-name="Path 126" d="M589.08,478.08H-123V-234H589.08Z" transform="translate(123 234)" fill="#eaeaea"/>
    </clipPath>
    <clipPath id="clip-path-5">
      <path id="Path_130" data-name="Path 130" d="M41.82-14.337,20.641-20.871l6.456-11.7L41.82-14.337" transform="translate(-20.641 32.574)" fill="#d0d0d0" clip-rule="evenodd"/>
    </clipPath>
    <clipPath id="clip-path-6">
      <path id="Path_129" data-name="Path 129" d="M589.08,478.08H-123V-234H589.08Z" transform="translate(123 234)" fill="#d0d0d0"/>
    </clipPath>
    <clipPath id="clip-path-7">
      <path id="Path_133" data-name="Path 133" d="M145.989-25.134,137.2,19.915,31-50.233l114.989,25.1" transform="translate(-31 50.233)" fill="#fff" clip-rule="evenodd"/>
    </clipPath>
  </defs>
  <g id="Group_81" data-name="Group 81" transform="matrix(0.951, 0.309, -0.309, 0.951, 24.039, 0)">
    <g id="Group_63" data-name="Group 63" transform="translate(0 0)" clip-path="url(#clip-path)">
      <g id="Group_62" data-name="Group 62" transform="translate(-378.208 -253.546)" clip-path="url(#clip-path-2)">
        <path id="Path_122" data-name="Path 122" d="M167.981-60.612H-4.332v33.238H167.981Z" transform="translate(375.434 307.051)" fill="#fff"/>
      </g>
    </g>
    <g id="Group_65" data-name="Group 65" transform="translate(0 7.645)" clip-path="url(#clip-path-3)">
      <g id="Group_64" data-name="Group 64" transform="translate(-378.208 -261.191)" clip-path="url(#clip-path-4)">
        <path id="Path_125" data-name="Path 125" d="M159.566-55.233H15.641V2.316H159.566Z" transform="translate(355.461 309.318)" fill="#eaeaea"/>
      </g>
    </g>
    <g id="Group_67" data-name="Group 67" transform="translate(108.533 32.744)" clip-path="url(#clip-path-5)">
      <g id="Group_66" data-name="Group 66" transform="translate(-486.741 -286.29)" clip-path="url(#clip-path-6)">
        <path id="Path_128" data-name="Path 128" d="M51.033-37.574H15.641v32.45H51.033Z" transform="translate(463.994 316.758)" fill="#d0d0d0"/>
      </g>
    </g>
    <g id="Group_69" data-name="Group 69" transform="translate(0 7.645)" clip-path="url(#clip-path-7)">
      <g id="Group_68" data-name="Group 68" transform="translate(-378.208 -261.191)" clip-path="url(#clip-path-2)">
        <path id="Path_131" data-name="Path 131" d="M155.2-55.233H26V29.128H155.2Z" transform="translate(345.102 309.318)" fill="#fff"/>
      </g>
    </g>
  </g>
</svg>
