<svg xmlns="http://www.w3.org/2000/svg" xmlns:xlink="http://www.w3.org/1999/xlink" width="103.961" height="20.199" viewBox="0 0 103.961 20.199">
  <defs>
    <linearGradient id="linear-gradient" x1="-0.066" y1="0.812" x2="0.78" y2="0.05" gradientUnits="objectBoundingBox">
      <stop offset="0" stop-color="#3a78bc"/>
      <stop offset="1" stop-color="#437bbd"/>
    </linearGradient>
    <linearGradient id="linear-gradient-2" x1="0.095" y1="1.011" x2="0.957" y2="-0.001" gradientUnits="objectBoundingBox">
      <stop offset="0" stop-color="#49b649"/>
      <stop offset="1" stop-color="#7fc35b"/>
    </linearGradient>
    <linearGradient id="linear-gradient-3" x1="0.071" y1="0.973" x2="0.886" y2="0.273" gradientUnits="objectBoundingBox">
      <stop offset="0" stop-color="#f6934c"/>
      <stop offset="1" stop-color="#fcc112"/>
    </linearGradient>
    <linearGradient id="linear-gradient-4" x1="0.051" y1="0.876" x2="0.906" y2="0.138" gradientUnits="objectBoundingBox">
      <stop offset="0" stop-color="#ed2925"/>
      <stop offset="1" stop-color="#ef5553"/>
    </linearGradient>
  </defs>
  <g id="Group_61" data-name="Group 61" transform="translate(0)">
    <path id="Каркуша_copy" d="M916.476,549.844c.135.676.406,1.069.784,1.163a2.708,2.708,0,0,0,1.393-.081,4.118,4.118,0,0,0,1.014-.419,4.376,4.376,0,0,0,.893-.69,1.485,1.485,0,0,0,.446-.92,6.876,6.876,0,0,0-.041-1.826,22.716,22.716,0,0,0-.812-3.273q-.67-2.171-1.583-4.464a33.932,33.932,0,0,0-2.016-4.18,6.243,6.243,0,0,0-2.1-2.448,3.625,3.625,0,0,0-1.731-.663,5.406,5.406,0,0,0-1.867-.041,2.333,2.333,0,0,0-1.231.717,7.3,7.3,0,0,0-.866,1.15,18.62,18.62,0,0,0-1.474,2.935c-.5,1.217-.974,2.475-1.393,3.8s-.771,2.611-1.055,3.868a18.4,18.4,0,0,0-.487,3.111,6.989,6.989,0,0,0-.014.92,4.069,4.069,0,0,0,.135.906,1.627,1.627,0,0,0,.514.893,5.522,5.522,0,0,0,.947.636,3.618,3.618,0,0,0,1.055.365,2.706,2.706,0,0,0,1.393-.041c.379-.122.609-.527.717-1.231.095-.731.243-1.542.433-2.435a16.39,16.39,0,0,0,2.935-.189,19.036,19.036,0,0,0,3.138-.663c.352,1.163.636,2.191.866,3.1Zm-4.3-12.133a54.494,54.494,0,0,1,2.949,6.533,21.567,21.567,0,0,1-5.424.649,57.66,57.66,0,0,1,2.475-7.182Z" transform="translate(-817.089 -531.565)" fill-rule="evenodd" fill="url(#linear-gradient)"/>
    <path id="Каркуша_copy_7" d="M769.651,547.393a45.93,45.93,0,0,1,.311-7.466c.081-.663-.014-1.109-.284-1.325a1.973,1.973,0,0,0-1.1-.406,5.93,5.93,0,0,0-1.1-.027,2.73,2.73,0,0,0-1.042.243,1.5,1.5,0,0,0-.649.676,6.912,6.912,0,0,0-.528,1.623,22.058,22.058,0,0,0-.352,2.976q-.1,1.826-.081,3.814c.014,1.312.081,2.6.189,3.841.041.446.081.866.135,1.244a15.6,15.6,0,0,1-3.679-.365q.3-10.084.825-11.511c.068-.216.149-.446.23-.676a3.817,3.817,0,0,0,.176-.676.867.867,0,0,0-.568-.906,4.317,4.317,0,0,0-1.42-.365,4.836,4.836,0,0,0-1.326.027,3.162,3.162,0,0,0-.852.284,2.011,2.011,0,0,0-.96.933,7.429,7.429,0,0,0-.528,1.271,16.319,16.319,0,0,0-.663,3c-.176,1.217-.3,2.489-.379,3.814s-.108,2.584-.081,3.8a18.3,18.3,0,0,0,.271,2.976,6.381,6.381,0,0,0,.541,1.65,1.547,1.547,0,0,0,.69.69,4.156,4.156,0,0,0,.812.3,3.1,3.1,0,0,0,.866.041c3.206.027,6.641.068,10.32.095s5.925.068,6.736.081c1.38-.216,1.934-1.731,1.7-4.558a30.431,30.431,0,0,1-.352-5.086,40.84,40.84,0,0,1,.676-7.372c.108-.649.027-1.1-.257-1.326a2.362,2.362,0,0,0-1.231-.46c-.311-.041-.636-.068-.96-.081a2.38,2.38,0,0,0-.92.189,1.422,1.422,0,0,0-.757.622,6.246,6.246,0,0,0-.676,1.61c-.257.906-.446,4.883-.555,11.9a20.358,20.358,0,0,1-2.719.149,48.158,48.158,0,0,1-.474-5.248Z" transform="translate(-688.754 -536.851)" fill-rule="evenodd" fill="url(#linear-gradient-2)"/>
    <path id="Каркуша_copy_6" d="M657.7,547.335a1.842,1.842,0,0,0,.257.839,5.882,5.882,0,0,0,.622,1c.243.311.487.622.744.906.352.406.825.947,1.407,1.583a20.051,20.051,0,0,1,1.366,1.65,1.768,1.768,0,0,1,.041,2.651,4.88,4.88,0,0,1-.96,1.082,5.264,5.264,0,0,0-.717.622,4.648,4.648,0,0,1-.987.8,3.9,3.9,0,0,0-.893.73.705.705,0,0,0-.027.947c.23.325.473.649.7.933a3.19,3.19,0,0,0,1.231.825,2.338,2.338,0,0,0,1.542.216,5.451,5.451,0,0,0,1.88-.987,12.728,12.728,0,0,0,1.785-1.623c.541-.6,1.082-1.2,1.61-1.8.6-.676,1.177-1.366,1.731-2.056s1.1-1.42,1.6-2.164,1.014-1.528,1.528-2.381a9.068,9.068,0,0,0,1.1-2.583,1.836,1.836,0,0,0-.244-1.637,7.624,7.624,0,0,0-.893-.974,3.632,3.632,0,0,0-1.109-.69,1.171,1.171,0,0,0-1.069-.014,2.356,2.356,0,0,0-.663.8c-.325.6-.73,1.326-1.2,2.178a8.479,8.479,0,0,1-1.461,1.988,3.618,3.618,0,0,1-.649.473.527.527,0,0,1-.7-.122,8.9,8.9,0,0,1-1.8-2.719,6.879,6.879,0,0,0-1.894-2.611,1.543,1.543,0,0,0-1.542-.365q-.71.446-1.1.73a5.663,5.663,0,0,0-.879.92A1.463,1.463,0,0,0,657.7,547.335Z" transform="translate(-603.815 -542.65)" fill-rule="evenodd" fill="url(#linear-gradient-3)"/>
    <path id="Каркуша_copy_5" d="M560.37,531.8c.014-.663-.122-1.082-.446-1.271a2.591,2.591,0,0,0-1.271-.3,5.415,5.415,0,0,0-.933.068,3.35,3.35,0,0,0-.866.325,1.588,1.588,0,0,0-.649.717,6.594,6.594,0,0,0-.446,1.664,16.97,16.97,0,0,0-.108,2.989c.041,1.217.122,2.475.271,3.787s.338,2.57.582,3.787a16.656,16.656,0,0,0,.839,2.989,8.519,8.519,0,0,0,.582,1.231,2.043,2.043,0,0,0,1.015.893,2.484,2.484,0,0,0,.825.216,4.986,4.986,0,0,0,1.272-.068,4.127,4.127,0,0,0,1.38-.446.863.863,0,0,0,.5-.933,1.869,1.869,0,0,0-.189-.663q-.162-.345-.284-.649a30.373,30.373,0,0,1-1.5-5.113,5,5,0,0,1,1.515.96c.757.676,1.461,1.339,2.1,2s1.272,1.271,1.894,1.84,1.258,1.082,1.88,1.569a2.107,2.107,0,0,0,1.583.609,5.022,5.022,0,0,0,1.975-1.366c.879-.825,1.028-1.583.446-2.245-.257-.271-.73-.717-1.447-1.326s-1.488-1.271-2.34-1.961-1.691-1.366-2.516-2.029-1.474-1.163-1.975-1.529q1.035-1.258,2.11-2.435a13.8,13.8,0,0,1,2.6-2.164c.176-.108.352-.23.541-.352a2.5,2.5,0,0,0,.5-.419c.555-.568.433-1.177-.338-1.867a4.388,4.388,0,0,0-1.8-1.123,1.829,1.829,0,0,0-1.136.2,7.752,7.752,0,0,0-1.082.622,9.443,9.443,0,0,0-2.11,1.975c-.636.8-1.623,2.2-2.949,4.22a42.881,42.881,0,0,1-.014-4.41Z" transform="translate(-515.548 -529.167)" fill-rule="evenodd" fill="url(#linear-gradient-4)"/>
    <path id="Каркуша_copy_4" d="M458.781,548.431q-.081.852-.081,2.069c.013.771.041,1.461.095,2.056.014.325.027.663.054.988s.054.649.095.96a.171.171,0,0,0,.014.081c0,.014.013.041.013.054a.553.553,0,0,1,.014.149.122.122,0,0,0,.013.068.192.192,0,0,0,.027.081v.149c.013.162.068.541.162,1.163.081.6.176,1.15.3,1.664a16.3,16.3,0,0,0,.365,1.61,2.977,2.977,0,0,0,.419,1.055.886.886,0,0,0,.257.243,2.525,2.525,0,0,0,1.19.46,8.435,8.435,0,0,0,1.312.095,3.311,3.311,0,0,0,.365-.027.38.38,0,0,0,.257-.095.457.457,0,0,0,.149-.23,1.19,1.19,0,0,0,.014-.379c-.014-.135-.014-.284-.027-.46s-.013-.379-.013-.582c0-.582.013-1.028.027-1.326a5.582,5.582,0,0,1,.23-1.258,1.608,1.608,0,0,1,.528-.852,3.446,3.446,0,0,1,.3-.176,2.153,2.153,0,0,1,.271-.095.559.559,0,0,1,.257-.027,14.251,14.251,0,0,0,3.787-.311,11.758,11.758,0,0,0,3.5-1.772,4.612,4.612,0,0,0,2.272-3.26,4.535,4.535,0,0,0-.122-1.6,8.724,8.724,0,0,0-.6-1.528,7.523,7.523,0,0,0-.947-1.312,7.753,7.753,0,0,0-2.705-1.907,10.185,10.185,0,0,0-3.273-.8,13.779,13.779,0,0,0-3.422.135,12.128,12.128,0,0,0-3.138.92c-.284.122-.555.257-.825.406a1.4,1.4,0,0,0-.663.852,6.833,6.833,0,0,0-.162.758,8.337,8.337,0,0,0-.311,1.975Zm10.591-.771a2.312,2.312,0,0,1,1.055,1.867,2.283,2.283,0,0,1-.216.987,2.677,2.677,0,0,1-2.137,1.555,12.043,12.043,0,0,1-1.7.122,3.1,3.1,0,0,1-2.042-.433,2.14,2.14,0,0,1-.379-.406,3.06,3.06,0,0,1-.284-1.474,3.683,3.683,0,0,1,.216-1.528,1.825,1.825,0,0,1,.852-.866c.095-.041.23-.095.392-.149a6.687,6.687,0,0,1,3.923.162.913.913,0,0,1,.325.162Z" transform="translate(-431.732 -541.42)" fill-rule="evenodd" fill="url(#linear-gradient)"/>
    <path id="Каркуша_copy_3" d="M372.976,549.844c.135.676.406,1.069.785,1.163a2.707,2.707,0,0,0,1.393-.081,4.119,4.119,0,0,0,1.014-.419,4.378,4.378,0,0,0,.893-.69,1.485,1.485,0,0,0,.446-.92,6.884,6.884,0,0,0-.041-1.826,22.688,22.688,0,0,0-.812-3.273q-.67-2.171-1.583-4.464a33.953,33.953,0,0,0-2.015-4.18,6.244,6.244,0,0,0-2.1-2.448,3.624,3.624,0,0,0-1.731-.663,5.406,5.406,0,0,0-1.867-.041,2.333,2.333,0,0,0-1.231.717,7.3,7.3,0,0,0-.866,1.15,18.607,18.607,0,0,0-1.474,2.935c-.5,1.217-.974,2.475-1.393,3.8s-.771,2.611-1.055,3.868a18.387,18.387,0,0,0-.487,3.111,6.953,6.953,0,0,0-.014.92,4.074,4.074,0,0,0,.135.906,1.627,1.627,0,0,0,.514.893,5.515,5.515,0,0,0,.947.636,3.617,3.617,0,0,0,1.055.365,2.706,2.706,0,0,0,1.393-.041c.379-.122.609-.527.717-1.231.095-.731.243-1.542.433-2.435a16.392,16.392,0,0,0,2.935-.189,19.038,19.038,0,0,0,3.138-.663c.338,1.163.636,2.191.866,3.1Zm-4.3-12.133a54.49,54.49,0,0,1,2.949,6.533,21.567,21.567,0,0,1-5.424.649,55.567,55.567,0,0,1,2.475-7.182Z" transform="translate(-347.104 -531.565)" fill-rule="evenodd" fill="url(#linear-gradient-3)"/>
    <path id="Каркуша_copy_2" d="M264.07,531.8c.013-.663-.122-1.082-.446-1.271a2.591,2.591,0,0,0-1.271-.3,5.415,5.415,0,0,0-.933.068,3.353,3.353,0,0,0-.866.325,1.588,1.588,0,0,0-.649.717,6.589,6.589,0,0,0-.446,1.664,16.952,16.952,0,0,0-.108,2.989c.041,1.217.122,2.475.271,3.787s.338,2.57.582,3.787a16.658,16.658,0,0,0,.839,2.989,8.512,8.512,0,0,0,.582,1.231,2.043,2.043,0,0,0,1.014.893,2.484,2.484,0,0,0,.825.216,4.985,4.985,0,0,0,1.271-.068,4.126,4.126,0,0,0,1.38-.446.864.864,0,0,0,.5-.933,1.868,1.868,0,0,0-.189-.663q-.162-.345-.284-.649a30.379,30.379,0,0,1-1.5-5.113,5,5,0,0,1,1.515.96c.757.676,1.461,1.339,2.1,2s1.271,1.271,1.894,1.84,1.258,1.082,1.88,1.569a2.106,2.106,0,0,0,1.583.609,5.023,5.023,0,0,0,1.975-1.366c.879-.825,1.028-1.583.446-2.245-.257-.271-.73-.717-1.447-1.326s-1.488-1.271-2.34-1.961-1.691-1.366-2.516-2.029-1.474-1.163-1.975-1.529q1.035-1.258,2.11-2.435a13.8,13.8,0,0,1,2.6-2.164c.176-.108.352-.23.541-.352a2.5,2.5,0,0,0,.5-.419c.555-.568.433-1.177-.338-1.867a4.389,4.389,0,0,0-1.8-1.123,1.829,1.829,0,0,0-1.136.2,7.75,7.75,0,0,0-1.082.622,9.442,9.442,0,0,0-2.11,1.975c-.636.8-1.623,2.2-2.949,4.22-.068-2.056-.068-3.53-.014-4.41Z" transform="translate(-259.326 -529.167)" fill-rule="evenodd" fill="url(#linear-gradient-4)"/>
  </g>
</svg>
