<svg xmlns="http://www.w3.org/2000/svg" width="16" height="9" viewBox="0 0 16 9">
  <path id="Path_172" data-name="Path 172" d="M19.985,26.562a.817.817,0,0,0,.437-.188.683.683,0,0,0,.131-.414s-.018-1.265.578-1.451,1.341,1.223,2.14,1.764a1.531,1.531,0,0,0,1.063.319l2.137-.029s1.117-.068.588-.934a7.078,7.078,0,0,0-1.589-1.812c-1.341-1.226-1.161-1.028.453-3.149.983-1.292,1.376-2.08,1.253-2.417s-.84-.237-.84-.237l-2.406.015a.554.554,0,0,0-.311.054.67.67,0,0,0-.213.255,13.627,13.627,0,0,1-.888,1.849c-1.071,1.793-1.5,1.888-1.675,1.777-.408-.26-.306-1.043-.306-1.6,0-1.738.268-2.463-.52-2.65a4.165,4.165,0,0,0-1.123-.11,5.27,5.27,0,0,0-2,.2c-.274.132-.485.427-.356.444a1.085,1.085,0,0,1,.71.352,2.262,2.262,0,0,1,.238,1.073s.142,2.046-.331,2.3c-.324.174-.769-.181-1.724-1.809a15.04,15.04,0,0,1-.858-1.755.707.707,0,0,0-.2-.265A.993.993,0,0,0,14.007,18l-2.286.015s-.344.009-.47.157c-.112.13-.009.4-.009.4a25.573,25.573,0,0,0,3.817,6.21,5.534,5.534,0,0,0,3.968,1.782Z" transform="translate(-11.2 -17.6)" fill="#fff"/>
</svg>
