<svg xmlns="http://www.w3.org/2000/svg" xmlns:xlink="http://www.w3.org/1999/xlink" width="160.005" height="47.011" viewBox="0 0 160.005 47.011">
  <defs>
    <linearGradient id="linear-gradient" x1="-0.066" y1="0.812" x2="0.78" y2="0.05" gradientUnits="objectBoundingBox">
      <stop offset="0" stop-color="#3a78bc"/>
      <stop offset="1" stop-color="#437bbd"/>
    </linearGradient>
    <linearGradient id="linear-gradient-2" x1="0.095" y1="1.011" x2="0.957" y2="-0.001" gradientUnits="objectBoundingBox">
      <stop offset="0" stop-color="#49b649"/>
      <stop offset="1" stop-color="#7fc35b"/>
    </linearGradient>
    <linearGradient id="linear-gradient-3" x1="0.071" y1="0.973" x2="0.886" y2="0.273" gradientUnits="objectBoundingBox">
      <stop offset="0" stop-color="#f6934c"/>
      <stop offset="1" stop-color="#fcc112"/>
    </linearGradient>
    <linearGradient id="linear-gradient-4" x1="0.051" y1="0.876" x2="0.906" y2="0.138" gradientUnits="objectBoundingBox">
      <stop offset="0" stop-color="#ed2925"/>
      <stop offset="1" stop-color="#ef5553"/>
    </linearGradient>
  </defs>
  <g id="Лого" transform="translate(-405 -1111.992)">
    <g id="Каркуша_лого" data-name="Каркуша лого" transform="translate(281.833 941.132)">
      <g id="Group_48" data-name="Group 48" transform="translate(123.167 170.868)">
        <path id="Каркуша_copy" d="M923.021,559.414c.208,1.038.625,1.64,1.207,1.785a4.179,4.179,0,0,0,2.144-.125,6.348,6.348,0,0,0,1.561-.643,6.73,6.73,0,0,0,1.374-1.059,2.276,2.276,0,0,0,.687-1.411,10.517,10.517,0,0,0-.062-2.8,34.782,34.782,0,0,0-1.249-5.023q-1.031-3.332-2.436-6.85a52.008,52.008,0,0,0-3.1-6.414,9.588,9.588,0,0,0-3.227-3.757,5.588,5.588,0,0,0-2.665-1.017,8.342,8.342,0,0,0-2.873-.062,3.594,3.594,0,0,0-1.895,1.1,11.206,11.206,0,0,0-1.332,1.764,28.539,28.539,0,0,0-2.269,4.5c-.77,1.868-1.5,3.8-2.144,5.833s-1.186,4.006-1.623,5.936a28.156,28.156,0,0,0-.75,4.774,10.7,10.7,0,0,0-.021,1.411,6.217,6.217,0,0,0,.208,1.391,2.5,2.5,0,0,0,.791,1.37,8.509,8.509,0,0,0,1.457.976,5.573,5.573,0,0,0,1.624.561,4.179,4.179,0,0,0,2.144-.062c.583-.187.937-.81,1.1-1.889.146-1.121.375-2.366.666-3.736a25.307,25.307,0,0,0,4.517-.291,29.384,29.384,0,0,0,4.83-1.017c.541,1.785.979,3.362,1.332,4.753ZM916.4,540.8a83.5,83.5,0,0,1,4.538,10.025,33.283,33.283,0,0,1-8.348,1A88.311,88.311,0,0,1,916.4,540.8Z" transform="translate(-770.06 -531.363)" fill-rule="evenodd" fill="url(#linear-gradient)"/>
        <path id="Каркуша_copy_7" d="M777.05,552.384a70.273,70.273,0,0,1,.479-11.457c.125-1.017-.021-1.7-.437-2.034a3.04,3.04,0,0,0-1.686-.622,9.149,9.149,0,0,0-1.686-.042,4.21,4.21,0,0,0-1.6.374,2.3,2.3,0,0,0-1,1.038,10.586,10.586,0,0,0-.812,2.491,33.742,33.742,0,0,0-.541,4.566q-.156,2.8-.125,5.853c.021,2.013.125,3.985.291,5.894.062.685.125,1.328.208,1.91a24.079,24.079,0,0,1-5.662-.56q.469-15.473,1.27-17.663c.1-.332.229-.685.354-1.038a5.842,5.842,0,0,0,.271-1.038,1.331,1.331,0,0,0-.874-1.39,6.662,6.662,0,0,0-2.186-.56,7.464,7.464,0,0,0-2.04.042,4.878,4.878,0,0,0-1.311.436,3.09,3.09,0,0,0-1.478,1.432,11.377,11.377,0,0,0-.812,1.951,24.977,24.977,0,0,0-1.02,4.608c-.271,1.868-.458,3.819-.583,5.853s-.167,3.964-.125,5.832a28.028,28.028,0,0,0,.416,4.566,9.767,9.767,0,0,0,.833,2.532,2.377,2.377,0,0,0,1.062,1.059,6.41,6.41,0,0,0,1.249.457,4.8,4.8,0,0,0,1.332.062c4.934.041,10.221.1,15.884.145q8.494.093,10.367.125c2.123-.332,2.977-2.657,2.623-6.995a46.554,46.554,0,0,1-.541-7.8,62.484,62.484,0,0,1,1.041-11.311c.167-1,.042-1.681-.4-2.034a3.644,3.644,0,0,0-1.9-.706c-.479-.062-.978-.1-1.478-.124a3.672,3.672,0,0,0-1.416.29,2.189,2.189,0,0,0-1.166.955,9.566,9.566,0,0,0-1.041,2.47c-.4,1.391-.687,7.493-.854,18.265a31.428,31.428,0,0,1-4.184.228,73.651,73.651,0,0,1-.729-8.053Z" transform="translate(-652.546 -536.203)" fill-rule="evenodd" fill="url(#linear-gradient-2)"/>
        <path id="Каркуша_copy_6" d="M657.7,548.71a2.819,2.819,0,0,0,.4,1.286,9.02,9.02,0,0,0,.958,1.535c.375.477.749.955,1.145,1.39.541.623,1.27,1.453,2.165,2.428a30.771,30.771,0,0,1,2.1,2.531,2.706,2.706,0,0,1,.063,4.067,7.5,7.5,0,0,1-1.478,1.66,8.1,8.1,0,0,0-1.1.954,7.141,7.141,0,0,1-1.52,1.224,6,6,0,0,0-1.374,1.121,1.079,1.079,0,0,0-.042,1.452c.354.5.729,1,1.083,1.432a4.913,4.913,0,0,0,1.894,1.266,3.608,3.608,0,0,0,2.373.332,8.4,8.4,0,0,0,2.894-1.515,19.58,19.58,0,0,0,2.748-2.49c.833-.913,1.665-1.847,2.477-2.76.916-1.037,1.811-2.1,2.665-3.154.874-1.058,1.686-2.179,2.456-3.32.77-1.12,1.561-2.345,2.352-3.652a13.882,13.882,0,0,0,1.686-3.963,2.809,2.809,0,0,0-.375-2.511,11.719,11.719,0,0,0-1.374-1.494,5.592,5.592,0,0,0-1.707-1.058,1.807,1.807,0,0,0-1.645-.021,3.618,3.618,0,0,0-1.02,1.224c-.5.913-1.124,2.033-1.853,3.341a13,13,0,0,1-2.248,3.05,5.561,5.561,0,0,1-1,.726.812.812,0,0,1-1.082-.187,13.649,13.649,0,0,1-2.769-4.171,10.552,10.552,0,0,0-2.914-4,2.38,2.38,0,0,0-2.373-.56q-1.093.685-1.686,1.12a8.7,8.7,0,0,0-1.353,1.411A2.24,2.24,0,0,0,657.7,548.71Z" transform="translate(-574.769 -541.513)" fill-rule="evenodd" fill="url(#linear-gradient-3)"/>
        <path id="Каркуша_copy_5" d="M562.928,533.2c.021-1.017-.187-1.661-.687-1.951a4,4,0,0,0-1.957-.457,8.365,8.365,0,0,0-1.436.1,5.169,5.169,0,0,0-1.332.5,2.439,2.439,0,0,0-1,1.1,10.1,10.1,0,0,0-.687,2.553,25.971,25.971,0,0,0-.167,4.587c.063,1.868.188,3.8.417,5.812s.52,3.944.9,5.812a25.508,25.508,0,0,0,1.291,4.587,13.046,13.046,0,0,0,.9,1.889,3.141,3.141,0,0,0,1.561,1.37,3.828,3.828,0,0,0,1.27.332,7.689,7.689,0,0,0,1.957-.1,6.362,6.362,0,0,0,2.123-.685,1.324,1.324,0,0,0,.77-1.432,2.863,2.863,0,0,0-.291-1.017q-.25-.53-.437-1a46.5,46.5,0,0,1-2.311-7.846,7.7,7.7,0,0,1,2.332,1.474c1.166,1.038,2.248,2.055,3.227,3.072s1.957,1.951,2.914,2.823,1.936,1.661,2.893,2.408a3.248,3.248,0,0,0,2.436.934,7.729,7.729,0,0,0,3.039-2.1c1.353-1.266,1.582-2.429.687-3.446-.4-.415-1.124-1.1-2.228-2.034-1.1-.955-2.29-1.951-3.6-3.01s-2.6-2.1-3.872-3.113-2.269-1.785-3.039-2.346q1.592-1.93,3.247-3.736a21.228,21.228,0,0,1,4-3.321c.271-.166.541-.353.833-.54a3.833,3.833,0,0,0,.77-.643c.854-.872.666-1.806-.52-2.865a6.759,6.759,0,0,0-2.769-1.723,2.823,2.823,0,0,0-1.749.311,11.941,11.941,0,0,0-1.665.955,14.522,14.522,0,0,0-3.247,3.03c-.979,1.225-2.5,3.384-4.538,6.476a65.58,65.58,0,0,1-.021-6.767Z" transform="translate(-493.944 -529.167)" fill-rule="evenodd" fill="url(#linear-gradient-4)"/>
        <path id="Каркуша_copy_4" d="M458.825,551.153q-.125,1.307-.125,3.175c.021,1.183.063,2.241.146,3.154.021.5.042,1.017.083,1.515s.083,1,.146,1.473a.261.261,0,0,0,.021.124c0,.021.021.062.021.083a.846.846,0,0,1,.021.228.186.186,0,0,0,.021.1.293.293,0,0,0,.042.125v.228c.021.249.1.83.25,1.785.125.913.271,1.764.458,2.552a24.936,24.936,0,0,0,.562,2.469,4.556,4.556,0,0,0,.645,1.619,1.361,1.361,0,0,0,.4.374,3.893,3.893,0,0,0,1.832.706,13.034,13.034,0,0,0,2.019.145,5.121,5.121,0,0,0,.562-.041.585.585,0,0,0,.4-.145.7.7,0,0,0,.229-.353,1.822,1.822,0,0,0,.021-.581c-.021-.208-.021-.436-.042-.706s-.021-.581-.021-.892c0-.892.021-1.577.042-2.034a8.535,8.535,0,0,1,.354-1.93,2.465,2.465,0,0,1,.812-1.307,5.262,5.262,0,0,1,.458-.27,3.307,3.307,0,0,1,.416-.145.862.862,0,0,1,.4-.041,22,22,0,0,0,5.829-.477,18.115,18.115,0,0,0,5.392-2.718c2.123-1.432,3.289-3.113,3.5-5a6.936,6.936,0,0,0-.187-2.449,13.354,13.354,0,0,0-.916-2.345,11.54,11.54,0,0,0-1.457-2.013A11.935,11.935,0,0,0,477,544.635a15.716,15.716,0,0,0-5.038-1.224,21.276,21.276,0,0,0-5.267.207,18.709,18.709,0,0,0-4.83,1.411c-.437.187-.853.394-1.27.622a2.144,2.144,0,0,0-1.02,1.307,10.474,10.474,0,0,0-.25,1.162,12.756,12.756,0,0,0-.479,3.03Zm16.3-1.183a3.544,3.544,0,0,1,1.624,2.864,3.493,3.493,0,0,1-.333,1.515,4.119,4.119,0,0,1-3.289,2.386,18.571,18.571,0,0,1-2.623.187c-1.582.021-2.623-.187-3.143-.664a3.289,3.289,0,0,1-.583-.623,4.682,4.682,0,0,1-.437-2.262,5.631,5.631,0,0,1,.333-2.345,2.8,2.8,0,0,1,1.312-1.328c.146-.063.354-.145.6-.229a10.323,10.323,0,0,1,6.037.249,1.407,1.407,0,0,1,.5.249Z" transform="translate(-417.195 -540.387)" fill-rule="evenodd" fill="url(#linear-gradient)"/>
        <path id="Каркуша_copy_3" d="M379.521,559.414c.208,1.038.625,1.64,1.207,1.785a4.179,4.179,0,0,0,2.144-.125,6.351,6.351,0,0,0,1.561-.643,6.739,6.739,0,0,0,1.374-1.059,2.277,2.277,0,0,0,.687-1.411,10.529,10.529,0,0,0-.062-2.8,34.722,34.722,0,0,0-1.249-5.023q-1.03-3.332-2.436-6.85a52.048,52.048,0,0,0-3.1-6.414,9.592,9.592,0,0,0-3.227-3.757,5.587,5.587,0,0,0-2.665-1.017,8.343,8.343,0,0,0-2.873-.062,3.593,3.593,0,0,0-1.894,1.1,11.2,11.2,0,0,0-1.332,1.764,28.517,28.517,0,0,0-2.269,4.5c-.77,1.868-1.5,3.8-2.144,5.833s-1.187,4.006-1.624,5.936a28.145,28.145,0,0,0-.75,4.774,10.642,10.642,0,0,0-.021,1.411,6.228,6.228,0,0,0,.208,1.391,2.5,2.5,0,0,0,.791,1.37,8.491,8.491,0,0,0,1.457.976,5.572,5.572,0,0,0,1.624.561,4.177,4.177,0,0,0,2.144-.062c.583-.187.937-.81,1.1-1.889.146-1.121.375-2.366.666-3.736a25.307,25.307,0,0,0,4.517-.291,29.383,29.383,0,0,0,4.83-1.017c.52,1.785.978,3.362,1.332,4.753ZM372.9,540.8a83.507,83.507,0,0,1,4.538,10.025,33.283,33.283,0,0,1-8.348,1A85.106,85.106,0,0,1,372.9,540.8Z" transform="translate(-339.703 -531.363)" fill-rule="evenodd" fill="url(#linear-gradient-3)"/>
        <path id="Каркуша_copy_2" d="M266.628,533.2c.021-1.017-.187-1.661-.687-1.951a4,4,0,0,0-1.957-.457,8.365,8.365,0,0,0-1.436.1,5.171,5.171,0,0,0-1.332.5,2.439,2.439,0,0,0-1,1.1,10.089,10.089,0,0,0-.687,2.553,25.939,25.939,0,0,0-.167,4.587c.062,1.868.187,3.8.416,5.812s.52,3.944.9,5.812a25.517,25.517,0,0,0,1.291,4.587,13.046,13.046,0,0,0,.9,1.889,3.142,3.142,0,0,0,1.561,1.37,3.831,3.831,0,0,0,1.27.332,7.694,7.694,0,0,0,1.957-.1,6.362,6.362,0,0,0,2.123-.685,1.324,1.324,0,0,0,.77-1.432,2.859,2.859,0,0,0-.291-1.017q-.25-.53-.437-1a46.516,46.516,0,0,1-2.311-7.846,7.7,7.7,0,0,1,2.332,1.474c1.166,1.038,2.248,2.055,3.227,3.072s1.957,1.951,2.914,2.823,1.936,1.661,2.894,2.408a3.247,3.247,0,0,0,2.436.934,7.732,7.732,0,0,0,3.039-2.1c1.353-1.266,1.582-2.429.687-3.446-.4-.415-1.124-1.1-2.228-2.034-1.1-.955-2.29-1.951-3.6-3.01s-2.6-2.1-3.872-3.113-2.269-1.785-3.039-2.346q1.592-1.93,3.247-3.736a21.218,21.218,0,0,1,4-3.321c.271-.166.541-.353.833-.54a3.838,3.838,0,0,0,.77-.643c.853-.872.666-1.806-.52-2.865a6.759,6.759,0,0,0-2.769-1.723,2.823,2.823,0,0,0-1.749.311,11.931,11.931,0,0,0-1.665.955,14.52,14.52,0,0,0-3.247,3.03c-.978,1.225-2.5,3.384-4.538,6.476-.1-3.155-.1-5.418-.021-6.767Z" transform="translate(-259.326 -529.167)" fill-rule="evenodd" fill="url(#linear-gradient-4)"/>
      </g>
    </g>
    <path id="Path_353" data-name="Path 353" d="M2.376,9.169a.04.04,0,0,0,0,.049.046.046,0,0,0,.043.03H4.668a.077.077,0,0,0,.086-.089v-4.8a.077.077,0,0,0-.086-.089H3.178q-.086,0-.086.079a25.9,25.9,0,0,1-.119,3.133,5.345,5.345,0,0,1-.6,1.687ZM.915,11.946a.514.514,0,0,1-.382-.168.55.55,0,0,1-.162-.4V9.7A.446.446,0,0,1,.5,9.382a.427.427,0,0,1,.32-.133.1.1,0,0,0,.1-.059,5.092,5.092,0,0,0,.573-1.117,5.783,5.783,0,0,0,.244-1.329Q1.8,5.918,1.8,4.267V3.714a.55.55,0,0,1,.162-.4.514.514,0,0,1,.382-.168h3.18a.514.514,0,0,1,.382.168.55.55,0,0,1,.162.4V9.159a.077.077,0,0,0,.086.089h.2a.522.522,0,0,1,.382.163A.534.534,0,0,1,6.9,9.8v1.581a.55.55,0,0,1-.162.4.514.514,0,0,1-.382.168H6.215a.514.514,0,0,1-.382-.168.55.55,0,0,1-.162-.4v-.929q0-.089-.076-.089H1.679q-.076,0-.076.089v.929a.55.55,0,0,1-.162.4.514.514,0,0,1-.382.168Zm7.822-1.581a.514.514,0,0,1-.382-.168.55.55,0,0,1-.162-.4V3.714a.55.55,0,0,1,.162-.4.514.514,0,0,1,.382-.168h3.247a.514.514,0,0,1,.382.168.55.55,0,0,1,.162.4.534.534,0,0,1-.162.39.522.522,0,0,1-.382.163H9.615a.077.077,0,0,0-.086.089V5.947a.077.077,0,0,0,.086.089h2.206a.483.483,0,0,1,.368.158.531.531,0,0,1,.148.376.514.514,0,0,1-.148.371.491.491,0,0,1-.368.153H9.615a.077.077,0,0,0-.086.089V9.159a.077.077,0,0,0,.086.089h2.369a.522.522,0,0,1,.382.163.534.534,0,0,1,.162.39.55.55,0,0,1-.162.4.514.514,0,0,1-.382.168ZM14.41,4.3a.522.522,0,0,1-.382-.163.534.534,0,0,1-.162-.39v-.03a.55.55,0,0,1,.162-.4.514.514,0,0,1,.382-.168h4.069a.514.514,0,0,1,.382.168.55.55,0,0,1,.162.4v.03a.534.534,0,0,1-.162.39.522.522,0,0,1-.382.163H17.2q-.076,0-.076.089V9.8a.55.55,0,0,1-.162.4.514.514,0,0,1-.382.168h-.27a.514.514,0,0,1-.382-.168.55.55,0,0,1-.162-.4V4.386q0-.089-.076-.089Zm8.89,6.164A3.086,3.086,0,0,1,20.909,9.5a3.914,3.914,0,0,1-.883-2.743,4.007,4.007,0,0,1,.855-2.733,3.016,3.016,0,0,1,2.392-.973,6.616,6.616,0,0,1,1.184.089.6.6,0,0,1,.382.237.709.709,0,0,1,.153.445V3.9a.378.378,0,0,1-.167.326.414.414,0,0,1-.358.069,3.969,3.969,0,0,0-1.051-.128,1.8,1.8,0,0,0-1.485.672,3,3,0,0,0-.54,1.917A2.927,2.927,0,0,0,21.95,8.67a1.839,1.839,0,0,0,1.5.677,4.272,4.272,0,0,0,1.079-.119.414.414,0,0,1,.358.069.378.378,0,0,1,.167.326v.069a.7.7,0,0,1-.148.44.594.594,0,0,1-.387.232A6.817,6.817,0,0,1,23.3,10.464Zm3.906-.1a.5.5,0,0,1-.377-.168.559.559,0,0,1-.158-.4V3.714a.559.559,0,0,1,.158-.4.5.5,0,0,1,.377-.168h.258a.514.514,0,0,1,.382.168.55.55,0,0,1,.162.4v2.56a.009.009,0,0,0,.01.01l.01-.01,1.92-2.668a.992.992,0,0,1,.86-.455h.478a.278.278,0,0,1,.21.445L29.3,6.54a.112.112,0,0,0,0,.138L31.6,9.91a.266.266,0,0,1,.029.3.258.258,0,0,1-.248.158H30.9a.969.969,0,0,1-.85-.455L28.029,6.946a.01.01,0,1,0-.019,0V9.8a.55.55,0,0,1-.162.4.514.514,0,0,1-.382.168Zm6.179,0a.5.5,0,0,1-.377-.168.559.559,0,0,1-.158-.4V3.714a.559.559,0,0,1,.158-.4.5.5,0,0,1,.377-.168h.21a.514.514,0,0,1,.382.168.55.55,0,0,1,.162.4V8.053a.01.01,0,1,0,.019,0l2.359-4.408a.849.849,0,0,1,.8-.494h.21a.5.5,0,0,1,.377.168.559.559,0,0,1,.158.4V9.8a.559.559,0,0,1-.158.4.5.5,0,0,1-.377.168h-.21a.514.514,0,0,1-.382-.168.55.55,0,0,1-.162-.4V5.463a.01.01,0,1,0-.019,0L34.4,9.871a.849.849,0,0,1-.8.494Zm6.886,0A.5.5,0,0,1,39.9,10.2a.559.559,0,0,1-.158-.4V3.714a.559.559,0,0,1,.158-.4.5.5,0,0,1,.377-.168h.21a.514.514,0,0,1,.382.168.55.55,0,0,1,.162.4V8.053a.01.01,0,1,0,.019,0l2.359-4.408a.849.849,0,0,1,.8-.494h.21a.5.5,0,0,1,.377.168.559.559,0,0,1,.158.4V9.8a.559.559,0,0,1-.158.4.5.5,0,0,1-.377.168h-.21a.514.514,0,0,1-.382-.168.55.55,0,0,1-.162-.4V5.463a.01.01,0,1,0-.019,0L41.285,9.871a.849.849,0,0,1-.8.494ZM43.778.946H43.8a.442.442,0,0,1,.344.148.327.327,0,0,1,.067.346,1.606,1.606,0,0,1-.673.885,2.3,2.3,0,0,1-2.378,0,1.606,1.606,0,0,1-.673-.885.327.327,0,0,1,.067-.346A.442.442,0,0,1,40.9.946h.019q.315,0,.611.445a1.035,1.035,0,0,0,1.643,0Q43.463.946,43.778.946Zm7.039,3.331V6.659a.087.087,0,0,0,.076.089A5.237,5.237,0,0,0,51.6,6.8a1.755,1.755,0,0,0,1.179-.351,1.254,1.254,0,0,0,.406-1q0-1.314-1.585-1.314a5.237,5.237,0,0,0-.707.049.093.093,0,0,0-.077.093Zm-.783,6.088a.5.5,0,0,1-.377-.168.559.559,0,0,1-.158-.4V3.763a.655.655,0,0,1,.153-.425.536.536,0,0,1,.382-.208q.812-.079,1.566-.079a3.331,3.331,0,0,1,2.149.588,2.079,2.079,0,0,1,.716,1.7,2.4,2.4,0,0,1-.692,1.868,2.943,2.943,0,0,1-2.049.633q-.315,0-.831-.04a.069.069,0,0,0-.076.079V9.8a.55.55,0,0,1-.162.4.514.514,0,0,1-.382.168Zm7.115-2.886a.067.067,0,0,0,.01.059.056.056,0,0,0,.048.03h1.585a.056.056,0,0,0,.048-.03.067.067,0,0,0,.01-.059l-.84-3.1a.01.01,0,1,0-.019,0Zm-1.633,2.886A.362.362,0,0,1,55.2,10.2a.393.393,0,0,1-.048-.366l1.977-6.147a.825.825,0,0,1,.282-.385.7.7,0,0,1,.435-.148h.344a.717.717,0,0,1,.444.148.767.767,0,0,1,.272.385l1.977,6.147a.393.393,0,0,1-.048.366.362.362,0,0,1-.315.168h-.344a.676.676,0,0,1-.425-.153.739.739,0,0,1-.263-.39L59.183,8.7q-.01-.079-.1-.079H56.919a.1.1,0,0,0-.1.079l-.306,1.117a.718.718,0,0,1-.688.544Zm6.714-.128a.662.662,0,0,1-.368-.277.818.818,0,0,1-.138-.465V9.4a.351.351,0,0,1,.158-.306.347.347,0,0,1,.339-.04,4.535,4.535,0,0,0,1.509.3,1.515,1.515,0,0,0,1.008-.3,1.031,1.031,0,0,0,.349-.83.851.851,0,0,0-.42-.786A3.1,3.1,0,0,0,63.2,7.173a.491.491,0,0,1-.372-.163.551.551,0,0,1-.153-.39.542.542,0,0,1,.158-.39.506.506,0,0,1,.377-.163q1.767-.03,1.767-1.058,0-.84-1.222-.84a4.029,4.029,0,0,0-1.452.287.357.357,0,0,1-.344-.04A.348.348,0,0,1,61.8,4.11V4.02a.8.8,0,0,1,.143-.465.683.683,0,0,1,.372-.277,5.764,5.764,0,0,1,1.633-.227,2.793,2.793,0,0,1,1.714.465,1.48,1.48,0,0,1,.616,1.245,1.754,1.754,0,0,1-.339,1.127,2.089,2.089,0,0,1-1.084.642.009.009,0,0,0-.01.01q0,.02.01.02A1.884,1.884,0,0,1,66,7.118a1.683,1.683,0,0,1,.4,1.171,1.97,1.97,0,0,1-.688,1.6,2.913,2.913,0,0,1-1.92.573,5.464,5.464,0,0,1-1.566-.225Zm6.733-3.074V9.239a.1.1,0,0,0,.086.1,4.32,4.32,0,0,0,.63.049,1.819,1.819,0,0,0,1.16-.3,1.125,1.125,0,0,0,.368-.924.889.889,0,0,0-.425-.815,2.815,2.815,0,0,0-1.409-.262h-.334a.069.069,0,0,0-.077.076Zm0-2.886v1.69q0,.089.076.089h.277A2.482,2.482,0,0,0,70.6,5.8a.828.828,0,0,0,.4-.746.8.8,0,0,0-.325-.7,1.9,1.9,0,0,0-1.06-.227,3.568,3.568,0,0,0-.573.04.1.1,0,0,0-.08.11Zm-.783,6.108a.542.542,0,0,1-.382-.2.65.65,0,0,1-.153-.43V3.763a.65.65,0,0,1,.153-.43.55.55,0,0,1,.392-.2,12.289,12.289,0,0,1,1.366-.079q2.674,0,2.674,1.809a1.534,1.534,0,0,1-.392,1.048,1.8,1.8,0,0,1-1.031.573.009.009,0,0,0-.01.01q0,.02.01.02a2.025,2.025,0,0,1,1.227.6A1.673,1.673,0,0,1,72.478,8.3a1.952,1.952,0,0,1-.688,1.631,3.436,3.436,0,0,1-2.139.544,13.93,13.93,0,0,1-1.472-.085Zm6.074-.02a.5.5,0,0,1-.377-.168.559.559,0,0,1-.158-.4V3.714a.559.559,0,0,1,.158-.4.5.5,0,0,1,.377-.168h.21a.514.514,0,0,1,.382.168.55.55,0,0,1,.162.4V8.053a.01.01,0,1,0,.019,0l2.359-4.408a.849.849,0,0,1,.8-.494h.21a.5.5,0,0,1,.377.168.559.559,0,0,1,.158.4V9.8a.559.559,0,0,1-.158.4.5.5,0,0,1-.377.168h-.21A.514.514,0,0,1,77.8,10.2a.55.55,0,0,1-.162-.4V5.463a.01.01,0,1,0-.019,0L75.266,9.871a.849.849,0,0,1-.8.494Zm7.669-3.2V9.239a.1.1,0,0,0,.086.1,4.32,4.32,0,0,0,.63.049,1.819,1.819,0,0,0,1.16-.3,1.125,1.125,0,0,0,.368-.924.889.889,0,0,0-.425-.815,2.815,2.815,0,0,0-1.409-.262H82a.069.069,0,0,0-.077.076Zm0-2.886v1.69q0,.089.076.089h.277A2.481,2.481,0,0,0,83.56,5.8a.828.828,0,0,0,.4-.746.8.8,0,0,0-.325-.7,1.9,1.9,0,0,0-1.06-.227,3.568,3.568,0,0,0-.573.04.1.1,0,0,0-.079.11Zm-.783,6.108a.542.542,0,0,1-.382-.2.65.65,0,0,1-.153-.43V3.763a.65.65,0,0,1,.153-.43.55.55,0,0,1,.392-.2,12.289,12.289,0,0,1,1.366-.079q2.674,0,2.674,1.809a1.534,1.534,0,0,1-.39,1.045,1.8,1.8,0,0,1-1.031.573.009.009,0,0,0-.01.01q0,.02.01.02a2.025,2.025,0,0,1,1.227.6,1.673,1.673,0,0,1,.444,1.181,1.952,1.952,0,0,1-.688,1.631,3.435,3.435,0,0,1-2.139.544,13.929,13.929,0,0,1-1.474-.082Zm7.029-2.906a.067.067,0,0,0,.01.059.056.056,0,0,0,.048.03h1.585a.056.056,0,0,0,.048-.03.067.067,0,0,0,.01-.059l-.84-3.1a.01.01,0,1,0-.019,0Zm-1.633,2.886a.362.362,0,0,1-.315-.168.393.393,0,0,1-.048-.366L88.15,3.686a.825.825,0,0,1,.282-.385.7.7,0,0,1,.435-.148h.344a.717.717,0,0,1,.444.148.767.767,0,0,1,.272.385L91.9,9.831a.393.393,0,0,1-.048.366.362.362,0,0,1-.315.168H91.2a.676.676,0,0,1-.425-.153.739.739,0,0,1-.263-.39L90.2,8.7q-.01-.079-.105-.079H87.939a.1.1,0,0,0-.105.079l-.306,1.117a.718.718,0,0,1-.688.544ZM99.667,6.758q0-2.57-1.433-2.57T96.8,6.758q0,2.57,1.433,2.57T99.667,6.758Zm-6.045,3.607a.514.514,0,0,1-.382-.168.55.55,0,0,1-.162-.4V3.714a.55.55,0,0,1,.162-.4.514.514,0,0,1,.382-.168h.248a.514.514,0,0,1,.382.168.55.55,0,0,1,.162.4V5.947a.077.077,0,0,0,.086.089h.888q.067,0,.086-.089a3.583,3.583,0,0,1,.883-2.155,2.5,2.5,0,0,1,1.877-.741A2.46,2.46,0,0,1,100.3,4a4.433,4.433,0,0,1,.735,2.757,4.433,4.433,0,0,1-.735,2.757,2.726,2.726,0,0,1-4.035.109,3.97,3.97,0,0,1-.817-2.451q0-.079-.086-.079H94.5a.077.077,0,0,0-.086.089V9.8a.55.55,0,0,1-.162.4.514.514,0,0,1-.382.168Zm9.245,0a.514.514,0,0,1-.382-.168.55.55,0,0,1-.162-.4V3.714a.55.55,0,0,1,.162-.4.514.514,0,0,1,.382-.168h.22a.514.514,0,0,1,.382.168.55.55,0,0,1,.162.4V9.159q0,.089.076.089h1.633a.077.077,0,0,0,.086-.089V3.714a.55.55,0,0,1,.162-.4.514.514,0,0,1,.382-.168h.191a.5.5,0,0,1,.377.168.559.559,0,0,1,.158.4V9.159a.077.077,0,0,0,.086.089h1.633a.077.077,0,0,0,.086-.089V3.714a.559.559,0,0,1,.158-.4.5.5,0,0,1,.377-.168h.229a.5.5,0,0,1,.377.168.559.559,0,0,1,.158.4V9.159a.077.077,0,0,0,.086.089h.334a.506.506,0,0,1,.377.163.542.542,0,0,1,.158.39v1.581a.559.559,0,0,1-.158.4.5.5,0,0,1-.377.168h-.162a.514.514,0,0,1-.382-.168.55.55,0,0,1-.162-.4v-.929q0-.089-.076-.089Zm9.713,0a.5.5,0,0,1-.377-.168.559.559,0,0,1-.158-.4V3.714a.559.559,0,0,1,.158-.4.5.5,0,0,1,.377-.168h.21a.514.514,0,0,1,.382.168.55.55,0,0,1,.162.4V8.053a.01.01,0,1,0,.019,0l2.359-4.408a.849.849,0,0,1,.8-.494h.21a.5.5,0,0,1,.377.168.559.559,0,0,1,.158.4V9.8a.559.559,0,0,1-.158.4.5.5,0,0,1-.377.168h-.21a.514.514,0,0,1-.382-.168.55.55,0,0,1-.162-.4V5.463a.01.01,0,1,0-.019,0L113.59,9.871a.849.849,0,0,1-.8.494Zm6.886,0a.5.5,0,0,1-.377-.168.559.559,0,0,1-.158-.4V3.714a.559.559,0,0,1,.158-.4.5.5,0,0,1,.377-.168h.21a.514.514,0,0,1,.382.168.55.55,0,0,1,.162.4V8.053a.009.009,0,0,0,.01.01.009.009,0,0,0,.01-.01l2.36-4.408a.849.849,0,0,1,.8-.494h.21a.5.5,0,0,1,.377.168.559.559,0,0,1,.158.4V9.8a.559.559,0,0,1-.158.4.5.5,0,0,1-.377.168h-.21a.514.514,0,0,1-.382-.168.55.55,0,0,1-.162-.4V5.463a.01.01,0,1,0-.019,0l-2.359,4.408a.849.849,0,0,1-.8.494Zm3.5-9.419h.019a.442.442,0,0,1,.344.148.327.327,0,0,1,.067.346,1.606,1.606,0,0,1-.673.885,2.3,2.3,0,0,1-2.378,0,1.606,1.606,0,0,1-.673-.885.327.327,0,0,1,.067-.346.442.442,0,0,1,.344-.148h.019q.315,0,.611.445a1.035,1.035,0,0,0,1.643,0Q122.656.946,122.971.946Zm6.265,9.419a.514.514,0,0,1-.382-.168.55.55,0,0,1-.162-.4V3.714a.55.55,0,0,1,.162-.4.514.514,0,0,1,.382-.168h.248a.514.514,0,0,1,.382.168.55.55,0,0,1,.162.4V9.159q0,.089.076.089h2.388a.077.077,0,0,0,.086-.089V3.714a.559.559,0,0,1,.158-.4.5.5,0,0,1,.377-.168h.258a.514.514,0,0,1,.382.168.55.55,0,0,1,.162.4V9.159q0,.089.076.089h.43a.522.522,0,0,1,.382.163.534.534,0,0,1,.162.39v1.581a.55.55,0,0,1-.162.4.514.514,0,0,1-.382.168h-.162a.5.5,0,0,1-.377-.168.559.559,0,0,1-.158-.4v-.929a.077.077,0,0,0-.086-.089Zm7.564,0a.514.514,0,0,1-.382-.168.55.55,0,0,1-.162-.4V3.714a.55.55,0,0,1,.162-.4.514.514,0,0,1,.382-.168h3.247a.514.514,0,0,1,.382.168.55.55,0,0,1,.162.4.534.534,0,0,1-.162.39.522.522,0,0,1-.382.163h-2.369a.077.077,0,0,0-.086.089V5.947a.077.077,0,0,0,.086.089h2.206a.483.483,0,0,1,.368.158.531.531,0,0,1,.148.376.514.514,0,0,1-.148.371.491.491,0,0,1-.368.153h-2.206a.077.077,0,0,0-.086.089V9.159a.077.077,0,0,0,.086.089h2.369a.522.522,0,0,1,.382.163.534.534,0,0,1,.162.39.55.55,0,0,1-.162.4.514.514,0,0,1-.382.168Zm5.9,0a.5.5,0,0,1-.377-.168.559.559,0,0,1-.158-.4V3.714a.559.559,0,0,1,.158-.4.5.5,0,0,1,.377-.168h.258a.514.514,0,0,1,.382.168.55.55,0,0,1,.162.4V5.947q0,.089.076.089h2.388q.076,0,.076-.089V3.714a.55.55,0,0,1,.162-.4.514.514,0,0,1,.382-.168h.258a.5.5,0,0,1,.377.168.559.559,0,0,1,.158.4V9.8a.559.559,0,0,1-.158.4.5.5,0,0,1-.377.168h-.258a.514.514,0,0,1-.382-.168.55.55,0,0,1-.162-.4V7.183q0-.089-.076-.089h-2.388q-.076,0-.076.089V9.8a.55.55,0,0,1-.162.4.514.514,0,0,1-.382.168ZM149.359,4.3a.522.522,0,0,1-.382-.163.534.534,0,0,1-.162-.39v-.03a.55.55,0,0,1,.162-.4.514.514,0,0,1,.382-.168h4.069a.514.514,0,0,1,.382.168.55.55,0,0,1,.162.4v.03a.534.534,0,0,1-.162.39.522.522,0,0,1-.382.163h-1.28q-.076,0-.076.089V9.8a.55.55,0,0,1-.162.4.514.514,0,0,1-.382.168h-.267a.514.514,0,0,1-.382-.168.55.55,0,0,1-.162-.4V4.386q0-.089-.076-.089Zm7.363-.02V6.659a.087.087,0,0,0,.076.089,5.237,5.237,0,0,0,.707.049,1.755,1.755,0,0,0,1.179-.351,1.254,1.254,0,0,0,.406-1q0-1.314-1.585-1.314a5.237,5.237,0,0,0-.707.049.093.093,0,0,0-.076.1Zm-.783,6.088a.5.5,0,0,1-.377-.168.559.559,0,0,1-.158-.4V3.763a.655.655,0,0,1,.153-.425.536.536,0,0,1,.382-.208q.812-.079,1.566-.079a3.331,3.331,0,0,1,2.149.588,2.079,2.079,0,0,1,.716,1.7,2.4,2.4,0,0,1-.692,1.868,2.943,2.943,0,0,1-2.049.633q-.315,0-.831-.04a.069.069,0,0,0-.076.079V9.8a.55.55,0,0,1-.162.4.514.514,0,0,1-.382.168Z" transform="translate(404.629 1147.053)" fill="#444"/>
  </g>
</svg>
